<?xml version="1.0" encoding="utf-8"?>
<!-- Generator: Adobe Illustrator 27.5.0, SVG Export Plug-In . SVG Version: 6.00 Build 0)  -->
<svg version="1.1" id="Layer_1" xmlns="http://www.w3.org/2000/svg" xmlns:xlink="http://www.w3.org/1999/xlink" x="0px" y="0px"
	 viewBox="0 0 196.791 487.84" style="enable-background:new 0 0 196.791 487.84;" xml:space="preserve">
<g>
	<g>
		<g>
			<path style="fill:#4B1E0A;" d="M88.034,332.192c-2.933-0.06-5.99-0.242-8.889,0.318c-0.173-0.082-0.386-0.023-0.563,0.117
				c-0.084,0.02-0.171,0.032-0.255,0.053c-0.276,0.068-0.593,0.636-0.176,0.748c0.051,0.014,0.104,0.022,0.155,0.035
				c1.04,5.095,0.129,8.67-1.955,13.237c-1.967,4.309-4.122,8.476-5.914,12.875c-3.683,9.045-7.817,17.898-11.338,27.008
				c-3.15,8.15-5.745,16.509-7.924,24.968c-1.161,4.508-2.169,9.048-3.338,13.555c-0.484,1.863-0.277,4.148-2.02,5.331
				c-0.073,0.049-0.119,0.091-0.183,0.137c-0.089-0.09-0.18-0.181-0.27-0.271c-2.777,1.739-5.131,4.129-6.669,7.03
				c-3.104,5.856-0.603,14.049,1.605,19.748c4.999,12.904,18.112,23.964,32.615,21.924c9.8-1.378,0.184-11.698-2.864-14.636
				c-1.102-1.063-2.191-2.07-3.262-3.074c-1.922-1.514-3.849-3.167-5.097-5.199c-0.624-0.734-1.23-1.5-1.813-2.318
				c-2.359-3.313-3.943-6.956-4.77-10.84c0.028-0.075,0.045-0.155,0.033-0.239c-1.301-9.67-0.604-18.335,3.077-27.421
				c3.3-8.142,6.817-16.214,9.992-24.404c3.145-8.114,6.588-16.121,9.614-24.28c1.394-3.76,2.628-7.578,4.195-11.27
				c1.448-3.411,3.169-6.868,4.059-10.489c0.947-1.102,1.603-2.429,2.07-3.827c0.836-2.494-0.572-5.243,0.413-7.668
				C88.747,332.891,88.652,332.205,88.034,332.192z"/>
			<path style="fill:#DCF2FD;" d="M74.61,473.04c-0.05-0.092-0.107-0.178-0.163-0.264c-0.403,0.976-1.47,1.807-3.286,2.236
				c-5.211,1.231-11.429-2.052-15.391-5.173c-6.469-5.095-10.433-11.763-13.614-19.268c-2.415-5.694-1.29-10.962,1.717-16.077
				c0.01-0.056,0.015-0.117,0.024-0.172c-2.496,2.384-4.229,5.206-3.941,9.687c0.452,7.034,2.889,14.128,7.067,19.852
				c3.913,5.358,8.979,9.693,15.424,11.685C65.127,476.373,77.97,479.188,74.61,473.04z"/>
			<path style="fill:#ECD7C7;" d="M86.685,338.299c0.142,2.865-1.602,4.608-2.583,7.081c-0.165,0.415,0.097,0.777,0.452,0.739
				c-7.438,15.394-12.915,31.835-19.313,47.667c-5.545,13.723-14.099,28.053-12.45,43.142c-0.139-0.096-0.281-0.187-0.418-0.284
				c0.018,0.414,0.036,0.828,0.046,1.243c0.733,7.093,2.999,13.692,7.813,19.887c0.598,0.769,1.244,1.495,1.919,2.197
				c-0.552,1.869-1.256,3.577-3.881,2.554c-3.873-1.51-6.366-4.677-8.575-8.027c-1.724-2.615-2.716-5.552-3.587-8.534
				c-0.594-2.03-2.289-9.982-0.079-13.309c-0.034,0.695,0.052,1.393,0.286,2.017c0.195,0.518,0.712,0.546,1.096,0.303
				c0.443-0.137,0.813-0.674,0.808-1.09c-0.006-0.486-0.323-0.704-0.689-0.713c-0.239-0.773-0.258-1.688-0.005-2.407
				c0.72-0.602,1.308-1.192,1.515-2.831c0.609-4.835,2.244-9.726,3.375-14.471c2.561-10.744,6.091-21.245,10.229-31.478
				c3.855-9.534,7.842-19.12,11.993-28.528c1.691-3.832,3.527-7.72,5.419-11.454c1.375-2.716,0.49-5.516-0.378-8.257
				c2.32,0.372,4.75,0.273,7.098,0.208C86.494,335.379,86.611,336.822,86.685,338.299z"/>
			<path style="fill:#ECD7C7;" d="M79.677,333.744c0.868,2.741,1.753,5.541,0.378,8.257c-1.892,3.734-3.728,7.622-5.419,11.454
				c-4.151,9.408-8.138,18.994-11.993,28.528c-4.138,10.233-7.668,20.734-10.229,31.478c-1.131,4.745-2.766,9.636-3.375,14.471
				c-0.207,1.639-0.795,2.229-1.515,2.831c-0.253,0.72-0.234,1.634,0.005,2.407c0.366,0.009,0.684,0.227,0.689,0.713
				c0.005,0.416-0.364,0.953-0.808,1.09c-0.384,0.243-0.9,0.216-1.096-0.303c-0.234-0.623-0.32-1.321-0.286-2.017
				c-2.21,3.327-0.515,11.278,0.079,13.309c0.871,2.982,1.863,5.919,3.587,8.534c2.209,3.351,4.702,6.518,8.575,8.027
				c1.569,0.612,2.449,0.244,3.023-0.547c-0.291,0.004-0.589-0.002-0.898-0.024c-4.5-0.336-7.288-4.107-9.13-7.841
				c-2.159-2.886-3.449-6.743-4.19-9.828c-0.532-2.219-1.459-5.422,0.396-7.277c0.522-0.522,1.102-0.767,1.697-0.827
				c0.103-0.851,0.214-1.71,0.327-2.582c0.977-7.533,2.391-14.754,4.974-21.923c2.597-7.205,5.69-14.205,8.467-21.339
				c2.746-7.055,4.513-14.474,7.432-21.447c2.653-6.34,5.883-12.403,8.663-18.684c1.499-3.387,2.489-7.065,4.225-10.346
				c1.043-1.973,2.313-3.781,3.486-5.664c0.014-0.08,0.017-0.162,0.032-0.242C84.427,334.017,81.997,334.116,79.677,333.744z"/>
		</g>
		<g>
			<path style="fill:#4B1E0A;" d="M96.267,385.61c0.929-9.794,1.818-19.627,3.192-29.366c0.683-4.843,0.269-9.638,0.829-14.45
				c0.398-3.42,1.123-6.865,1.097-10.316c0.467-0.113,0.722-0.671,0.519-1.114c-0.966-2.108-5.16-0.651-6.757-0.242
				c-1.335,0.342-4.08,0.604-3.647,2.596c0.019,0.085,0.06,0.135,0.11,0.165c-0.889,9.536-1.356,19.029-2.834,28.531
				c-1.361,8.758-2.747,17.396-3.217,26.26c-0.499,9.434,0.202,18.804,0.792,28.208c0.602,9.604,1.577,20.393-2.118,29.482
				c-2.419,4.162-6.233,7.403-8.694,11.575c-3.828,6.493-0.678,13.581,6.652,14.986c7.741,1.484,15.958,0.577,18.497-7.903
				c2.147-7.173-0.498-15.38-3.977-22.673c-0.043,0.013-0.086,0.023-0.129,0.035c-2.938-7.801-1.795-17.018-1.829-25.175
				C94.711,405.965,95.299,395.805,96.267,385.61z"/>
			<path style="fill:#DCF2FD;" d="M89.819,470.274c-3.411,0.254-6.768,0.026-9.958-1.29c-9.283-3.829-1.324-13.489,3.2-19.014
				c-1.362,4.953-0.983,9.395,4.769,10.154c9.169,1.211,9.483-7.759,7.813-15.461c1.801,4.247,3.279,8.592,3.517,13.353
				C99.49,464.664,97.199,469.726,89.819,470.274z"/>
			<path style="fill:#DCF2FD;" d="M63.823,461.621c3.843,3.597,8.221,6.723,10.787,11.419c3.359,6.148-9.483,3.333-12.163,2.506
				c-6.445-1.991-11.511-6.326-15.424-11.685c-4.179-5.724-6.615-12.817-7.067-19.852c-0.288-4.48,1.445-7.303,3.941-9.687
				c-1.099,6.036,1.184,16.016,2.487,18.638c2.842,5.712,6.932,11.015,13.51,12.368C62.016,465.766,63.259,463.704,63.823,461.621z"
				/>
			<path style="fill:#DCF2FD;" d="M89.819,470.274c-3.411,0.254-6.768,0.026-9.958-1.29c-9.283-3.829-1.324-13.489,3.2-19.014
				c-1.362,4.953-0.983,9.395,4.769,10.154c9.169,1.211,9.483-7.759,7.813-15.461c1.801,4.247,3.279,8.592,3.517,13.353
				C99.49,464.664,97.199,469.726,89.819,470.274z"/>
			<path style="fill:#DCF2FD;" d="M74.61,473.04c-0.05-0.092-0.107-0.178-0.163-0.264c-0.403,0.976-1.47,1.807-3.286,2.236
				c-5.211,1.231-11.429-2.052-15.391-5.173c-6.469-5.095-10.433-11.763-13.614-19.268c-2.415-5.694-1.29-10.962,1.717-16.077
				c0.01-0.056,0.015-0.117,0.024-0.172c-2.496,2.384-4.229,5.206-3.941,9.687c0.452,7.034,2.889,14.128,7.067,19.852
				c3.913,5.358,8.979,9.693,15.424,11.685C65.127,476.373,77.97,479.188,74.61,473.04z"/>
			<path style="fill:#DCF2FD;" d="M74.61,473.04c-0.05-0.092-0.107-0.178-0.163-0.264c-0.403,0.976-1.47,1.807-3.286,2.236
				c-5.211,1.231-11.429-2.052-15.391-5.173c-6.469-5.095-10.433-11.763-13.614-19.268c-2.415-5.694-1.29-10.962,1.717-16.077
				c0.01-0.056,0.015-0.117,0.024-0.172c-2.496,2.384-4.229,5.206-3.941,9.687c0.452,7.034,2.889,14.128,7.067,19.852
				c3.913,5.358,8.979,9.693,15.424,11.685C65.127,476.373,77.97,479.188,74.61,473.04z"/>
			<path style="fill:#DCF2FD;" d="M99.159,458.017c-0.118-2.364-0.557-4.62-1.175-6.817c-0.007,0.006-0.012,0.014-0.019,0.02
				c0.372,1.318,0.458,2.767,0.154,4.376c-0.844,4.474-3.067,8.028-7.423,9.763c-3.875,1.543-8.332,1.861-11.469-1.318
				c-2.103-2.132-1.946-4.684-1.012-7.089c0.032-0.236,0.067-0.474,0.113-0.711c-3.124,4.857-4.772,10.146,1.531,12.745
				c3.19,1.316,6.547,1.544,9.958,1.29C97.199,469.726,99.49,464.664,99.159,458.017z"/>
			<path style="fill:#ECD7C7;" d="M94.547,441.913c-0.114,0.026-0.229,0.058-0.344,0.083c0.168,0.978,0.261,1.915,0.318,2.639
				c0.051,0.627,0.07,1.253,0.09,1.879c0.438,2.292,0.137,4.698-0.116,6.977c-0.028,0.252-0.078,0.488-0.133,0.722
				c-0.007,0.097-0.013,0.193-0.02,0.291c-0.01,0.13-0.082,0.251-0.178,0.351c-1.354,3.68-6.196,4.462-8.864,1.316
				c-1.84-2.17-1.284-5.543-0.04-9.031c0.303-0.438,0.58-0.891,0.846-1.348c0.216-0.645,0.451-1.285,0.7-1.921
				c0.089-0.227,0.175-0.462,0.26-0.703c0.018-0.078,0.052-0.164,0.072-0.244c-0.115-0.002-0.229-0.014-0.344-0.019
				c1.959-6.392,1.761-12.749,1.691-19.679c-0.101-10.128-1.254-20.184-1.192-30.326c0.064-10.598,1.469-20.932,3.119-31.376
				c1.497-9.481,3.215-19.598,2.109-29.186c0.854-0.475,2.677-0.456,3.429-0.619c0.797-0.174,1.584-0.353,2.392-0.47
				c0.849-0.123,1.58,0.093,2.367,0.197c-2.553,18.743-4.616,37.537-6.422,56.422c-1.036,10.844-1.349,21.64-1.393,32.526
				C92.866,427.351,91.974,435.251,94.547,441.913z"/>
			<path style="fill:#ECD7C7;" d="M87.703,457.479c-2.464-4.806,0.233-8.538,0.979-13.398c1.062-6.93,0.273-13.852,0.474-20.815
				c0.203-7.102,0.278-14.206,0.499-21.308c0.444-14.267,1.738-28.506,3.69-42.646c1.281-9.281,0.768-20.313,7.344-27.699
				c0.008-0.056,0.014-0.111,0.021-0.167c-0.787-0.105-1.519-0.32-2.367-0.197c-0.808,0.117-1.595,0.296-2.392,0.47
				c-0.752,0.163-2.574,0.145-3.429,0.619c1.105,9.588-0.612,19.704-2.109,29.186c-1.65,10.444-3.055,20.778-3.119,31.376
				c-0.062,10.143,1.092,20.198,1.192,30.326c0.069,6.93,0.268,13.287-1.691,19.679c0.115,0.006,0.229,0.018,0.344,0.019
				c-0.021,0.08-0.055,0.166-0.072,0.244c-0.085,0.241-0.171,0.477-0.26,0.703c-0.249,0.636-0.484,1.276-0.7,1.921
				c-0.266,0.457-0.543,0.909-0.846,1.348c-1.244,3.488-1.8,6.861,0.04,9.031c0.756,0.892,1.688,1.457,2.664,1.74
				C87.875,457.773,87.785,457.638,87.703,457.479z"/>
		</g>
		<g>
			<path style="fill:#4B1E0A;" d="M131.447,164.436c-2.558-3.428-5.472-6.629-8.316-9.817c-1.58-1.771-3.057-3.362-5.531-3.725
				c-3.863-0.565-11.498-0.918-14.57,2.089c-0.149,0.146-0.33,0.395-0.23,0.622c0.02,0.045,0.039,0.091,0.06,0.136
				c-0.44-0.128-0.899-0.241-1.366-0.367c-3.81-1.032-7.009-3.204-11.055-3.279c-0.139-0.003-0.267,0.066-0.365,0.165
				c-1.891,0.313-3.642,1.268-5.531,1.701c-2.708,0.619-5.988,0.186-8.814-0.025c-0.044-0.037-0.087-0.073-0.132-0.117
				c-0.213-0.213-0.439-0.396-0.721-0.474c-0.052-0.029-0.109-0.047-0.176-0.04h-0.001c-0.164-0.016-0.298,0.064-0.399,0.178
				c-2.006,1.002-4,2.303-5.884,3.739c-7.341-3.894-12.248-3.919-17.438,3.069c-3.226,4.342-5.456,8.689-9.861,12.045
				c-2.292,1.746-6.301,3.746-7.647,6.386c-2.208,4.328,11.053,7.883,13.417,7.926c1.204,0.021,3.625,1.049,4.733-0.065
				c0.986,4.063,2.785,7.917,4.96,11.829c2.409,4.336,4.051,9.11,5.979,13.704c-0.649,1.732-2.173,3.064-2.761,4.857
				c-0.299,0.909-0.186,2.142,0.178,3.26c-2.124,2.292-5.706,7.129-6.352,11.189c-3.701,4.381-4.273,12.487-4.867,17.773
				c-1.01,8.977-0.856,17.716,0.827,26.592c1.857,9.796,5.064,19.523,8.477,28.866c3.23,8.847,5.839,18.487,10.654,26.632
				c0.027,0.047,0.063,0.069,0.096,0.104c0.933,1.857,2.067,2.954,5.072,3.774c4.951,1.352,10.828,0.869,15.885,0.397
				c6.761-0.631,13.289-2.183,19.834-3.9c2.409-0.632,3.45-2.067,3.398-4.544c-0.008-0.375-0.173-0.582-0.395-0.674
				c2.72-6.926,4.447-14.181,6.063-21.442c2.152-9.671,4.284-19.301,5.515-29.142c1.065-8.518,1.595-17.198,1.196-25.779
				c-0.188-4.051-0.959-8.025-2.421-11.807c-1.269-3.279-3.59-6.093-5.315-9.169c0.757-3.694-2.93-8.977-4.849-11.513
				c-0.031-0.04-0.068-0.061-0.104-0.091c-0.269-0.337-0.551-0.651-0.867-0.91c0.357-0.691,0.611-1.398,0.631-2.076
				c0.063-2.079-1.817-3.21-2.606-4.902c2.162-4.503,4.842-8.758,7.164-13.177c2.021-3.846,3.235-7.968,3.752-12.186
				c0.151,0.808,0.418,1.581,0.898,2.274c0.285,0.412,0.771,0.46,1.207,0.276c2.857-1.208,5.661-2.695,8.402-4.154
				c2.454-1.307,5.185-2.103,7.082-4.187C140.768,173.802,132.762,166.197,131.447,164.436z"/>
			<g>
				<path style="fill:#BCE4E7;" d="M91.258,151.811c0.01-0.126,0.004-0.236-0.013-0.335c2.627,1.194,5.29,2.321,7.955,3.423
					c0.336,0.139,4.027,1.588,4.211,1.477c-1.102,0.666-2.197,1.298-3.264,2.041c-4.253,2.96-8.878,5.53-13.024,8.674
					c0.078-0.501,0.149-0.941,0.229-1.259C88.523,161.219,90.89,156.566,91.258,151.811z"/>
				<path style="fill:#ECD7C7;" d="M82.342,153.863c2.409-0.189,4.404-1.221,6.604-1.785c-0.018,0.066-0.034,0.134-0.04,0.203
					c-0.324,3.551-1.918,7.206-2.905,10.622c-0.502,1.738-0.98,3.479-1.421,5.233c-0.162,0.068-0.32,0.22-0.387,0.378
					c-0.135-0.376-0.257-0.757-0.341-1.15c-0.767-2.895-1.853-5.579-3.39-8.165c-1.171-1.969-2.093-4.148-3.592-5.847
					C78.652,153.826,80.586,154.001,82.342,153.863z"/>
				<path style="fill:#ECD7C7;" d="M83.08,156.055c2.262-0.165,4.106-1.066,5.662-2.542c0.068-0.412,0.127-0.822,0.164-1.231
					c0.006-0.069,0.023-0.137,0.04-0.203c-2.2,0.564-4.195,1.596-6.604,1.785c-1.664,0.13-3.485-0.029-5.188-0.448
					C79,154.708,80.49,156.242,83.08,156.055z"/>
				<path style="fill:#ECD7C7;" d="M82.195,162.614c0.667,1.53,1.222,3.104,1.657,4.75c0.084,0.394,0.206,0.774,0.341,1.15
					c0.066-0.158,0.225-0.31,0.387-0.378c0.332-1.321,0.69-2.635,1.06-3.946C84.256,164.202,83.141,163.532,82.195,162.614z"/>
				<path style="fill:#BCE4E7;" d="M74.36,152.542c0.161,0.311,0.362,0.605,0.618,0.83c0.096,0.084,0.229,0.12,0.364,0.123
					c0.838,1.518,1.344,3.352,2.044,4.887c1.287,2.822,2.628,5.577,3.765,8.468c0.105,0.268,0.201,0.677,0.308,1.151
					c-4.274-3.953-9.985-6.824-15.461-8.486C68.717,157.116,71.837,155.141,74.36,152.542z"/>
				<path style="fill:#BCE4E7;" d="M97.25,156.827c1.711-0.488,3.489-0.743,5.234-0.695c-1.169-0.396-3.049-1.135-3.284-1.232
					c-2.665-1.102-5.328-2.229-7.955-3.423c0.017,0.099,0.022,0.209,0.013,0.335c-0.368,4.755-2.734,9.407-3.905,14.021
					c-0.08,0.317-0.151,0.758-0.229,1.259c0.265-0.2,0.545-0.382,0.813-0.577C89.899,162.343,92.689,158.13,97.25,156.827z"/>
				<path style="fill:#BCE4E7;" d="M76.363,160.72c1.884,1.644,3.057,3.804,3.778,6.15c0.449,0.369,0.896,0.74,1.317,1.131
					c-0.106-0.475-0.202-0.884-0.308-1.151c-1.137-2.891-2.478-5.645-3.765-8.468c-0.7-1.535-1.206-3.368-2.044-4.887
					c-0.135-0.003-0.268-0.039-0.364-0.123c-0.256-0.225-0.457-0.518-0.618-0.83c-2.399,2.471-5.335,4.383-7.955,6.626
					C69.493,157.71,73.56,158.274,76.363,160.72z"/>
				<path style="fill:#BCE4E7;" d="M116.824,229.077c1.045,2.843,2.682,5.392,3.885,8.245c1.725,4.088,2.045,8.61,2.166,12.991
					c0.249,9.017-0.663,18.211-1.891,27.126c-2.222,16.127-5.713,32.401-10.064,48.109c-1.706,2.261-5.306,2.418-7.947,3.016
					c-3.75,0.849-7.513,1.554-11.327,2.041c-3.894,0.498-7.922,0.603-11.845,0.569c-2.147-0.018-4.271-0.293-6.367-0.757
					c-1.739-0.385-2.686-1.252-3.531-2.323c-5.345-16.776-12.009-32.899-16.254-50.055c-2.3-9.293-3.1-18.076-2.62-27.628
					c0.211-4.213,0.663-8.404,1.489-12.543c0.306-1.53,0.742-3.028,1.219-4.513c0.038-0.245,0.107-0.482,0.158-0.726
					c0.456,1.093,1.352,2.003,2.856,2.609c1.963,0.791,3.984,1.141,6.028,1.243c0.502-0.066,0.989-0.139,1.448-0.207
					c3.133-0.467,6.16-1.01,9.242-1.743c3.237-0.771,6.877-1.431,10.196-0.939c2.435,0.361,4.836,1.033,7.227,1.684
					c5.732,1.195,11.478,1.751,17.543-0.213C111.72,234.002,115.077,232.104,116.824,229.077z"/>
				<path style="fill:#BCE4E7;" d="M58.728,287.98c-2.408-10.403-6.152-24.675-2.129-35.097c1.11-2.875,2.852-5.918,6.03-6.875
					c2.94-0.886,5.769-0.847,8.464-2.602c1.865-1.215,3.631-2.66,5.591-3.722c5.585-3.025,9.309-1.113,14.937,0.623
					c3.998,1.233,7.131,0.838,11.157,0.179c1.681-0.274,3.488-0.64,5.176-0.179c8.338,2.276,11.257,10.574,12.321,18.371
					c0.775,5.677,1.05,11.453,0.909,17.251c1.123-8.442,1.927-17.107,1.691-25.617c-0.121-4.381-0.441-8.903-2.166-12.991
					c-1.203-2.854-2.84-5.402-3.885-8.245c-1.747,3.026-5.104,4.925-8.389,5.988c-6.065,1.964-11.811,1.408-17.543,0.213
					c-2.391-0.65-4.792-1.322-7.227-1.684c-3.319-0.492-6.959,0.168-10.196,0.939c-3.082,0.733-6.109,1.276-9.242,1.743
					c-0.459,0.068-0.946,0.142-1.448,0.207c-2.044-0.103-4.066-0.452-6.028-1.243c-1.505-0.606-2.4-1.517-2.856-2.609
					c-0.051,0.243-0.12,0.48-0.158,0.726c-0.477,1.484-0.913,2.982-1.219,4.513c-0.826,4.139-1.278,8.33-1.489,12.543
					c-0.479,9.552,0.32,18.335,2.62,27.628c3.214,12.988,7.813,25.385,12.178,37.921C63.391,306.653,60.901,297.373,58.728,287.98z"
					/>
				<path style="fill:#BCE4E7;" d="M132.149,177.641c-2.898,1.453-5.817,2.905-8.613,4.54c-0.461,0.27-0.679-0.311-0.788-1.116
					c-0.49-0.807-0.563-1.828-0.661-2.753c-0.235-2.218-0.811-4.377-1.415-6.52c-1.224-4.34-3.229-8.253-5.589-12.053
					c-0.189-0.179-0.366-0.368-0.566-0.538c0.856,2.075,1.663,4.133,2.349,6.196c0.193,0.511,0.381,1.021,0.562,1.532
					c0.364,0.834,0.706,1.689,1.034,2.56c-0.062,0.053-0.113,0.116-0.162,0.182c0.305,1.11,0.531,2.225,0.667,3.344
					c0.079,0.242,0.158,0.486,0.236,0.728c-0.08,3.072-0.09,6.161-0.449,9.162c-0.572,4.774-3.233,9.571-5.554,13.711
					c-3.856,6.879-7.948,14.221-9.838,22.007c1.336-3.573,3.319-6.91,5.699-9.921c0.364,1.153,1.059,2.115,1.547,3.369
					c0.441,1.13-0.793,2.565-1.493,3.897c0.782-0.372,1.72-0.512,2.218-0.242c1.838,0.991,2.329,3.481,3.077,5.252
					c0.071,0.17,0.002,0.356-0.124,0.493c0.887,4.636-0.537,9.145-5.472,11.376c-5.601,2.532-12.123,2.207-18.063,1.275
					c-3.064-0.48-6.016-1.268-9.027-1.987c-2.93-0.7-6.352-1.528-9.367-0.758c0.033,0.1,0.111,0.178,0.26,0.189
					c1.834,0.149,3.64,0.423,5.427,0.763c-2.62,0.35-5.24,0.827-7.875,1.221c-4.167,0.621-9.34,1.108-13.096-1.267
					c-3.481-2.201,1.333-9.618,3.337-13.005c0.171,0.327,0.37,0.609,0.581,0.863c-0.373-2.186-0.223-4.346,1.183-6.22
					c0.125-0.243,0.262-0.489,0.416-0.744c0.3-0.495,0.522-0.95,0.684-1.401c0.678,1.528,1.409,3.024,2.222,4.472
					c-2.439-8.08-5.103-16.089-7.933-24.042c-2.009-4.012-3.827-7.975-4.942-12.379c0.123-0.117,0.215-0.254,0.258-0.407
					c-1.157-6.844,1.905-14.158,5.725-20.086c-0.16,0.015-0.327,0.109-0.432,0.308c-2.478,4.682-6.427,9.8-7.152,15.286
					c-0.036,0.061-0.064,0.125-0.071,0.197c-0.239,2.312-0.17,4.516,0.133,6.65c-0.203,1.153-0.875,1.969-2.73,1.5
					c-2.141-0.541-4.224-1.151-6.274-1.979c-0.646-0.261-7.843-3.417-6.171-4.715c2.023-1.571,4.214-3.038,6.268-4.595
					c4.104-3.11,6.646-6.841,9.513-11.08c2.195-3.244,4.364-6.246,8.638-6.487c2.163-0.122,4.628,1.24,6.996,1.661
					c-1.286,1.04-2.508,2.133-3.626,3.226c-0.396,0.387-0.813,1.438,0.021,1.669c3.161,0.874,6.073,2.308,8.987,3.798
					c1.95,0.997,3.922,2.01,5.782,3.168c0.569,0.354,1.072,0.78,1.562,1.22c1.021,0.513,2.181,1.069,2.928,1.826
					c0.418,0.424,0.652,0.914,0.767,1.431c0.052,0.016,0.1,0.04,0.154,0.05c-0.44,7.734-0.278,15.556-0.464,23.284
					c-0.212,8.841-0.24,17.813,0.044,26.653c1.065-6.104,1.301-12.248,1.779-18.452c0.195-2.532,0.378-5.061,0.546-7.587
					c0.013-0.365,0.021-0.731,0.036-1.096c0.3-7.556,0.524-15.139-0.281-22.657c-0.445-1.139,0.76-3.003,1.465-3.63
					c1.025-0.911,2.209-1.564,3.398-2.211c1.578-1.04,3.189-2.038,4.797-3.063c1.971-1.255,3.924-2.544,5.84-3.88
					c1.46-1.018,3.262-1.595,4.411-2.973c0.195-0.234,0.371-0.676,0.236-0.981c-0.447-1.016-1.194-1.527-2.08-1.874
					c0.039-0.053,0.079-0.107,0.09-0.179c0.06-0.4,5.611-0.797,5.774-0.816c5.577-0.662,9.031,0.319,12.785,4.699
					c4.109,4.794,7.9,9.796,11.768,14.778C136.386,175.512,135.341,176.04,132.149,177.641z"/>
				<path style="fill:#BCE4E7;" d="M85.762,174.939c1.756-2.749,4.446-4.995,7.279-6.227c3.381-1.47,6.95-2.322,10.396-3.608
					c2.427-0.905,5.374-2.429,5.262-5.495c-0.12-3.292-1.568-5.291-5.005-5.76c-0.016,0.057-0.042,0.105-0.075,0.15
					c0.886,0.347,1.633,0.858,2.08,1.874c0.135,0.306-0.041,0.747-0.236,0.981c-1.149,1.378-2.951,1.955-4.411,2.973
					c-1.916,1.336-3.869,2.625-5.84,3.88c-1.607,1.024-3.219,2.022-4.797,3.063c-1.189,0.647-2.373,1.3-3.398,2.211
					c-0.705,0.627-1.91,2.491-1.465,3.63C85.634,173.387,85.699,174.163,85.762,174.939z"/>
				<path style="fill:#BCE4E7;" d="M125.65,172.947c-4.17-3.343-7.489-9.396-10.648-13.49c-0.56-0.726-1.004-1.339-1.384-1.878
					c0.275,1.305,0.811,2.708,1.031,3.83c0.357,1.813,0.733,3.638,0.916,5.478c0.376,3.789,0.9,7.832-0.023,11.588
					c-1.022,4.164-2.492,8.298-4.42,12.135c-1.341,2.667-2.412,5.236-3.79,7.715c0.044,0.155,0.044,0.328-0.044,0.509
					c-1.884,3.872-4.379,6.781-4.98,11.231c-0.392,2.889-0.359,5.822,0.645,8.413c0.097-0.055,0.207-0.094,0.345-0.094
					c0.047,0,0.081,0.018,0.123,0.025c1.913-7.707,5.959-14.979,9.779-21.795c2.32-4.14,4.981-8.936,5.554-13.711
					c0.359-3.001,0.369-6.09,0.449-9.162c-0.078-0.241-0.157-0.485-0.236-0.728c-0.136-1.119-0.362-2.233-0.667-3.344
					c0.049-0.065,0.101-0.129,0.162-0.182c-0.328-0.871-0.67-1.726-1.034-2.56c-0.181-0.511-0.368-1.021-0.562-1.532
					c-0.685-2.063-1.492-4.121-2.349-6.196c0.2,0.17,0.377,0.359,0.566,0.538c2.359,3.8,4.365,7.713,5.589,12.053
					c0.604,2.143,1.18,4.303,1.415,6.52c0.099,0.925,0.171,1.946,0.661,2.753c0.109,0.806,0.327,1.387,0.788,1.116
					c2.796-1.635,5.715-3.087,8.613-4.54c0.932-0.468,1.674-0.844,2.209-1.217C131.542,176.414,128.608,175.318,125.65,172.947z"/>
				<path style="fill:#BCE4E7;" d="M72.519,231.53c-4.579,1.103-11.604-0.702-12.633-5.451c-1.095-5.052,5.395-7.689,9.537-6.615
					c-1.848-4.672-4.923-8.831-7.018-13.411c-0.14-0.307-0.28-0.611-0.421-0.917c1.212,3.69,2.387,7.393,3.51,11.111
					c-0.813-1.447-1.544-2.943-2.222-4.472c-0.161,0.451-0.384,0.906-0.684,1.401c-0.154,0.255-0.291,0.501-0.416,0.744
					c-1.405,1.874-1.556,4.033-1.183,6.22c-0.211-0.254-0.41-0.536-0.581-0.863c-2.004,3.387-6.818,10.804-3.337,13.005
					c3.756,2.375,8.929,1.888,13.096,1.267c2.635-0.394,5.255-0.871,7.875-1.221c-1.787-0.34-3.593-0.613-5.427-0.763
					C72.573,231.563,72.549,231.544,72.519,231.53z"/>
				<path style="fill:#BCE4E7;" d="M55.272,187.371c-0.78-2.683-1.248-5.455-1.299-8.258c-0.122-6.702,1.943-12.57,4-18.78
					c-3.518,5.738-6.19,12.622-5.098,19.086c-0.043,0.153-0.135,0.29-0.258,0.407C53.286,182.465,54.21,184.943,55.272,187.371z"/>
				<path style="fill:#BCE4E7;" d="M61.129,158.189c-0.416,0.489-0.731,0.952-0.94,1.388c-0.009,0.022-0.021,0.043-0.03,0.065
					c0,0.001,0,0.002,0,0.002c-0.269,0.744-0.292,1.624,0.031,2.665c1.535,2.696,7.645,3.869,10.412,4.572
					c3.605,0.916,7.323,1.726,10.492,3.755c1.226,0.784,2.126,1.831,2.741,3.01c0.019-0.393,0.033-0.788,0.056-1.181
					c-0.055-0.01-0.103-0.034-0.154-0.05c-0.114-0.517-0.349-1.007-0.767-1.431c-0.747-0.757-1.907-1.314-2.928-1.826
					c-0.489-0.439-0.992-0.865-1.562-1.22c-1.86-1.158-3.832-2.171-5.782-3.168c-2.914-1.49-5.826-2.924-8.987-3.798
					c-0.833-0.23-0.416-1.282-0.021-1.669c1.118-1.093,2.34-2.186,3.626-3.226c-0.296-0.053-0.594-0.12-0.893-0.197
					C64.6,156.262,62.436,156.929,61.129,158.189z"/>
				<path style="fill:#BCE4E7;" d="M51.017,174.927c0.726-5.486,4.675-10.604,7.152-15.286c0.011-0.02,0.025-0.031,0.039-0.045
					c-2.072,1.284-3.925,2.909-5.099,5.056c-0.308,0.563-0.588,1.182-0.875,1.804c-1.363,4.259-2.842,8.414-6.182,10.911
					c-1.93,1.443-4.157,2.415-6.376,2.807c1.157,0.589,2.173,1.031,2.396,1.122c2.051,0.828,4.134,1.438,6.274,1.979
					c1.855,0.469,2.527-0.347,2.73-1.5c-0.303-2.135-0.372-4.339-0.133-6.65C50.953,175.052,50.98,174.987,51.017,174.927z"/>
				<path style="fill:#BCE4E7;" d="M114.409,220.977c-0.748-1.771-1.239-4.261-3.077-5.252c-0.498-0.27-1.436-0.13-2.218,0.242
					c0.7-1.332,1.935-2.768,1.493-3.897c-0.488-1.254-1.183-2.216-1.547-3.369c-2.333,2.952-4.282,6.219-5.616,9.714
					c0.29,0.059,0.455,0.275,0.509,0.52c7.432-1.589,9.313,9.603,4.051,13.667c-0.728,0.561-1.521,1.01-2.358,1.361
					c1.081-0.286,2.14-0.652,3.168-1.117c4.935-2.232,6.358-6.74,5.472-11.376C114.411,221.333,114.48,221.146,114.409,220.977z"/>
			</g>
		</g>
		<g>
			<path style="fill:#4B1E0A;" d="M47.418,183.886c0.329-0.537-0.403-0.831-0.762-0.436c-0.01,0.011-0.018,0.023-0.027,0.034
				c-0.847-0.63-2.006-0.8-3.008-1.061c-0.816-0.212-1.557-0.588-2.357-0.825c-0.602-0.179-2.259-0.593-2.379,0.442
				c-0.012,0.103,0.01,0.183,0.05,0.241c-2.148,4.98-4.52,9.724-6.273,14.891c-2.09,6.155-3.17,12.701-4.193,19.1
				c-0.954,5.969-1.544,11.932-2.133,17.943c-0.294,3-0.576,5.998-0.664,9.012c-0.065,2.253,0.651,5.053,0.21,7.358
				c-0.606,0.085-1.197,0.227-1.715,0.38c-1.282,0.379-2.263,1.379-3.308,2.23c-0.094-0.014-0.191-0.024-0.285-0.038
				c-3.121,2.122-5.688,5.199-8.201,8.425c-1.216,1.561-3.902,3.377-3.28,5.81c0.844,3.303,2.076,5.984,2.43,9.483
				c0.111,1.103,0.085,1.123,0.934,1.84c0.206,0.174,0.516,0.17,0.748,0.058c1.635-0.793,2.236-2.567,2.37-4.408
				c1.346,2.542,3.32,5.662,4.352,3.75c0.101,0.291,0.201,0.584,0.302,0.882c0.058,0.172,0.164,0.271,0.289,0.32
				c-0.257,1.776-0.604,3.538-0.506,5.344c0.017,0.305,0.157,0.567,0.45,0.686c5.742,2.317,4.621-12.84,5.567-15.589
				c3.434-3.494,9.042-9.966,12.025-7.357c1.21,1.058,4.676,4.646,6.637,3.017c3.241-2.692-1.042-5.588-2.833-7.595
				c-1.684-1.886-3.145-3.949-4.809-5.856c-0.021,0.011-0.043,0.019-0.064,0.028c-0.268-0.355-0.564-0.688-0.921-0.973
				c-0.335-0.267-0.691-0.456-1.061-0.595c0.934-3.963,0.353-8.584,0.307-12.604c-0.07-6.048,0.61-11.92,1.185-17.927
				C37.677,207.538,40.866,194.59,47.418,183.886z"/>
			<path style="fill:#ECD7C7;" d="M33.662,232.798c-0.208,5.428,0.922,11.647-0.156,17.036c-0.081,0.092-0.147,0.197-0.199,0.31
				c-0.364,0.001-0.734,0.031-1.106,0.086c-0.565,0.083-0.84,1.131-0.131,1.173c1.399,0.085,2.387,0.628,3.379,1.595
				c0.288,0.28,0.604,0.503,0.926,0.72c0.036,0.042,0.076,0.082,0.111,0.125c0.198,0.239,0.4,0.481,0.605,0.726
				c1.329,1.343,2.37,2.979,3.643,4.363c0.627,0.704,1.275,1.388,1.945,2.052c1.258,1.285,1.33,3.815-1.008,2.314
				c-1.139-0.73-2.148-1.694-3.185-2.56c-1.346-1.122-3.321-1.627-4.74-0.255c-2.663,2.573-5.324,5.177-7.951,7.803
				c-0.023-0.002-0.049,0.01-0.072,0.012c-0.371,0.518-0.737,1.038-1.074,1.576c-1.142,1.821-0.599,4.512-0.618,6.596
				c-0.02,2.115,0.143,5.575-1.995,6.81c-0.198,0.113-0.452,0.072-0.529-0.163c-0.507-1.54-0.092-3.287,0.18-4.837
				c0.39-2.22,0.236-4.531,0.639-6.744c0.044-1.369,0.34-2.736,1.278-4.166c0.133-0.202,0.274-0.397,0.408-0.598
				c1.403-2.783,3.353-5.33,5.224-7.795c0.001-0.306-0.448-0.456-0.684-0.158c-2.764,3.489-6.426,6.669-7.977,10.943
				c-0.552,1.518-0.126,3.498,0.084,5.098c-0.355-1.142-0.825-2.246-1.388-3.313c-0.071-0.031-0.137-0.082-0.182-0.181
				c-0.236-0.518-0.386-1.007-0.466-1.477c-0.024-0.131-0.036-0.261-0.048-0.391c-0.004-0.047-0.008-0.093-0.011-0.139
				c-0.006-0.121-0.015-0.243-0.011-0.364c0.02-1.639,0.848-3.095,1.721-4.818c0.655-1.292,1.219-2.833,2.125-4.04
				c-0.155,0.002-0.327,0.085-0.436,0.271c-1.721,2.912-4.465,5.077-5.597,8.318c-0.301,0.86,0.032,2.064,0.502,2.793
				c1.137,1.761,1.922,3.504,2.617,5.368c-0.033,0.018-0.066,0.034-0.097,0.061c-0.476,0.415-3.062-5.654-3.48-6.111
				c-0.997-1.086-1.146-2.358-0.834-3.67c0.018-2.116,1.353-4.224,2.978-5.947c0.428-0.572,0.844-1.155,1.205-1.771
				c-2.566,2.104-6.983,6.689-6.032,10.383c0.006,0.02,0.014,0.038,0.02,0.057c0.054,0.2,0.132,0.396,0.219,0.589
				c0.058,0.125,0.127,0.245,0.196,0.365c0.101,0.173,0.195,0.348,0.326,0.515c0.002,0.007,0.003,0.014,0.004,0.02
				c0.393,0.59,0.717,1.093,0.844,1.859c0.196,1.18-0.423,2.476-1.066,3.41c-0.158,0.228-0.476,0.332-0.675,0.105
				c-1.024-1.161-0.937-3.029-1.221-4.47c-0.443-2.25-1.336-4.177-0.704-6.475c0.87-3.171,3.684-5.811,6.241-8.077
				c0.155-0.185,0.308-0.372,0.465-0.554c0.901-1.041,1.883-1.858,2.927-2.533c0.701-0.27,1.352-0.686,1.993-1.097
				c0.051-0.023,0.101-0.049,0.151-0.072c-0.011-0.001-0.021-0.003-0.03-0.004c0.201-0.129,0.401-0.257,0.603-0.378
				c1.528-0.921,3.384-0.456,4.985-1.056c0.487-0.183,0.682-0.999,0.14-1.231c-0.339-0.145-0.712-0.23-1.101-0.271
				c0.75-3.471-0.275-7.909-0.026-11.367c0.505-7.007,1.344-14.002,2.459-20.935c1.047-6.508,2.333-12.906,3.958-19.292
				c1.443-5.669,4.321-10.962,5.625-16.614c0.312,0.357,1.738,0.979,2.057,1.137c0.817,0.405,1.729,0.61,2.604,0.844
				c0.537,0.144,0.939,0.337,1.413,0.402c-2.403,3.235-3.92,7.476-5.347,11.083c-2.355,5.953-3.931,12.157-4.807,18.485
				C34.634,220.382,33.898,226.643,33.662,232.798z"/>
			<path style="fill:#ECD7C7;" d="M44.218,184.307c-0.876-0.233-1.787-0.438-2.604-0.844c-0.318-0.158-1.745-0.779-2.057-1.137
				c-0.117,0.506-0.259,1.006-0.398,1.506c0.134,0.076,0.241,0.202,0.264,0.391c0.631,5.32-1.486,10.52-2.428,15.688
				c-0.653,3.587-1.496,7.132-2.32,10.681c-0.033,0.195-0.067,0.391-0.102,0.586c-1.318,7.628-2.746,15.455-3.544,23.299
				c-0.019,0.239-0.041,0.48-0.059,0.718c-0.368,5.122-0.233,10.17,1.436,15.021c0.303-0.037,0.604-0.069,0.901-0.07
				c0.052-0.112,0.118-0.218,0.199-0.31c1.078-5.389-0.052-11.608,0.156-17.036c0.236-6.155,0.972-12.416,1.815-18.521
				c0.876-6.328,2.451-12.532,4.807-18.485c1.427-3.608,2.943-7.848,5.347-11.083C45.157,184.643,44.755,184.45,44.218,184.307z"/>
			<path style="fill:#ECD7C7;" d="M21.588,260.983c-0.943,0.596-1.879,1.188-2.622,2.053c-0.804,0.935-1.451,1.959-2.07,3.022
				c-0.287,0.494-1.059,0.163-0.914-0.385c0.361-1.368,1.255-2.489,2.01-3.662c0.482-0.749,1.618-1.797,1.515-2.747
				c-0.001-0.009,0.003-0.014,0.002-0.021c-2.481,1.368-4.738,3.2-6.101,5.569c-0.168,0.44-0.322,0.896-0.454,1.375
				c-1.059,3.842,0.411,7.134,0.641,10.615c0.066-0.04,0.127-0.091,0.173-0.157c0.644-0.935,1.263-2.23,1.066-3.41
				c-0.127-0.767-0.451-1.27-0.844-1.859c-0.001-0.007-0.002-0.014-0.004-0.02c-0.131-0.167-0.226-0.342-0.326-0.515
				c-0.069-0.12-0.139-0.24-0.196-0.365c-0.087-0.193-0.165-0.389-0.219-0.589c-0.007-0.019-0.015-0.037-0.02-0.057
				c-0.951-3.694,3.466-8.278,6.032-10.383c-0.361,0.616-0.777,1.199-1.205,1.771c-1.625,1.724-2.96,3.831-2.978,5.947
				c-0.313,1.312-0.163,2.584,0.834,3.67c0.419,0.457,3.005,6.526,3.48,6.111c0.03-0.026,0.063-0.043,0.097-0.061
				c-0.695-1.864-1.48-3.607-2.617-5.368c-0.47-0.729-0.803-1.933-0.502-2.793C17.42,265.704,19.866,263.611,21.588,260.983z"/>
			<path style="fill:#ECD7C7;" d="M20.573,269.761c1.522-4.197,5.076-7.34,7.821-10.755c-1.494,0.25-2.953,0.977-3.983,2.088
				c-2.402,2.59-4.937,6.237-5.238,9.838c-0.011,0.128-0.065,0.224-0.137,0.301c0.019,0.045,0.031,0.087,0.052,0.133
				c0.045,0.099,0.11,0.149,0.182,0.181c0.563,1.066,1.032,2.171,1.388,3.313C20.447,273.259,20.021,271.278,20.573,269.761z"/>
			<path style="fill:#ECD7C7;" d="M41.279,261.977c-1.086-1.253-2.438-2.884-4.131-3.28c-1.541-0.36-2.229,0.047-3.604,0.336
				c-1.333,0.913-2.984,1.363-4.2,2.509c-1.73,1.63-3.224,3.481-4.904,5.158c-0.358,0.54-0.669,1.107-0.876,1.731
				c-0.309,0.934-0.583,1.76-1.126,2.587c-0.026,0.039-0.06,0.063-0.09,0.091c-0.011,0.142-0.02,0.283-0.024,0.426
				c-0.402,2.213-0.249,4.525-0.639,6.744c-0.271,1.55-0.687,3.297-0.18,4.837c0.077,0.235,0.331,0.276,0.529,0.163
				c2.139-1.234,1.976-4.694,1.995-6.81c0.019-2.084-0.524-4.774,0.618-6.596c0.337-0.538,0.703-1.059,1.074-1.576
				c0.024-0.002,0.049-0.014,0.072-0.012c2.627-2.626,5.288-5.229,7.951-7.803c1.419-1.372,3.395-0.867,4.74,0.255
				c1.036,0.865,2.046,1.829,3.185,2.56c0.385,0.247,0.697,0.375,0.957,0.427C42.184,263.174,41.782,262.558,41.279,261.977z"/>
		</g>
		<g>
			<path style="fill:#4B1E0A;" d="M184.741,132.68c0.091-0.684,0.015-1.31-0.38-1.761c-1.5-1.712-3.058-1.528-5.11-1.212
				c-0.203-1.279-0.636-2.452-1.416-3.204c-1.581-1.523-3.62-0.545-5.265,0.784c2.184-4.431,5.437-8.157,8.195-12.451
				c0.656-1.021,2.183-5.727-0.653-5.377c-3.888,0.479-6.661,5.889-8.53,8.78c-2.976,4.603-6.791,10.333-7.864,15.842
				c-1.636,0.259-3.119,0.864-4.008,2.47c-1.13,2.041-1.619,4.681-1.539,7.303c0.116,0.279,0.245,0.555,0.364,0.834
				c0.195,2.909,0.741,5.967-0.807,8.159c-2.855,4.047-6.018,7.854-8.834,11.938c-2.822,4.092-5.342,8.364-8.083,12.504
				c-1.611,2.433-3.174,4.682-4.239,7.199c-0.232-0.592-0.548-1.168-0.811-1.711c-0.422-0.874-0.818-1.784-1.246-2.675
				c-0.487-0.84-0.942-1.697-1.363-2.573c-0.08,0.032-0.161,0.075-0.246,0.145c-0.633,0.52-1.434,0.807-2.156,1.174
				c-0.9,0.457-1.764,0.977-2.575,1.576c-0.265,0.196-1.085,0.902-1.334,1.505c-0.123,0.114-0.198,0.279-0.132,0.434
				c1.762,4.092,3.995,12.103,8.484,14.065c3.651,1.596,6.297-1.462,8.117-4.367c3.905-6.23,6.657-13.107,10.282-19.495
				c1.987-3.504,3.632-7.205,5.591-10.73c1.715-3.086,2.838-5.384,6.331-5.733c2.424,0.921,6.262-0.843,9.45-3.101
				c2.439-2.102,4.55-4.648,5.789-6.576c1.553-0.241,3.254-1.552,4.191-2.395C187.858,141.415,189.612,134.161,184.741,132.68z"/>
			<g>
				<path style="fill:#ECD7C7;" d="M165.63,131.202c0.404-2.73,2.067-5.218,3.518-7.506c2.441-3.851,5.07-8.196,8.411-11.351
					c0.932-0.88,4.117-2.155,2.962,0.497c-0.49,1.128-1.77,3.511-3.057,4.098c-0.446,0.633-0.892,1.267-1.343,1.897
					c-1.008,1.417-2.019,2.825-2.956,4.29c-1.897,2.966-3.336,5.861-3.821,9.374c-0.046,0.331,0.077,0.534,0.258,0.636
					c0.003-0.007,0.001-0.012,0.003-0.019c0.426-1.401,1.094-2.663,2.029-3.672c0.054-0.139,0.098-0.285,0.153-0.423
					c1.785-1.363,4.478-2.978,5.547-0.343c0.723,1.778,0.485,3.624,0.47,5.466c-0.046,0.205-0.083,0.413-0.117,0.621
					c-0.885-0.563-2.178-0.837-3.398-0.956c0.05-0.071,0.089-0.146,0.104-0.224c0.102-0.536,0.061-1.096,0.126-1.64
					c0.068-0.565,0.251-1.057,0.235-1.637c-0.003-0.119-0.057-0.184-0.125-0.225c-0.388,0.341-0.733,0.77-1.001,1.212
					c-0.353,0.776-0.637,1.592-0.524,2.438c-0.331-0.011-0.646-0.016-0.918-0.014c-2.376,0.021-4.85,0.044-7.213,0.213
					c-0.198,0.015-0.396,0.034-0.592,0.056C164.768,133.074,165.189,132.141,165.63,131.202z"/>
				<path style="fill:#ECD7C7;" d="M177.156,139.502c-0.006,0.029-0.009,0.06-0.015,0.089c-0.095,0.476-1.244,5.102-2.765,3.38
					c-0.51-0.578-0.619-1.512-0.914-2.279C174.868,140.582,176.17,140.262,177.156,139.502z"/>
				<path style="fill:#ECD7C7;" d="M179.286,140.809c-0.031,0.068-0.064,0.146-0.1,0.23c-0.423,0.624-0.868,1.122-1.305,1.33
					c0.356-0.871,0.564-1.822,0.705-2.682c0.267-1.632,0.486-3.498,0.468-5.225c0.26-1.053,0.384-2.351,0.316-3.625
					c0.544,0.133,1.067,0.191,1.676,0.235c2.807,0.205,0.785,4.205,0.409,5.227c-0.264,0.721-1.024,2.693-1.936,4.218
					C179.427,140.594,179.343,140.684,179.286,140.809z"/>
				<path style="fill:#ECD7C7;" d="M184.354,142.34c-0.83,1.026-2.198,1.889-3.449,2.263c-0.92,0.275-0.736-1.302-0.515-2.451
					c1.234-1.651,2.287-3.705,2.912-5.456c0.233-0.653,0.807-1.753,1.166-2.862C187.377,135.735,186.224,140.028,184.354,142.34z"/>
			</g>
			<g>
				<path style="fill:#ECD7C7;" d="M168.193,128.468c-0.869,1.848-1.9,4.195-3.643,5.144c-0.055,0.126-0.118,0.256-0.171,0.382
					c0.196-0.021,0.394-0.041,0.592-0.056c2.362-0.169,4.837-0.191,7.213-0.213c0.271-0.002,0.587,0.003,0.918,0.014
					c-0.112-0.847,0.172-1.662,0.524-2.438c0.268-0.442,0.613-0.871,1.001-1.212c0.068,0.041,0.122,0.105,0.125,0.225
					c0.016,0.58-0.167,1.071-0.235,1.637c-0.065,0.544-0.023,1.104-0.126,1.64c-0.015,0.077-0.054,0.152-0.104,0.224
					c0.807,0.079,1.636,0.235,2.367,0.488c0.157-1.82,0.944-3.93-0.087-5.593c-0.809-1.308-2.655-0.253-3.363,0.662
					c-0.885,1.145-1.36,2.552-2.15,3.759c-0.392,0.598-1.166,0.392-1.426-0.077c-0.008,0.023-0.018,0.044-0.024,0.067
					c-0.002,0.007,0,0.012-0.003,0.019c-0.181-0.102-0.304-0.305-0.258-0.636c0.485-3.513,1.924-6.408,3.821-9.374
					c0.938-1.465,1.948-2.873,2.956-4.29c0.451-0.631,0.896-1.265,1.343-1.897c1.287-0.587,2.566-2.97,3.057-4.098
					c0.141-0.323,0.215-0.587,0.239-0.801C174.55,114.878,170.925,122.663,168.193,128.468z"/>
				<path style="fill:#ECD7C7;" d="M177.156,139.502c-0.006,0.029-0.009,0.06-0.015,0.089c-0.095,0.476-1.244,5.102-2.765,3.38
					c-0.51-0.578-0.619-1.512-0.914-2.279C174.868,140.582,176.17,140.262,177.156,139.502z"/>
				<path style="fill:#ECD7C7;" d="M178.333,141.571c-0.127,0.03,0.567-1.162,0.745-1.554c0.431-0.945,0.835-1.902,1.197-2.876
					c0.615-1.656,1.704-5.102-0.755-5.768c-0.058-0.016-0.094-0.048-0.142-0.071c0.018,1.121-0.096,2.235-0.324,3.16
					c0.018,1.727-0.201,3.593-0.468,5.225c-0.104,0.639-0.27,1.32-0.482,1.989C178.174,141.636,178.241,141.593,178.333,141.571z"/>
				<path style="fill:#ECD7C7;" d="M181.141,144.152c0.511,0.233,2.24-2.383,2.461-2.773c1.312-2.326,1.928-4.742,0.766-7.271
					c-0.358,1.013-0.852,1.988-1.066,2.588c-0.625,1.751-1.678,3.805-2.912,5.456c-0.139,0.721-0.263,1.608-0.108,2.104
					C180.509,144.082,180.815,144.004,181.141,144.152z"/>
			</g>
		</g>
		<g>
			<path style="fill:#4B1E0A;" d="M98.843,12.17c-8.316-1.939-17.804-4.443-26.359-3.283c-8.156,1.106-16.553,6.422-23.473,10.555
				c-4.85,2.896-14.026,7.44-15.859,13.214c-0.134,0.422,0.015,0.691,0.27,0.82c1.427,4.977,3.289,9.82,5.386,14.551
				c0.052,0.117,0.125,0.194,0.195,0.274c-0.114,0.42-0.036,0.837,0.358,1.335c0.181,0.228,0.418,0.334,0.711,0.277
				c5.265-1.013,10.274-2.767,15.681-3.488c7.32-0.978,14.63-2.076,21.979-2.846c13.94-1.461,28.517-1.879,42.48-0.783
				c0.714,0.056,1.248-0.533,1.443-1.157c0.147-0.441,0.277-0.889,0.391-1.341c0.183-0.678-0.179-1.043-0.651-1.114
				c0.389-2.75,1.039-5.451,1.555-8.194c0.524-2.79,1.117-5.563,1.712-8.335c0.004-0.055,0.012-0.109,0.015-0.164
				c0.007,0.002,0.013,0.005,0.02,0.007c0.194-0.907,0.387-1.815,0.579-2.723C116.624,16.662,107.8,14.26,98.843,12.17z"/>
			<path style="fill:#BCE4E7;" d="M119.826,39.914c-0.006,0.066,0.003,0.118,0.007,0.176c-1.067,0.653-5.134-0.248-6.538-0.297
				c-3.726-0.129-7.433-0.094-11.157,0.046c-7.501,0.282-15.084,0.512-22.563,1.149c-7.433,0.632-14.729,2.165-22.137,2.896
				c-3.459,0.342-6.886,1.008-10.285,1.713c-2.004,0.416-4.385,1.775-6.303,2.138c0.07-0.209,0.095-0.434,0.008-0.669
				c-1.762-4.742-4.284-9.134-6.424-13.706c0.134-0.092,0.255-0.204,0.33-0.359c1.278-2.63,5.614-4.893,7.923-6.553
				c3.713-2.672,7.661-5.017,11.648-7.249c6.823-3.821,14.944-8.294,22.959-7.779c15.797,1.015,31.289,5.782,46.262,10.703
				C121.813,27.834,120.332,34.009,119.826,39.914z"/>
			<path style="fill:#BCE4E7;" d="M123.325,22.9c-5.874,6.23-14.723,10.008-23.031,7.002c-5.391-1.949-10.427-5.679-13.495-10.604
				c-1.961-3.149-3.41-5.834-7.475-6.586c-1.759-0.325-4.51,0.044-6.277,0.011c-8.25,1.5-6.5,16.75-13.484,20.57
				c-4.316,2.36-9.14,4.488-14.028,5.061c-3.513,0.411-6.729-0.091-9.343-1.393c1.664,3.319,3.37,6.617,4.666,10.104
				c0.087,0.235,0.063,0.46-0.008,0.669c1.918-0.363,4.299-1.722,6.303-2.138c3.399-0.705,6.826-1.371,10.285-1.713
				c7.407-0.731,14.704-2.265,22.137-2.896c7.479-0.637,15.063-0.866,22.563-1.149c3.725-0.14,7.432-0.175,11.157-0.046
				c1.404,0.049,5.471,0.95,6.538,0.297c-0.004-0.058-0.013-0.109-0.007-0.176C120.31,34.274,121.686,28.393,123.325,22.9z"/>
		</g>
		<path style="fill:#4B1E0A;" d="M132.139,94.518c2.189-4.866,4.114-9.644,4.607-15.141c0.69-7.707,0.627-15.606-1.562-23.075
			c-1.12-3.818-9.184-17.524-15.17-16.548c-3.063-3.355-14.602-6.268-16.857-6.746c-17.296-3.669-36.199,0.301-52.111,7.321
			c-13.16,5.807-25.872,16.831-30.44,30.825c-4.373,13.398-2.221,30.978,12.375,37.148c0.148,0.063,0.302,0.047,0.45,0
			c-0.215,6.11,3.16,14.388,8.979,15.193c0.687,6.33,2.934,12.01,7.956,16.758c3.095,2.927,6.887,5.093,10.622,7.088
			c4.942,2.639,10.183,5.4,15.764,6.37c8.909,1.549,17.529-3.634,25.067-7.748c4.457-2.433,8.772-5.23,12.535-8.626
			c2.746,3.033,8.581,2.163,12.025,1.121c5.666-1.715,9.047-6.346,11.559-11.394C143.22,116.444,142.698,101.389,132.139,94.518z"/>
		<g>
			<path style="fill:#F8B916;" d="M33.591,106.62c-12.921-8.028-15.51-22.581-10.363-36.322
				c4.791-12.789,16.564-21.84,28.517-27.507c13.983-6.63,29.994-9.375,45.375-8.171c2.324,0.182,17.447,2.683,21.716,5.527
				c-0.664,0.359-1.291,0.95-1.867,1.799c1.69-0.791,4.17-0.288,5.673,0.614c3.393,2.033,6.076,5.195,7.515,8.866
				c2.834,4.611,3.921,10.01,4.4,15.335c0.916,10.217-0.866,19.157-4.711,28.421c-0.669-1.019-1.493-1.853-2.448-2.275
				c-2.881-1.274-5.03,1.202-6.31,3.717c-0.256-1.12-0.499-2.243-0.711-3.374c-0.934-4.999-1.455-10.065-2.271-15.081
				c2.334,2.355,5.092,4.168,8.212,4.722c0.223,0.04,0.453-0.09,0.62-0.284c-1.449-0.715-2.836-1.421-4.152-2.585
				c-1.641-1.451-3.168-2.99-4.498-4.736c-2.6-3.413-4.898-7.146-6.202-11.261c-1.197-3.779-2.5-9.067-1.57-13.426
				c-0.714,1.888-1.05,4.06-1.092,6.297c-2.015,2.602-5.218,4.531-7.827,6.271c-3.935,2.626-7.954,5.131-12.096,7.42
				c-2.842,1.57-5.743,2.943-8.701,4.148c3.442-2.168,6.64-4.928,9.628-7.441c3.952-3.323,7.132-7.215,9.263-11.918
				c-0.211,0.25-0.42,0.493-0.619,0.722c-0.416,0.478-0.831,0.959-1.246,1.44c-4.886,7.705-14.439,14.52-22.252,18.055
				c-8.936,4.044-19.243,6.47-29.209,6.229c-0.008-0.001-0.012-0.005-0.012-0.005c-0.049-0.002-0.1-0.001-0.145-0.001
				c-0.56-0.016-1.12-0.035-1.677-0.066c-0.369,0.06-0.776,0.112-1.188,0.148c-0.12-0.002-0.241-0.006-0.358-0.013
				c5.68-1.193,10.979-4.116,16.073-6.778c5.871-3.068,11.973-6.655,16.411-11.64c0.243-0.272-0.123-0.553-0.367-0.298
				c-4.549,4.742-10.598,7.785-16.378,10.764c-5.744,2.959-11.951,6.228-18.442,6.906c-0.536,0.056-0.881,0.775-0.615,1.227
				c0.225,0.382,0.553,0.649,0.942,0.835c-0.16,0.482-0.308,0.969-0.432,1.462c-0.052,0.268-0.106,0.533-0.146,0.807
				c-0.676,4.569,0.721,9.515,1.607,13.958c0.201,1.009,0.343,2.012,0.461,3.013c-0.725-0.784-1.72-1.327-3.181-1.497
				c-2.649-0.31-4.21,2.262-4.935,4.374C33.811,105.512,33.684,106.052,33.591,106.62z"/>
			<path style="opacity:0.5;fill:#F8B916;" d="M128.765,80.005c-5.985-0.789-9.63-7.91-11.865-12.784
				c-1.692-3.692-3.158-7.456-4.083-11.423c-0.826-3.54-1.07-7.124-1.587-10.688c-0.442,2.386-1.396,4.656-2.674,6.75
				c-1.307,2.142-2.706,4.51-4.965,5.754c-0.4,0.221-0.821-0.139-0.734-0.564c0.736-3.617,2.173-6.993,2.039-10.696
				c-1.66,1.37-3.159,2.994-4.798,4.386c-1.691,1.438-3.402,2.849-5.155,4.213c-2.426,1.888-4.601,4.21-7.434,5.465
				c-0.197,0.158-0.39,0.323-0.59,0.478c-3.296,2.548-7.258,6.201-11.447,7.02c-0.388,0.076-0.841-0.343-0.564-0.734
				c2.802-3.96,5.87-8.325,5.46-13.362C71.5,61.402,60.89,67.067,50.185,71.596c-2.387,1.01-12.439,5.179-15.07,2.668
				c-1.008,1.298-2.85,3.69-4.445,2.094c-2.018-2.017,0.278-6.117,1.422-7.98c2.277-3.709,5.183-7.175,8.699-9.768
				c2.022-1.491,4.44-3.291,6.939-4.553c-5.201,1.01-10.149,3.27-13.971,7.034c-2.554,2.516-4.646,5.477-6.049,8.787
				c-0.872,2.058-1.591,4.2-1.995,6.403c-0.357,1.946-0.385,3.939-0.81,5.866c-0.102,0.462-0.682,0.442-0.914,0.12
				c-1.321-1.831-2.144-3.71-2.576-5.605c-2.293,11.694,1.24,23.163,12.176,29.958c0.093-0.568,0.22-1.108,0.39-1.604
				c0.725-2.112,2.285-4.684,4.935-4.374c1.461,0.17,2.456,0.713,3.181,1.497c-0.118-1.001-0.26-2.004-0.461-3.013
				c-0.887-4.443-2.283-9.389-1.607-13.958c0.04-0.273,0.095-0.539,0.146-0.807c0.124-0.493,0.271-0.979,0.432-1.462
				c-0.39-0.186-0.717-0.453-0.942-0.835c-0.266-0.451,0.079-1.171,0.615-1.227c6.491-0.679,12.698-3.947,18.442-6.906
				c5.78-2.979,11.829-6.021,16.378-10.764c0.244-0.255,0.61,0.025,0.367,0.298c-4.438,4.984-10.54,8.571-16.411,11.64
				c-5.094,2.662-10.394,5.585-16.073,6.778c0.117,0.007,0.238,0.011,0.358,0.013c0.412-0.036,0.819-0.089,1.188-0.148
				c0.557,0.031,1.117,0.051,1.677,0.066c0.045,0,0.096-0.001,0.137,0.001c0,0,0.012,0.004,0.02,0.005
				c9.966,0.24,20.273-2.186,29.209-6.229c7.813-3.535,17.366-10.35,22.252-18.055c0.415-0.481,0.83-0.962,1.246-1.44
				c0.199-0.229,0.408-0.472,0.619-0.722c-2.131,4.703-5.311,8.595-9.263,11.918c-2.988,2.514-6.186,5.273-9.628,7.441
				c2.958-1.205,5.859-2.578,8.701-4.148c4.142-2.289,8.161-4.794,12.096-7.42c2.609-1.74,5.813-3.67,7.827-6.271
				c0.042-2.237,0.378-4.409,1.092-6.297c-0.93,4.358,0.373,9.646,1.57,13.426c1.304,4.115,3.603,7.848,6.202,11.261
				c1.33,1.746,2.857,3.285,4.498,4.736c1.316,1.164,2.703,1.87,4.152,2.585c-0.167,0.194-0.397,0.324-0.62,0.284
				c-3.12-0.554-5.878-2.366-8.212-4.722c0.816,5.016,1.338,10.082,2.271,15.081c0.212,1.131,0.455,2.254,0.711,3.374
				c1.279-2.515,3.429-4.991,6.31-3.717c0.955,0.423,1.779,1.257,2.448,2.275c2.412-5.813,4.012-11.499,4.644-17.452
				C132.885,79.25,130.968,80.296,128.765,80.005z"/>
			<path style="fill:#F8B916;" d="M118.457,67.451c0.746,1.601,0.649,4.301-1.896,3.646c-0.515-0.132-1.009-0.33-1.493-0.557
				c0.975,1.646,2.063,3.229,3.217,4.744c0.285,0.373,0.583,0.733,0.885,1.09c1.167,0.653,2.377,1.245,3.635,1.615
				c0.448,0.133,3.021,1.072,2.439-0.899c-0.174-0.59-0.34-1.133-0.622-1.686c-1.729-3.395-6.256-8.181-4.933-12.315
				c0.104-0.324,0.438-0.442,0.734-0.299c2.827,1.372,3.815,4.491,6.102,6.453c0.69,0.592,1.358,1.21,2.059,1.79
				c0.159,0.132,3.253,2.344,3.258,1.924c0.051-4.214-3.342-8.019-3.17-12.235c0.013-0.302,0.314-0.599,0.633-0.482
				c2.37,0.866,3.416,3.641,5.137,5.442c-0.527-4.972-1.644-9.955-4.286-14.256c-1.438-3.671-4.122-6.833-7.515-8.866
				c-0.003-0.002-0.007-0.004-0.01-0.006c-0.313,0.363-0.404,0.933-0.102,1.785c0.467,1.316,1.206,2.422,2.126,3.47
				c2.013,2.291,6.092,6.08,4.671,9.624c-1.192,2.972-6.998-5.025-7.571-5.727c-0.993-1.215-2.155-2.336-3.361-3.337
				c-0.675-0.56-1.526-1.358-2.405-1.601c-1.502-0.413,0.085,2.821,0.39,3.223c1.924,2.53,4.366,4.637,6.323,7.146
				c1.076,1.379,2.708,3.473,2.314,5.387c-0.721,3.503-4.891-1.041-5.768-1.982c-1.523-1.637-3.082-3.569-5.01-4.747
				c-2.307-1.411-2.529,0.484-1.619,2.237C114.323,61.315,116.892,64.094,118.457,67.451z"/>
			<path style="fill:#ECD7C7;" d="M126.516,102.356c0.384,0.191,0.79-0.459,0.471-0.736c-1.577-1.376-3.054,0.646-3.664,1.986
				c-0.102,0.228-0.223,0.512-0.341,0.829c-0.501-2.104-1.04-4.202-1.544-6.309c1.639-2.126,4.237-4.658,6.43-1.7
				c1.182,1.595,1.725,3.578,1.847,5.523c0.084,1.329-1.902,11.821-5.163,11.185c-0.113-1.301-0.292-2.609-0.534-3.92
				c-0.03-0.163-0.069-0.324-0.101-0.487c0.041-0.121,0.062-0.244,0.046-0.352C123.762,107.063,124.134,101.166,126.516,102.356z"/>
			<path style="fill:#ECD7C7;" d="M128.479,104.206c0.054-1.702,0.227-4.312-1.532-5.294c-1.999-1.116-3.826-0.258-4.697,1.758
				c-0.037,0.086-0.09,0.139-0.14,0.199c0.294,1.188,0.589,2.377,0.872,3.566c0.118-0.317,0.238-0.602,0.341-0.829
				c0.61-1.34,2.087-3.362,3.664-1.986c0.319,0.277-0.087,0.928-0.471,0.736c-2.382-1.19-2.754,4.707-2.554,6.02
				c0.016,0.107-0.005,0.23-0.046,0.352c0.031,0.163,0.07,0.324,0.101,0.487c0.233,1.263,0.404,2.523,0.519,3.777
				C127.28,111.208,128.376,107.398,128.479,104.206z"/>
			<path style="fill:#ECD7C7;" d="M42.386,111.71c-0.514-1.074-1.102-2.188-2.262-2.64c-0.704-0.274-1.639-0.132-2.146,0.454
				c-0.601,0.692-0.515,1.544-0.173,2.343c0.192,0.45,0.84,0.079,0.706-0.332c-0.211-0.65-0.286-1.358,0.562-1.356
				c0.773,0.002,1.178,0.751,1.518,1.323c0.756,1.27,0.997,2.761,1.66,4.058c-0.015,0.396-0.031,0.79-0.045,1.188
				c-0.063,1.69-0.052,3.347,0.05,4.964c-3.965-2.055-5.826-6.657-6.649-10.914c-0.369-1.911-0.275-3.776,0.175-5.66
				c0.75-3.133,4.83-2.694,6.326-0.234c0.092,0.15,0.175,0.305,0.26,0.457C42.471,107.474,42.447,109.585,42.386,111.71z"/>
			<path style="fill:#ECD7C7;" d="M42.157,107.732c-1.387-2.869-5.724-4.755-5.978-0.348c-0.091,1.583,0.036,3.144,0.32,4.705
				c0.242,1.329,0.473,2.757,0.823,4.145c1.091,2.297,2.667,4.303,4.932,5.477c-0.102-1.617-0.112-3.273-0.05-4.964
				c0.014-0.397,0.03-0.792,0.045-1.188c-0.663-1.297-0.904-2.788-1.66-4.058c-0.34-0.572-0.744-1.321-1.518-1.323
				c-0.848-0.002-0.772,0.706-0.562,1.356c0.134,0.411-0.514,0.782-0.706,0.332c-0.342-0.799-0.428-1.65,0.173-2.343
				c0.508-0.586,1.442-0.729,2.146-0.454c1.16,0.452,1.748,1.565,2.262,2.64c0.035-1.224,0.049-2.441,0.042-3.658
				C42.323,107.978,42.229,107.88,42.157,107.732z"/>
			<path style="fill:#ECD7C7;" d="M78.911,151.574c-4.716-0.242-9.689-2.908-13.855-4.917c-3.885-1.874-7.653-3.931-11.142-6.474
				c-8.606-6.275-9.881-15.497-9.404-25.496c0.205-4.343,0.481-8.622-0.065-12.951c-0.569-4.496-1.867-8.868-2.46-13.364
				c-0.235-1.79-0.169-3.49,0.101-5.125c0.717,0.049,1.488-0.014,2.214-0.11c8.166,0.854,16.394-0.706,24.231-3.223
				c8.102-0.975,15.764-4.133,22.922-8.025c4.343-2.36,8.508-5.171,12.517-8.052c1.947-1.399,3.97-2.999,5.482-4.933
				c0.202,3.606,1.097,7.21,2.344,9.908c1.127,2.438,2.678,5.091,4.593,7.443c0.608,8.134,2.143,16.3,3.946,24.238
				c2.121,9.35,4.183,18.432-0.639,27.318c-3.519,6.485-10.187,11.08-16.372,14.757C96.14,146.838,87.473,152.014,78.911,151.574z"
				/>
			<path style="fill:#ECD7C7;" d="M112.812,131.387c-4.295,3.399-8.827,6.495-13.152,9.868c-3.533,2.755-7.239,5.625-11.502,7.156
				c-11.044,3.967-20.661-2.798-29.224-9.203c-4.102-3.068-7.92-6.506-10.438-11.04c-2.09-3.767-3.054-7.654-4.053-11.653
				c-0.226,9.289,1.391,17.777,9.471,23.669c3.488,2.543,7.257,4.6,11.142,6.474c4.166,2.009,9.14,4.675,13.855,4.917
				c8.562,0.439,17.229-4.736,24.412-9.005c6.186-3.677,12.854-8.271,16.372-14.757c1.486-2.74,2.309-5.498,2.687-8.277
				C120.322,124.107,116.945,128.115,112.812,131.387z"/>
			<path style="fill:#ECD7C7;" d="M54.423,94.098c-0.001,1.658,2.726,1.207,3.746,0.911c0.392-0.114,3.237-1.147,2.823-1.733
				C59.119,92.619,54.424,91.273,54.423,94.098z"/>
			<path style="fill:#ECD7C7;" d="M99.854,87.136c-2.195-0.051-4.446,1.039-5.77,2.805c0.231,0.254,0.65,0.46,0.953,0.536
				c0.671,0.169,1.358,0.239,2.05,0.229c1.341-0.021,2.743-0.177,4-0.679c0.416-0.167,1.291-0.493,1.403-1.008
				C102.73,87.921,100.636,87.154,99.854,87.136z"/>
			<path style="fill:#ECD7C7;" d="M99.946,126.57c-3.783,1.274-7.786,2.374-11.68,3.252c-2.616,0.59-5.296,1.072-7.983,1.163
				c-0.002,0-0.003,0-0.003,0c-0.951,0.079-1.907,0.14-2.874,0.184c-0.31,0.015-0.621,0.026-0.932,0.037
				c-2.414,0.456-5.067,0.212-7.347-0.39c-1.236-0.224-2.449-0.553-3.63-1.02c-0.928-0.217-1.833-0.504-2.709-0.902
				c2.424,3.694,4.603,7.573,7.698,10.761c3.896,4.012,9.8,6.706,15.184,3.816c4.885-2.622,7.949-6.798,10.729-11.452
				c1.18-1.976,2.389-3.893,3.867-5.562C100.16,126.493,100.052,126.534,99.946,126.57z"/>
			<path style="fill:#ECD7C7;" d="M73.171,119.279c-2.234-1.663-0.696-4.131,0.843-6.218c-1.55,1.125-3.276,2.143-4.062,3.82
				c-1.881,4.017,2.854,7.194,6.38,6.809c2.354-0.259,5.332-1.134,6.483-3.408C79.666,121.219,75.716,121.175,73.171,119.279z"/>
			<path style="fill:#ECD7C7;" d="M61.254,100.696c-0.384-0.225-1.222-0.706-1.793-0.601c-0.008,0.007-0.01,0.016-0.018,0.022
				c-0.168,0.137-0.319,0.287-0.474,0.436c-0.021,0.059-0.051,0.102-0.063,0.177c-0.044,0.262-0.233,0.363-0.434,0.355
				c-1.267,1.491-1.929,3.426-1.847,5.429c0.103,2.517,2.54,9.37,6.157,5.193c1.568-1.812,1.79-4.802,1.158-7.061
				C63.498,103.066,62.73,101.563,61.254,100.696z"/>
			<path style="fill:#ECD7C7;" d="M101.408,99.104c-0.577-0.759-1.725-1.949-2.68-1.781c-0.036,0.045-0.077,0.089-0.137,0.124
				c-0.258,0.154-0.477,0.34-0.697,0.524c-0.042,0.068-0.084,0.133-0.123,0.213c-0.084,0.176-0.223,0.243-0.366,0.248
				c-1.765,1.883-2.067,4.813-1.25,7.283c0.665,2.009,2.561,3.813,4.824,3.552c3.035-0.35,2.764-3.528,2.225-5.78
				C102.838,101.96,102.373,100.371,101.408,99.104z"/>
			<path style="fill:#ECD7C7;" d="M54.996,88.74c4.834-0.57,9.224-1.913,13.395-4.463c0.011-0.006,0.021-0.005,0.03-0.011
				c0.277-0.322,0.784-0.476,1.195-0.113c4.486,3.95,14.634-0.684,19.041-2.867c6.298-3.121,11.96-7.184,16.445-12.633
				c0.197-0.239,0.435-0.292,0.655-0.245c0.167,0.013,0.336,0.078,0.483,0.245c4.197,4.75,8.026,9.526,10.396,15.473
				c0.352,0.884,0.686,1.77,1.011,2.657c-0.555-3.502-0.997-7.017-1.26-10.527c-1.915-2.353-3.466-5.006-4.593-7.443
				c-1.247-2.698-2.142-6.302-2.344-9.908c-1.513,1.934-3.535,3.533-5.482,4.933c-4.009,2.881-8.174,5.691-12.517,8.052
				c-7.158,3.893-14.82,7.051-22.922,8.025c-7.838,2.517-16.065,4.077-24.231,3.223c-0.726,0.097-1.497,0.159-2.214,0.11
				c-0.27,1.635-0.336,3.335-0.101,5.125c0.008,0.057,0.018,0.112,0.025,0.169C46.025,89.669,50.986,89.213,54.996,88.74z"/>
			<path style="fill:#F8B916;" d="M137.676,120.38c-1.127,5.171-3.812,10.502-8.051,13.741c-3.448,2.635-9.523,3.699-13.543,1.568
				c1.49-1.498,2.88-3.1,4.123-4.838c3.424-4.789,4.637-10.161,4.467-15.722c1.292-0.047,2.713-1.777,3.417-2.706
				c2.418-3.192,3.563-6.91,3.677-10.885c0.035-1.234-0.275-2.822-0.869-4.316c0.023-0.039,0.049-0.075,0.068-0.119
				c0.185-0.404,0.366-0.804,0.55-1.206c2.353,2.89,4.515,5.23,5.856,8.959C139.128,109.736,138.759,115.408,137.676,120.38z"/>
			<path style="opacity:0.5;fill:#F8B916;" d="M126.732,125.954c0.563-5.44,3.129-10.188,4.674-15.362
				c1.316-4.411,2.541-9.643,0.654-14.029c-0.182-0.221-0.361-0.438-0.546-0.665c-0.184,0.402-0.365,0.802-0.55,1.206
				c-0.02,0.044-0.045,0.08-0.068,0.119c0.594,1.494,0.904,3.082,0.869,4.316c-0.113,3.975-1.259,7.692-3.677,10.885
				c-0.704,0.929-2.125,2.659-3.417,2.706c0.17,5.561-1.043,10.933-4.467,15.722c-1.243,1.738-2.633,3.34-4.123,4.838
				c3.958,2.098,9.902,1.095,13.377-1.452C127.104,132.313,126.408,129.089,126.732,125.954z"/>
		</g>
		<polygon style="fill:#4B1E0A;" points="85.359,18.512 78.788,19.092 78.616,12.405 73.186,12.696 73.59,19.551 67.016,20.132 
			67.36,24.672 73.869,24.276 74.252,30.762 79.083,30.636 78.913,23.97 85.233,23.586 		"/>
		<path style="fill:#4B1E0A;" d="M31.951,85.048c-0.184-2.316-0.047-4.642,0.745-6.848c0.299-0.833,0.627-1.708,1.04-2.525
			c-1.511,2.308-2.708,4.922-3.218,7.517c-3.489-14.041,7.824-25.023,20.307-29.634c0.991-0.451,1.993-0.877,3.013-1.259
			c0.552-0.206,1.105-0.418,1.659-0.626c-13.673,2.612-34.338,17.29-25.164,32.701c-0.488,4.271,1.037,8.327,6.213,10.629
			c0.162,0.071,0.326,0.024,0.462-0.076C33.835,92.767,32.256,88.875,31.951,85.048z"/>
		<path style="fill:#4B1E0A;" d="M62.33,92.771c-0.158-0.683-1.029-1.131-1.518-1.595c-0.686-0.649-2.338-0.554-3.163-0.338
			c-1.583,0.412-4.123,1.835-3.889,3.835c0.064,0.546,0.702,0.491,0.916,0.063c0.587-1.174,1.795-1.563,2.999-1.746
			c1.316-0.199,1.77,0.512,2.753,1.129c0.471,0.295,0.905,0.214,1.353-0.084c0.036-0.023,0.07-0.046,0.105-0.069
			C62.263,93.716,62.428,93.195,62.33,92.771z"/>
		<path style="fill:#4B1E0A;" d="M99.061,86.152c-2.203-0.28-5.94,0.857-5.844,3.59c0.039,1.12,1.371,1.19,1.964,0.434
			c0.92-1.174,1.967-1.543,3.489-1.565c0.995-0.015,2.721,0.053,3.432,0.845c0.225,0.25,0.615-0.039,0.729-0.247
			C103.76,87.496,100.202,86.298,99.061,86.152z"/>
		<path style="fill:#4B1E0A;" d="M83.658,119.682c-3.732,0.729-8.421,0.985-11.154-2.263c-0.516-0.613,2.611-4.116,3.133-4.934
			c1.036-1.621,1.576-3.424,1.505-5.335c-0.015-0.396-0.556-0.279-0.61,0.042c-0.632,3.714-2.86,5.97-4.964,8.872
			c-0.949,1.311-0.781,2.255,0.313,3.381c2.989,3.08,8.317,2.903,11.924,1.255C84.287,120.479,84.327,119.551,83.658,119.682z"/>
		<g>
			<path style="fill:#4B1E0A;" d="M89.021,129.42c-0.931,0.203-1.875,0.386-2.854,0.52c-2.184,0.302-4.411,0.45-6.636,0.51
				c-3.035,0.138-6.075,0.134-9.115,0.021c-3.316-0.123-6.415-0.661-8.717-2.936c0.008,0.037,0.021,0.074,0.046,0.11
				c1.062,1.517,2.592,2.542,4.367,3.239c0.011,0.056,0.034,0.105,0.079,0.145c2.066,1.803,3.343,3.993,4.784,6.275
				c1.599,2.528,5.147,8.219,8.629,8.501c10.517,0.854,12.506-10.668,18.01-16.866c0.039-0.018,0.074-0.038,0.112-0.055
				c1.087-1.171,2.31-2.19,3.46-3.293C97.347,127.41,93.213,128.645,89.021,129.42z"/>
			<g>
				<path style="fill:#FFFFFF;" d="M69.345,131.759c4.374,0.791,9.388,0.365,12.878,0.19c3.203-0.161,7.249-0.558,11.073-1.55
					c-3.297,1.993-6.742,3.03-10.699,3.732C79.718,134.643,70.824,135.753,69.345,131.759z"/>
				<path style="fill:#D02941;" d="M84.279,143.354c-3.138,1.557-5.898,0.105-8.178-2.136c1.028-1.143,5.077-2.152,5.512-2.248
					c2.813-0.618,5.48-0.657,8.303-0.758C88.518,140.264,86.813,142.096,84.279,143.354z"/>
				<path style="fill:#EE5D69;" d="M90.807,136.811c-0.029-0.007-0.048-0.023-0.081-0.027c-3.93-0.577-8.757-0.148-12.347,1.691
					c-0.733,0.376-2.221,1.127-2.945,2.053c-1.604-1.748-2.942-3.805-3.971-5.292c-0.044-0.064-0.087-0.129-0.13-0.193
					c2.058,0.856,4.854,1.014,6.228,1.105c5.118,0.342,11.552-1.241,16.098-4.299C92.666,133.48,91.789,135.184,90.807,136.811z"/>
			</g>
		</g>
		<path style="fill:#4B1E0A;" d="M132.023,93.271c-0.122,0-0.192,0.219-0.051,0.219C132.095,93.489,132.165,93.271,132.023,93.271z"
			/>
		<path style="fill:#FFFFFF;" d="M101.662,36.387c-8.472-0.688-17.205-0.916-25.654,0.095c-7.767,0.929-15.156,3.716-22.107,7.21
			C47.164,47.078,40.43,51.216,34.667,56.1c-5.229,4.433-8.979,9.476-10.775,16.115c-0.011,0.04,0.049,0.051,0.061,0.014
			c2.183-6.683,7.278-11.896,12.742-16.067c5.602-4.276,11.722-8.013,17.985-11.229c7.038-3.616,14.496-6.048,22.328-7.172
			c8.206-1.178,16.426-0.738,24.674-0.953C101.961,36.802,101.925,36.408,101.662,36.387z"/>
		<path style="fill:#FFFFFF;" d="M83.045,48.396c-7.767,5.587-15.837,10.82-24.246,15.394c-3.68,2-7.533,3.619-11.276,5.488
			c-3.495,1.746-6.888,3.533-10.854,3.624c-0.069,0.002-0.093,0.104-0.029,0.133c2.799,1.306,6.375-0.149,8.985-1.234
			c3.934-1.636,7.834-3.57,11.639-5.483c9.231-4.641,18.576-10.416,26.084-17.558C83.543,48.573,83.263,48.239,83.045,48.396z"/>
		<path style="fill:#FFFFFF;" d="M107.354,41.671c-4.738,4.545-9.279,9.258-14.145,13.677c-2.501,2.272-5.07,4.436-7.844,6.37
			c-2.351,1.639-4.903,2.862-7.344,4.341c-0.039,0.023-0.02,0.091,0.027,0.086c5.741-0.6,11.201-5.736,15.451-9.236
			c5.352-4.408,10.347-9.209,14.28-14.941C107.956,41.711,107.554,41.479,107.354,41.671z"/>
		<path style="fill:#FFFFFF;" d="M56.475,51.616C45.554,54.199,33.405,61.98,31.899,74.093c-0.004,0.025,0.034,0.042,0.043,0.016
			c1.833-5.084,4.684-9.354,8.761-12.917c4.703-4.11,10.376-6.516,15.973-9.139C56.938,51.93,56.726,51.558,56.475,51.616z"/>
		<path style="fill:#FFFFFF;" d="M65.662,15.081c-6.586,3.153-13.199,6.533-19.53,10.174c-3.157,1.815-6.175,3.898-9.003,6.193
			c-1.646,1.338-1.777,2.999-0.53,4.655c0.306,0.405,1.098,0.133,0.866-0.398c-0.999-2.292,0.345-3.299,1.942-4.517
			c1.182-0.9,2.384-1.761,3.616-2.589c2.436-1.638,5.003-3.083,7.573-4.493c5.083-2.789,10.581-5.305,15.087-8.992
			C65.703,15.099,65.686,15.07,65.662,15.081z"/>
		<path style="fill:#FFFFFF;" d="M120.705,22.962c-2.559-1.314-5.663-1.677-8.426-2.441c-3.016-0.833-5.979-1.885-8.952-2.856
			c-5.698-1.861-11.229-3.432-17.239-3.678c-0.032-0.001-0.033,0.047-0.005,0.055c5.679,1.525,11.314,3.4,16.89,5.271
			c2.971,0.997,5.933,2.025,8.943,2.897c2.731,0.791,5.686,1.796,8.534,1.926C121.095,24.165,121.229,23.23,120.705,22.962z"/>
		<path style="fill:#FFFFFF;" d="M100.563,156.817c-1.826,0.732-3.443,1.937-5.047,3.061c-1.753,1.23-3.583,2.45-5.149,3.915
			c-0.015,0.014,0.003,0.037,0.021,0.032c1.875-0.553,3.439-1.643,5.111-2.621c1.844-1.08,3.773-2.192,5.488-3.464
			C101.425,157.414,101.132,156.589,100.563,156.817z"/>
		<path style="fill:#FFFFFF;" d="M77.587,163.682c-1.979-2.387-5.353-3.906-8.417-4.025c-0.08-0.003-0.079,0.111-0.011,0.132
			c3.003,0.889,5.111,3.467,8.015,4.483C77.48,164.379,77.796,163.934,77.587,163.682z"/>
		<path style="fill:#FFFFFF;" d="M60.404,154.821c-4.916,0.302-6.787,4.819-9.253,8.363c-3.372,4.846-7.525,8.381-11.897,12.249
			c-0.045,0.039,0.008,0.114,0.061,0.096c4.339-1.543,8.014-5.335,10.839-8.837c1.566-1.942,2.922-4.045,4.182-6.195
			c1.563-2.669,3.399-3.782,6.206-4.89C60.951,155.445,60.882,154.792,60.404,154.821z"/>
		<path style="fill:#FFFFFF;" d="M130.216,169.602c-2.747-3.829-5.858-7.61-8.975-11.146c-2.69-3.053-6.317-5.457-10.493-4.468
			c-0.031,0.008-0.021,0.054,0.009,0.054c9.256,0.009,12.752,10.973,19.232,15.749C130.115,169.883,130.32,169.749,130.216,169.602z
			"/>
		<path style="fill:#FFFFFF;" d="M89.627,173.284c0.025-0.05-0.049-0.088-0.076-0.039c-3.626,6.459-2.718,13.429-2.502,20.567
			c0.124,4.105,0.083,8.211,0.218,12.314c0.136,4.155-0.386,8.332-0.039,12.479c0.019,0.215,0.348,0.259,0.387,0.032
			c0.6-3.495,0.368-7.108,0.457-10.642c0.096-3.811,0.296-7.586,0.234-11.403C88.184,189.082,86.095,180.285,89.627,173.284z"/>
		<path style="fill:#FFFFFF;" d="M69.982,217.027c-1.613-2.983-3.482-5.742-4.888-8.85c-1.352-2.989-2.602-5.987-3.672-9.091
			c-2.309-6.696-4.15-13.837-5.091-20.865c-0.006-0.045-0.074-0.043-0.07,0.003c0.705,7.253,1.846,14.225,4.122,21.185
			c1.108,3.388,2.516,6.636,3.962,9.888c1.287,2.896,2.797,5.955,5.078,8.197C69.733,217.798,70.173,217.378,69.982,217.027z"/>
		<path style="fill:#FFFFFF;" d="M109.15,225.17c-3.777,13.8-21.146,5.634-30.474,4.076c-0.024-0.005-0.033,0.032-0.008,0.038
			c7.269,1.542,13.862,5.927,21.546,5.149c4.802-0.485,10.008-3.898,9.824-9.188C110.021,224.718,109.282,224.688,109.15,225.17z"/>
		<path style="fill:#FFFFFF;" d="M61.348,291.622c-1.351-5.837-2.957-11.693-3.876-17.617c-0.836-5.389-0.596-10.988-0.321-16.413
			c0.008-0.164-0.265-0.187-0.286-0.025c-0.691,5.221-1.181,10.314-0.714,15.58c0.509,5.732,2.142,11.436,3.503,17.01
			c2.852,11.671,5.964,23.583,10.322,34.783c0.015,0.038,0.069,0.021,0.061-0.019C67.322,313.776,63.939,302.81,61.348,291.622z"/>
		<path style="fill:#FFFFFF;" d="M117.562,251.247c-0.027-0.07-0.129-0.039-0.111,0.035c3.124,13.439,0.994,27.507-2.027,40.768
			c-1.506,6.612-3.326,13.149-5.003,19.72c-1.295,5.077-2.479,10.276-6.411,14.025c-0.382,0.363,0.146,0.926,0.57,0.684
			c4.176-2.394,5.498-7.523,6.673-11.867c1.91-7.069,3.776-14.164,5.457-21.292c1.668-7.075,2.773-14.196,3.271-21.449
			C120.458,264.91,120.168,257.796,117.562,251.247z"/>
		<path style="fill:#FFFFFF;" d="M100.326,326.635c-8.285,0.637-17.166,3.4-25.48,1.77c-0.035-0.007-0.045,0.044-0.012,0.054
			c4.104,1.24,7.964,1.372,12.236,1.028c4.386-0.353,9.253-0.61,13.357-2.271C100.727,327.094,100.682,326.607,100.326,326.635z"/>
		<path style="fill:#ECD7C7;" d="M166.306,154.767c-0.286-0.001-0.551-0.04-0.81-0.089c-0.217-0.07-0.434-0.133-0.65-0.184
			c-0.105-0.038-0.22-0.061-0.321-0.105c-0.354-0.106-0.684-0.27-0.999-0.464c0.053,0.151,0.122,0.277,0.186,0.414
			c-1.154-0.025-2.22,0.408-2.969,1.71c-3.021,5.25-5.708,10.648-8.577,15.979c-3.249,6.036-5.909,12.513-9.623,18.286
			c-0.641,0.997-1.337,1.935-2.074,2.861c-3.583,4.511-6.535-0.564-7.907-2.675c-1.744-2.685-3.197-5.539-4.932-8.233
			c0.349-0.39,2.86-1.669,3.104-1.804c0.736-0.408,1.546-0.721,2.271-1.159c0.063,0.241,0.136,0.479,0.206,0.717
			c0.786,0.603,1.149,2.358,1.399,3.022c0.41,1.091,1.023,2.011,1.19,3.146c0.044,0.028,0.083,0.064,0.131,0.087
			c-0.035,0.115-0.061,0.236-0.094,0.354c0.001,0.018,0.005,0.036,0.005,0.056c0.018,0.777-0.251,1.863-0.159,2.761
			c0.138-0.011,0.281-0.092,0.362-0.256c4.761-9.677,10.72-18.903,17.117-27.626c1.856-2.531,6.897-6.383,7.286-9.686
			c0.115-0.976,0.119-1.951,0.066-2.927c0.042,0.082,0.078,0.165,0.12,0.247c-0.067-0.281-0.117-0.567-0.167-0.854
			c-0.055-0.712-0.127-1.423-0.214-2.136c-0.016-0.519-0.017-1.035,0.015-1.535c-0.042-0.686-0.07-1.373-0.064-2.068
			c0.021-2.637,0.264-5.923,3.607-6.654c1.561-0.342,3.135-0.015,4.697-0.195c1.184-0.136,2.345-0.384,3.516-0.602
			c0.889-0.2,1.791-0.265,2.706-0.192c2.698,0.109,3.067,1.307,1.108,3.593c-2.702,1.497-7.151-0.167-10.185,0.275
			c-0.802,0.116-1.218,1.349-0.408,1.739c3.806,1.834,3.992,6.984,1.718,10.014c-0.063,0.083-0.09,0.173-0.104,0.263
			c0.068-0.003,0.138,0.007,0.203,0.047c0.425,0.26,1.809-2.035,2.027-2.401c1.013-1.697,0.665-3.665,0.178-5.49
			c-0.359-0.865-0.852-1.696-1.461-2.456c1.489,0.061,3.212,0.233,4.854,0.189c-0.116,1.19-0.156,3.021,0.896,3.803
			c1.076,0.797,2.122,0.604,3.09-0.283c0.011-0.01,0.019-0.023,0.029-0.032c0.626,0.241,1.194,0.189,1.745-0.102
			c-0.053,0.892,0.115,1.688,0.724,2.052C176.066,150.016,171.336,154.79,166.306,154.767z"/>
		<path style="fill:#ECD7C7;" d="M178.423,144.119c-0.551,0.291-1.119,0.343-1.745,0.102c-0.01,0.01-0.019,0.022-0.029,0.032
			c-0.968,0.888-2.014,1.08-3.09,0.283c-1.053-0.781-1.013-2.612-0.896-3.803c-1.643,0.044-3.365-0.129-4.854-0.189
			c0.608,0.76,1.102,1.591,1.461,2.456c0.487,1.825,0.835,3.793-0.178,5.49c-0.219,0.366-1.603,2.661-2.027,2.401
			c-0.065-0.04-0.135-0.05-0.203-0.047c0.015-0.09,0.042-0.18,0.104-0.263c2.274-3.029,2.088-8.18-1.718-10.014
			c-0.809-0.391-0.393-1.623,0.408-1.739c3.033-0.442,7.482,1.222,10.185-0.275c0.534-0.623,0.879-1.158,1.066-1.619
			c-1.17,0.568-2.942,0.58-3.866,0.62c-2.559,0.11-5.271-0.162-7.791,0.367c-2.477,0.521-1.981,2.939-1.434,4.755
			c0.566,1.877,1.411,3.929,0.996,5.92c-0.239,1.147-1.099,1.99-2.13,2.51c-0.828,0.417-1.555,0.449-2.197,0.24
			c-0.014,0.177-0.015,0.354-0.035,0.531c-0.173,1.468-1.266,3.043-2.588,4.564c-0.352,0.619-0.711,1.237-1.057,1.867
			c-1.333,2.43-2.689,4.848-4.076,7.248c-2.83,4.9-5.343,9.984-8.181,14.879c-1.177,2.03-2.467,4.251-4.014,6.031
			c-0.385,0.442-0.922,1.056-1.533,1.433c-0.749,0.688-1.561,1.263-2.446,1.598c-0.248,0.094-0.448-0.057-0.55-0.261
			c-0.084,0.125-0.201,0.2-0.321,0.209c-0.092-0.897,0.177-1.983,0.159-2.761c0-0.02-0.004-0.037-0.005-0.056
			c0.033-0.117,0.059-0.238,0.094-0.354c-0.048-0.023-0.087-0.059-0.131-0.087c-0.167-1.136-0.78-2.056-1.19-3.146
			c-0.25-0.663-0.613-2.419-1.399-3.022c-0.07-0.238-0.144-0.476-0.206-0.717c-0.726,0.439-1.535,0.751-2.271,1.159
			c-0.244,0.135-2.756,1.414-3.104,1.804c1.734,2.694,3.188,5.549,4.932,8.233c1.372,2.11,4.324,7.186,7.907,2.675
			c0.737-0.927,1.434-1.864,2.074-2.861c3.714-5.773,6.374-12.25,9.623-18.286c2.869-5.33,5.556-10.729,8.577-15.979
			c0.749-1.302,1.814-1.735,2.969-1.71c-0.064-0.137-0.133-0.263-0.186-0.414c0.315,0.193,0.645,0.357,0.999,0.464
			c0.102,0.044,0.216,0.067,0.321,0.105c0.217,0.051,0.434,0.113,0.65,0.184c0.259,0.049,0.523,0.088,0.81,0.089
			c5.03,0.023,9.761-4.751,12.841-8.596C178.538,145.807,178.37,145.011,178.423,144.119z"/>
		<path style="fill:#FFFFFF;" d="M61.528,101.782c-0.648-0.511-1.548-0.527-1.947,0.291c-0.486,0.997-0.091,2.477,0.484,3.347
			c0.161,0.243,0.389,0.479,0.645,0.661c-0.061,0.491,0.44,1.007,0.98,0.659C63.479,105.59,63.057,102.985,61.528,101.782z"/>
		<path style="fill:#FFFFFF;" d="M101.84,100.438c-0.001-0.022,0-0.047-0.001-0.068c-0.042-0.971-0.747-2.142-1.868-1.98
			c-0.02,0.003-0.033,0.011-0.052,0.015c-0.005-0.004-0.009-0.009-0.015-0.013c-0.223-0.15-0.585-0.009-0.688,0.224
			c-0.076,0.171-0.135,0.346-0.183,0.521c-0.103,0.26-0.142,0.571-0.139,0.905c-0.008,0.036-0.007,0.074-0.013,0.111
			c-0.231,0.861-0.063,1.755,0.674,2.466c0.015,0.014,0.032,0.022,0.047,0.036c0.141,0.263,0.287,0.482,0.426,0.622
			c-0.122,0.496,0.456,0.916,0.857,0.503c0.245-0.253,0.428-0.575,0.571-0.926c0.215-0.159,0.394-0.386,0.494-0.701
			C102.081,101.744,102.033,101.074,101.84,100.438z"/>
		<path style="fill:#FFFFFF;" d="M77.896,103.396c-0.029-0.061-0.131-0.026-0.123,0.038c0.294,2.528,0.4,4.699-0.486,7.145
			c-0.784,2.162-2.285,3.752-3.361,5.724c-0.211,0.388,0.289,0.89,0.661,0.606C78.06,114.252,79.801,107.35,77.896,103.396z"/>
		<path style="fill:#FFFFFF;" d="M73.315,116.995c-0.671,0-0.622,1.038,0.047,1.038C74.033,118.033,73.984,116.995,73.315,116.995z"
			/>
		<path style="fill:#FFFFFF;" d="M37.083,103.247c-0.931,0.511-1.614,1.409-1.839,2.448c-0.209,0.969-0.039,2.567,0.458,3.436
			c0.021,0.038,0.092,0.04,0.108-0.005c0.211-0.578,0.111-1.227,0.115-1.834c0.008-1.008,0.414-2.057,1.2-2.711
			c0.51-0.425,1.151-0.575,1.793-0.443c0.812,0.166,1.131,0.975,1.663,1.498c0.306,0.302,0.886,0.041,0.844-0.393
			C41.234,103.266,38.694,102.363,37.083,103.247z"/>
		<path style="fill:#FFFFFF;" d="M129.219,98.755c-0.111-0.917-0.559-2.083-1.23-2.742c-1.682-1.65-4.4-0.429-5.262,1.545
			c-0.188,0.433,0.178,0.903,0.649,0.771c1.461-0.409,2.621-2.477,3.987-0.759c0.478,0.6,0.738,1.345,1.138,1.992
			c0.352,0.568,0.325,1.258,0.698,1.82c0.034,0.052,0.104,0.034,0.121-0.021C129.559,100.576,129.316,99.559,129.219,98.755z"/>
		<path style="fill:#FFFFFF;" d="M117.696,97.552c-0.045-0.171-0.328-0.124-0.306,0.053c0.814,6.421,1.996,12.465,1.004,18.959
			c-1.002,6.56-5.313,12.742-10.244,17.025c-0.177,0.153,0.066,0.411,0.253,0.304c5.952-3.449,10.232-9.503,11.566-16.239
			C121.253,111.178,119.337,103.804,117.696,97.552z"/>
		<path style="fill:#FFFFFF;" d="M60.901,139.597c-4.609-5.189-10.683-8.903-13.306-15.641c-2.358-6.059-0.638-12.61-1.217-18.867
			c-0.021-0.224-0.383-0.278-0.409-0.034c-0.692,6.308-1.953,13.205,0.131,19.366c2.239,6.618,8.654,12.173,14.417,15.73
			C60.868,140.367,61.137,139.862,60.901,139.597z"/>
		<path style="fill:#FFFFFF;" d="M30.886,222.516c1.401-8.694,3.514-17.231,5.109-25.884c0.039-0.208-0.248-0.26-0.313-0.067
			c-2.886,8.607-4.627,17.692-6.088,26.639c-1.444,8.848-2.391,17.657-0.925,26.576c0.068,0.417,0.683,0.415,0.672-0.029
			c-0.115-4.485-0.492-8.922-0.241-13.414C29.358,231.717,30.15,227.078,30.886,222.516z"/>
		<path style="fill:#FFFFFF;" d="M42.592,261.773c-1.977-3.999-5.835-8.619-10.399-9.605c-0.109-0.023-0.163,0.131-0.064,0.183
			c4.377,2.303,6.385,6.674,10.011,9.799C42.406,262.38,42.735,262.065,42.592,261.773z"/>
		<path style="fill:#FFFFFF;" d="M26.7,252.836c-4.292,0.775-8.771,4.217-11.408,7.583c-1.2,1.532-2.859,3.247-3.383,5.181
			c-0.625,2.309-0.378,4.608,0.161,6.915c0.074,0.319,0.559,0.215,0.55-0.096c-0.076-2.587-0.688-4.879,0.283-7.411
			c0.811-2.116,2.315-3.749,4.018-5.175c3.134-2.626,6.642-4.321,9.934-6.659C27.038,253.044,26.904,252.799,26.7,252.836z"/>
		<path style="fill:#FFFFFF;" d="M20.345,259.2c-1.538,1.325-2.541,3.28-3.298,5.126c-0.022,0.056,0.055,0.097,0.084,0.043
			c0.96-1.805,2.34-3.243,3.536-4.874C20.836,259.267,20.559,259.016,20.345,259.2z"/>
		<path style="fill:#FFFFFF;" d="M24.355,258.628c-2.508,2.166-3.516,5.422-5.006,8.266c-0.049,0.095,0.093,0.165,0.146,0.075
			c1.655-2.785,3.057-5.578,5.16-8.066C24.829,258.697,24.55,258.46,24.355,258.628z"/>
		<path style="fill:#FFFFFF;" d="M31.06,258.169c-2.446,1.221-4.024,3.78-5.246,6.124c-0.06,0.118,0.117,0.25,0.197,0.137
			c1.571-2.232,3.026-4.297,5.273-5.903C31.51,258.366,31.302,258.049,31.06,258.169z"/>
		<path style="fill:#FFFFFF;" d="M154.834,159.152c-3.517,3.859-6.607,8.333-9.286,12.807c-2.753,4.6-5.724,9.621-7.678,14.612
			c-0.023,0.057,0.051,0.122,0.095,0.066c3.16-4.026,5.187-9.141,7.784-13.55c2.825-4.795,6.769-8.824,9.556-13.608
			C155.472,159.192,155.05,158.915,154.834,159.152z"/>
		<path style="fill:#FFFFFF;" d="M180.102,110.745c-7.108,2.432-11.541,12.137-13.627,18.712c-0.025,0.081,0.105,0.126,0.139,0.05
			c1.521-3.377,3.003-6.737,4.994-9.872c2.297-3.613,5.164-6.122,8.691-8.46C180.52,111.027,180.362,110.656,180.102,110.745z"/>
		<path style="fill:#FFFFFF;" d="M174.734,135.058c-4.128-0.588-10.33-0.603-13.238,3.029c-2.096,2.618-1.001,7.358-0.361,10.272
			c0.01,0.044,0.078,0.03,0.076-0.014c-0.144-3.111-0.995-6.85,1.112-9.501c2.699-3.396,8.613-2.719,12.362-3.2
			C175,135.605,175.089,135.108,174.734,135.058z"/>
		<path style="fill:#FFFFFF;" d="M174.607,127.148c-0.095,0.038-0.051,0.166,0.047,0.149c3.338-0.586,2.238,4.888,2.728,6.599
			c0.085,0.297,0.525,0.269,0.589-0.026C178.404,131.85,178.037,125.759,174.607,127.148z"/>
		<path style="fill:#FFFFFF;" d="M180.554,131.029c-0.032-0.003-0.044,0.034-0.019,0.052c3.288,2.216-0.515,7.448-1.523,10.039
			c-0.085,0.218,0.21,0.479,0.369,0.256C180.538,139.754,185.29,131.565,180.554,131.029z"/>
		<path style="fill:#FFFFFF;" d="M185.648,134.967c-0.096-0.127-0.322-0.082-0.311,0.097c0.113,1.741,0.326,3.11-0.342,4.798
			c-0.573,1.446-1.703,2.54-2.41,3.898c-0.122,0.234,0.178,0.557,0.405,0.372C185.259,142.286,187.699,137.691,185.648,134.967z"/>
		<path style="fill:#FFFFFF;" d="M95.334,373.38c1.181-11.21,2.85-22.398,3.749-33.633c0.037-0.465-0.744-0.526-0.812-0.068
			c-1.533,10.457-2.412,21.056-3.548,31.564c-1.13,10.464-1.99,20.954-2.594,31.461c-0.61,10.637-1.304,21.355-0.653,32.003
			c0.238,3.91,0.834,7.77,1.363,11.646c0.488,3.578,0.57,7.945-3.354,9.515c-0.08,0.031-0.045,0.146,0.039,0.127
			c5.67-1.359,4.035-9.636,3.447-13.747c-1.586-11.076-1.142-22.545-0.595-33.689C92.956,396.801,94.1,385.084,95.334,373.38z"/>
		<path style="fill:#FFFFFF;" d="M84.856,343.855c-5.002,9.975-9.297,20.491-13.551,30.806c-2.031,4.927-3.786,9.954-5.76,14.901
			c-1.968,4.93-4.353,9.673-6.435,14.555c-3.803,8.919-7.029,18.148-7.81,27.878c-0.674,8.399,2.09,16.728,7.133,23.419
			c0.218,0.289,0.649,0.021,0.477-0.3c-2.093-3.873-4.271-7.637-5.501-11.895c-1.27-4.393-1.25-8.991-0.679-13.491
			c1.256-9.893,4.958-19.201,8.872-28.295c3.993-9.278,7.329-18.825,11.207-28.151c4.054-9.748,8.964-19.316,12.359-29.315
			C85.232,343.783,84.939,343.688,84.856,343.855z"/>
		<path style="fill:#4B1E0A;" d="M57.201,105.881c0.332,3.337,1.948,5.906,3.617,5.742c1.668-0.165,2.755-3.002,2.427-6.336
			c-0.33-3.337-1.948-5.906-3.617-5.745C57.959,99.708,56.875,102.546,57.201,105.881z M61.174,101.851
			c0.529-0.052,1.043,0.764,1.147,1.819c0.104,1.054-0.242,1.954-0.769,2.003c-0.529,0.055-1.038-0.759-1.146-1.816
			C60.306,102.803,60.648,101.904,61.174,101.851z"/>
		<path style="fill:#4B1E0A;" d="M96.399,102.778c0.333,3.338,1.949,5.906,3.618,5.742c1.667-0.165,2.755-3.002,2.427-6.336
			c-0.331-3.337-1.949-5.906-3.618-5.745C97.157,96.605,96.073,99.444,96.399,102.778z M100.372,98.748
			c0.53-0.051,1.043,0.764,1.147,1.819c0.104,1.054-0.241,1.954-0.769,2.003c-0.528,0.055-1.037-0.759-1.146-1.815
			C99.504,99.7,99.848,98.802,100.372,98.748z"/>
	</g>
	<path style="fill:#FFFFFF;" d="M107.293,109.736c-2.146-1.458-5.84,0.008-6.572,2.47c-0.024,0.08,0.082,0.119,0.134,0.069
		c1.863-1.789,3.518-3.057,6.196-2.065C107.374,110.329,107.577,109.93,107.293,109.736z"/>
	<path style="fill:#FFFFFF;" d="M108.665,110.238c-0.037,0.037-0.081,0.105-0.107,0.141c-0.2,0.273,0.094,0.727,0.412,0.493
		c0.068-0.05,0.148-0.104,0.209-0.165C109.496,110.39,108.981,109.922,108.665,110.238z"/>
	<path style="fill:#FFFFFF;" d="M63.242,115.351c-1.18-2.352-4.871-2.064-6.458-0.367c-0.293,0.313,0.109,0.704,0.452,0.54
		c0.903-0.432,1.764-0.755,2.771-0.821c1.135-0.075,1.997,0.429,2.935,0.976C63.157,115.804,63.336,115.537,63.242,115.351z"/>
	<path style="fill:#FFFFFF;" d="M55.398,114.946c-0.682,0-0.632,1.054,0.047,1.054C56.127,116,56.077,114.946,55.398,114.946z"/>
</g>
</svg>
