<?xml version="1.0" encoding="utf-8"?>
<!-- Generator: Adobe Illustrator 27.5.0, SVG Export Plug-In . SVG Version: 6.00 Build 0)  -->
<svg version="1.1" xmlns="http://www.w3.org/2000/svg" xmlns:xlink="http://www.w3.org/1999/xlink" x="0px" y="0px"
	 viewBox="700 0 600 2000" style="enable-background:new 0 0 2000 2000;" xml:space="preserve">
<g id="Layer_2">
	<rect x="0" style="fill:none;" width="2000" height="2000"/>
</g>
<g id="Layer_3">
	<g>
		<path style="fill:none;" d="M957.912,158.367c0.191,0.256,0.383,0.512,0.574,0.768c3.433-1.515,6.829-3.122,10.31-4.519
			c3.568-1.432,7.186-2.757,10.841-3.946c3.496-1.137,7.026-2.251,10.621-2.984c3.753-0.766,7.709-0.677,11.378-1.681
			c3.629-0.994,7.347,1.768,11.757-0.778c-1.937-0.818-3.059-1.639-4.233-1.721c-3.287-0.23-6.645-0.545-9.887-0.132
			c-14.099,1.795-27.196,6.795-39.844,13.073C958.77,156.775,958.411,157.713,957.912,158.367z"/>
		<path style="fill:none;" d="M945.458,131.578c7.366-3.669,15.157-6.27,23.529-6.704c1.713-0.089,3.393-0.809,5.088-1.238
			c0.015-0.417,0.029-0.834,0.044-1.251c-1.103-0.277-2.297-0.978-3.293-0.762c-6.525,1.412-13.258,2.357-19.456,4.692
			c-19.526,7.355-37.258,18.353-55.459,28.376c-0.649,0.357-0.943,1.36-1.403,2.062c2.481-0.268,4.352-1.241,6.227-2.208
			C915.632,146.869,930.459,139.051,945.458,131.578z"/>
		<path style="fill:none;" d="M849.872,196.192c0.289-0.971,0.039-2.103,0.039-4.359c-1.299,1.49-2.018,1.969-2.238,2.617
			c-3.57,10.521-7.076,21.064-10.596,31.602c0.436,0.113,0.872,0.227,1.307,0.34C843.206,216.723,846.788,206.553,849.872,196.192z"
			/>
		<path style="fill:none;" d="M1037.64,229.41c-1.082-5.527-8.926-19.73-12.977-21.734c3.724,7.052,7.433,14.112,11.217,21.132
			C1036.072,229.165,1036.907,229.175,1037.64,229.41z"/>
		<path style="fill:none;" d="M976.873,248.288c-4.19,0.003-7.673,3.372-7.755,7.501c-0.084,4.22,3.589,8.197,7.7,8.336
			c3.823,0.129,8.246-4.173,8.205-7.98C984.976,251.871,981.257,248.286,976.873,248.288z"/>
		<path style="fill:none;" d="M735.994,735.81c5.235-0.934,10.328-2.11,15.489-2.688c5.352-0.599,10.74,0.051,15.841,1.782
			c4.971,1.686,9.777,3.858,15.547,6.174C774.115,729.454,742.148,726.196,735.994,735.81z"/>
		<path style="fill:none;" d="M979.066,1341.567c-1.877-0.332-3.747-0.709-5.632-0.986c-5.935-0.87-11.934-1.413-17.799-2.617
			c-8.693-1.785-16.035-6.538-23.21-11.522c-1.087-0.755-1.983-2.214-3.818-1.412
			C936.909,1336.267,968.444,1347.222,979.066,1341.567z"/>
		<path style="fill:none;" d="M900.789,1102.476c-3.385,6.167-6.343,12.605-10.155,18.492c-6.37,9.835-13.304,19.304-19.923,28.98
			c-1.133,1.656-3.141,3.001-2.725,6.174c9.876-7.854,36.011-49.752,36.164-59.011
			C902.621,1099.538,901.621,1100.96,900.789,1102.476z"/>
		<path style="fill:none;" d="M1182.126,549.561c-0.06-0.304-0.068-0.851-0.189-0.878c-19.971-4.359-39.4-10.357-57.95-19.046
			c-0.331-0.155-0.88,0.152-1.393,0.258C1127.634,536.798,1173.443,551.855,1182.126,549.561z"/>
		<path style="fill:none;" d="M1090.36,536.452c0.112,1.194,0.729,2.341,1.112,3.51c0.368-0.03,0.736-0.061,1.104-0.091
			c0.097-1.187,0.368-2.389,0.265-3.558c-1.113-12.654-2.343-25.298-3.406-37.956c-0.35-4.171-0.395-8.373-0.432-12.563
			c-0.082-9.191-0.115-18.383-0.062-27.574c0.012-2.146,0.248-4.233-2.65-5.758c-0.251,2.292-0.74,4.587-0.713,6.876
			c0.122,10.388,0.001,20.8,0.695,31.154C1087.301,505.835,1088.925,521.138,1090.36,536.452z"/>
		<path style="fill:none;" d="M793.257,601.276c-1.205-2.201-1.732-3.399-2.46-4.458c-7.896-11.487-15.637-23.088-23.814-34.374
			c-4.914-6.783-10.494-13.086-15.856-19.537c-0.535-0.644-1.639-0.814-2.48-1.205c-0.242,0.323-0.484,0.645-0.726,0.968
			c15.703,18.172,29.328,37.861,42.811,57.655C790.951,600.645,791.6,600.671,793.257,601.276z"/>
		<path style="fill:none;" d="M966.858,223.085c1.702,0.94,3.765,1.404,5.721,1.673c7.734,1.066,15.49,1.969,23.325,2.944
			c0.6-2.395,0.657-2.473-0.87-3.562c-6.734-4.801-13.878-8.792-22.224-9.854c-1.859-0.237-4.035,0.271-5.76,1.084
			C963.248,217.164,963.158,221.042,966.858,223.085z"/>
		<path style="fill:none;" d="M997.761,257.124c2.41,0,4.482,0,6.555,0C1000.337,254.38,1000.337,254.38,997.761,257.124z"/>
		<path style="fill:none;" d="M834.349,273.367c2.499,1.039,5.785-0.759,7.944,2.301c-1.567,3.627-2.212,7.296,1.384,10.814
			c0.52-4.227,0.944-7.674,1.417-11.523C841.028,270.402,837.214,269.689,834.349,273.367z"/>
		<path style="fill:none;" d="M949.062,263.092c3.372,3.258,3.631,7.082,2.195,11.083c-0.947,2.639-2.569,5.033-3.842,7.559
			c-0.453,0.899-0.77,1.868-1.148,2.804c1.593-0.089,2.757-0.529,3.257-1.366c1.626-2.724,3.259-5.492,4.428-8.427
			c1.994-5.004,1.13-9.71-2.957-13.335c-6.833-6.062-7.657-13.764-6.606-22.113c0.329-2.611,0.558-5.234,0.834-7.852
			c-0.567-0.055-1.134-0.111-1.7-0.166c-1.692,5.108-2.168,10.454-2.026,15.852C941.664,253.516,944.57,258.752,949.062,263.092z"/>
		<path style="fill:none;" d="M1037.789,281.58c2.985-3.444-0.606-5.65-2.065-8.494c2.301-1.013,4.308-1.898,6.672-2.939
			c-4.515-1.704-8.074,0.036-9.967,4.44c0.298,0.359,0.564,0.803,0.939,1.115c3.75,3.112,3.68,4.355-0.41,6.909
			c-1.163,0.727-2.309,1.481-3.463,2.223C1033.426,286.023,1035.717,283.971,1037.789,281.58z"/>
		<path style="fill:none;" d="M907.36,255.3c-0.083-4.213-3.948-8.069-8.026-8.007c-4.617,0.07-8.084,3.781-7.931,8.488
			c0.142,4.366,3.872,7.922,8.147,7.767C903.665,263.398,907.441,259.411,907.36,255.3z"/>
		<path style="fill:none;" d="M896.812,308.413c2.366-3.15,4.277-6.016,6.522-8.591c2.254-2.585,4.841-4.88,7.584-7.602
			C904.89,292.947,896.573,302.392,896.812,308.413z"/>
		<path style="fill:none;" d="M870.956,262.665c3.02-0.691,6.041-1.381,9.83-2.248C876.407,258.235,873.84,258.774,870.956,262.665z
			"/>
		<path style="fill:none;" d="M959.459,299.177c-3.15,0.105-6.275,0.853-9.418,1.265c-5.285,0.692-10.466,1.578-15.942,0.93
			c-4.908-0.581-10.05-0.039-14.983,0.706c-3.954,0.598-7.182,3.05-8.305,7.174c-1.09,4.006,0.963,7.171,3.586,9.936
			c1.028,1.083,2.282,1.994,3.552,2.795c6.815,4.301,14.361,6.287,22.178,6.903c3.719-0.167,11.094-1.292,16.992-4.505
			c4.345-2.367,8.227-5.136,10.916-9.396C973.758,305.919,966.548,298.942,959.459,299.177z"/>
		<path style="fill:none;" d="M907.279,224.684c2.795-0.907,3.455-2.922,2.046-5.482c-1.6-2.908-5.632-5.256-8.847-4.647
			c-8.897,1.685-15.996,6.383-22.015,13.367c1.656,2.599,3.251,1.865,4.803,1.136c6.202-2.914,12.776-3.843,19.555-3.82
			C904.311,225.243,905.877,225.139,907.279,224.684z"/>
		<path style="fill:none;" d="M969.322,291.26c0.309,2.928,3.067,3.151,4.667,4.679c1.682,1.606,3.563,3.004,5.245,4.61
			c1.554,1.483,1.909,4.158,5.442,5.171C981.678,297.698,975.847,294.121,969.322,291.26z"/>
		<path style="fill:none;" d="M942.464,1778.885c3.17-0.442,6.334-0.929,9.51-1.313c3.315-0.401,6.635-0.844,9.965-1.008
			c3.512-0.174,7.043-0.14,10.559-0.013c3.335,0.121,6.657,0.6,9.991,0.697c3.118,0.091,5.88,2.984,9.5,1.38
			C984.698,1772.095,950.33,1771.974,942.464,1778.885z"/>
		<path style="fill:none;" d="M943.053,1734.612c-1.329,1.074-1.907,2.188-2.166,3.372c-2.724,12.445-5.583,24.864-8.039,37.363
			c-3.523,17.934-8.689,35.174-19.161,50.464c-2.267,3.31-4.092,6.934-5.974,10.49c-0.544,1.028-0.58,2.326-0.85,3.5
			c0.439,0.161,0.878,0.322,1.317,0.483c0.484-0.619,1.053-1.189,1.438-1.865c2.407-4.222,4.639-8.549,7.18-12.688
			c5.372-8.751,10.694-17.594,13.066-27.657c4.805-20.384,9.183-40.87,13.682-61.325
			C943.689,1736.105,943.231,1735.328,943.053,1734.612z"/>
		<path style="fill:none;" d="M1032.333,1064.264c0.098-0.337,0.195-0.674,0.293-1.011c-0.838-0.622-1.608-1.652-2.524-1.806
			c-14.053-2.352-28.067-0.972-42.064,0.68c-0.603,0.071-1.121,0.864-1.679,1.32
			C1001.848,1063.316,1017.086,1062.161,1032.333,1064.264z"/>
		<path style="fill:none;" d="M983.766,1733.779c5.175,0.701,10.208,2.44,15.304,3.723c-6.172-8.307-40.495-9.595-48.123-2.586
			c5.813-0.644,11.023-1.53,16.259-1.717C972.72,1733.003,978.316,1733.041,983.766,1733.779z"/>
		<path style="fill:none;" d="M1010.149,1827.441c-6.832-10.402-10.676-21.631-9.517-34.203c0.583-6.328,1.419-12.639,2.334-18.929
			c1.64-11.271,3.435-22.519,5.141-33.781c0.188-1.238,0.619-2.678-1.573-3.177c-0.311,0.966-0.738,1.865-0.884,2.807
			c-2.589,16.714-5.346,33.405-7.619,50.161c-1.135,8.37-0.727,16.89,2.862,24.706c2.999,6.532,6.764,12.715,10.248,19.021
			c5.192,9.399,10.369,18.792,12.074,29.619c0.11,0.696,0.785,1.303,1.718,2.77c1.08-4.663,1.068-4.659,0.126-7.75
			C1021.659,1847.521,1016.539,1837.169,1010.149,1827.441z"/>
		<path style="fill:none;" d="M1028.154,1080.152c-6.688-0.401-13.379-0.813-20.076-1c-5.876-0.164-11.761-0.074-17.641-0.005
			c-1.503,0.018-3.244-0.129-4.57,2.441c16.018,0.45,31.406,0.883,47.566,1.337
			C1031.876,1079.965,1029.874,1080.255,1028.154,1080.152z"/>
		<path style="fill:none;" d="M944.889,1760.855c1.272-0.225,2.563-0.372,3.812-0.686c15.64-3.93,31.26-6.221,46.851,0.262
			c0.29,0.12,0.897-0.523,1.417-0.849C987.714,1749.656,952.24,1754.058,944.889,1760.855z"/>
		<path style="fill:none;" d="M1055.164,1037.714c-1.408,1.719-2.278,2.589-2.922,3.603c-1.71,2.69-3.205,5.523-4.999,8.154
			c-3.92,5.748-5.768,5.705-9.907-0.021c-0.295-0.409-0.587-0.822-0.86-1.246c-3.352-5.204-8.25-7.843-14.304-8.095
			c-5.358-0.224-10.762-0.353-16.095,0.086c-5.988,0.493-11.969,1.425-17.862,2.615c-6.476,1.308-10.154,5.402-10.713,12.194
			c-0.291,3.54-0.464,3.526-3.457,5.001c0.294,1.801,1.669,2.774,3.134,2.391c0.946-0.248,1.851-1.783,2.199-2.918
			c0.532-1.735,0.645-3.616,0.8-5.446c0.352-4.151,2.458-6.862,6.442-8.065c1.601-0.484,3.215-0.978,4.858-1.263
			c10.468-1.818,21.041-2,31.614-1.662c4.346,0.139,8.148,1.841,10.602,5.796c0.882,1.422,1.922,2.756,2.978,4.059
			c3.517,4.341,6.451,5.46,11.039,0.023c2.641-3.129,4.567-6.866,6.611-10.491l-0.003,0.005l0.003-0.005
			c0.355-0.63,0.713-1.257,1.08-1.876C1055.642,1040.148,1055.329,1039.416,1055.164,1037.714z"/>
		<path style="fill:none;" d="M1236.883,670.581c-7.169,0.188-14.38,0.049-21.491,0.809c-9.989,1.067-19.753,3.433-29.061,7.363
			c-1.18,0.498-2.941,0.653-2.851,3.413c18.914-7.455,38.201-10.125,58.152-9.211
			C1240.457,670.764,1238.665,670.534,1236.883,670.581z"/>
		<path style="fill:none;" d="M1031.754,1100.523c-3.504-2.611-7.554-1.919-11.402-2.177c-3.838-0.258-7.707-0.057-11.562-0.057
			c-4.023,0-8.046,0-12.069,0c-9.238,0-9.238,0-12.047,2.157C1000.948,1100.176,1016.269,1101.698,1031.754,1100.523z"/>
		<path style="fill:none;" d="M1064.212,1167.772c-5.297-5.364-10.544-10.819-15.332-16.631c-4.281-5.197-6.16-11.493-5.891-18.313
			c0.191-4.857,0.574-9.712,0.601-14.57c0.081-14.298,0.159-28.599-0.088-42.894c-0.046-2.692,0.225-5.797-1.947-8.275
			c-0.579,1.568-0.772,3.123-0.774,4.677c-0.025,12.785-0.012,25.569-0.016,38.354c-0.001,2.523,0.168,5.065-0.074,7.566
			c-0.828,8.55-1.339,17.067,0.947,25.498c0.113,0.416-0.17,0.938-0.335,1.732c-5.389-2.025-10.533-4.461-15.946-5.848
			c-5.312-1.361-10.887-2.175-16.364-2.275c-5.648-0.103-11.454,0.363-16.937,1.657c-5.344,1.262-10.365,3.887-15.883,6.052
			c0.074-1.223,0.115-2.039,0.174-2.854c0.558-7.682,1.254-15.357,1.646-23.047c0.478-9.385,0.553-18.791,1.086-28.172
			c0.371-6.517,1.261-13.003,1.823-19.512c0.101-1.173-0.262-2.386-0.411-3.581c-0.41-0.024-0.82-0.048-1.231-0.072
			c-0.346,1.519-0.817,3.021-1.013,4.559c-0.531,4.153-1.047,8.313-1.384,12.486c-0.835,10.356-1.691,20.712-2.289,31.083
			c-0.297,5.152-0.086,10.336-0.036,15.505c0.111,11.395-3.698,21.723-8.456,31.83c-2.501,5.312-4.851,10.7-7.088,16.129
			c-0.643,1.561-0.658,3.38-0.961,5.081c0.49,0.124,0.981,0.249,1.472,0.373c0.475-0.785,1.066-1.523,1.405-2.362
			c1.818-4.498,3.48-9.061,5.377-13.524c1.836-4.322,4.412-8.397,5.719-12.858c1.638-5.589,5.213-8.792,10.232-10.908
			c2.468-1.041,4.883-2.294,7.445-3.008c12.81-3.572,25.608-3.036,38.209,0.927c8.708,2.739,16.768,6.589,22.258,14.519
			c2.08,3.004,4.794,5.644,7.531,8.104c7.654,6.879,14.931,14.02,19.593,23.404c0.382,0.769,1.483,1.181,2.25,1.759
			c0.275-0.237,0.55-0.473,0.825-0.71c-0.546-1.317-0.979-2.696-1.657-3.942C1074.962,1178.853,1069.653,1173.281,1064.212,1167.772
			z"/>
		<path style="fill:none;" d="M932.799,1802.284c5.108-1.397,9.65-3.002,14.329-3.818c4.926-0.859,9.982-1.275,14.985-1.304
			c4.834-0.029,9.678,0.621,14.507,1.084c4.878,0.469,9.28,3.378,14.374,2.96C976.114,1790.574,939.715,1793.653,932.799,1802.284z"
			/>
		<path style="fill:none;" d="M1030.053,1120.291c0.874,0.017,1.757-0.473,2.925-0.811c-1.86-3.142-4.895-2.323-6.949-2.366
			c-14.231-0.293-28.509-1.077-42.671,0.839c0.025,0.445,0.05,0.89,0.075,1.335
			C998.972,1119.635,1014.512,1119.994,1030.053,1120.291z"/>
		<path style="fill:#C4C777;" d="M711.337,644.073c2.695,0.904,5.468,1.632,8.256,2.194c17.961,3.618,36.162,5.037,54.43,5.826
			c6.364,0.275,12.721,0.704,19.085,0.933c3.809,0.137,7.628,0.025,11.649,0.025c-0.108-2.099-0.058-3.613-0.282-5.085
			c-1.947-12.762-3.786-25.543-5.966-38.266c-2.831-16.527-5.711-33.053-9.018-49.489c-2.283-11.343-5.343-22.529-8.001-33.799
			c-0.341-1.447-1.73-3.168,1.149-4.646c0.577,1.602,1.281,3.055,1.627,4.59c4.176,18.492,8.766,36.906,12.308,55.52
			c3.791,19.925,6.859,40.002,9.723,60.086c2.461,17.255,4.262,34.605,6.219,51.929c1.317,11.658,2.43,23.34,3.578,35.017
			c1.526,15.507,3.068,31.013,4.415,46.536c0.204,2.347,0.855,4.207,2.394,5.851c5.163,5.516,10.247,11.108,15.514,16.523
			c17.133,17.618,36.245,32.99,55.414,48.262c6.011,4.789,12.599,8.92,19.216,12.862c5.746,3.423,12.128,3.027,18.571,1.763
			c0-1.692,0.148-3.043-0.023-4.352c-1.537-11.802-3.174-23.591-4.676-35.397c-0.373-2.935-1.276-5.232-3.63-7.362
			c-5.063-4.58-5.796-9.787-3.035-16c0.32-0.72,0.459-1.521,0.739-2.481c-4.406-2.502-8.575-5.038-9.804-10.323
			c-1.287-5.53,1.633-9.609,4.821-13.495c-10.968-8.707-11.092-14.314-4.142-25.192c-0.763-0.552-1.532-1.128-2.322-1.674
			c-9.094-6.291-10.278-15.229-3.264-23.709c0.866-1.047,1.494-2.601,1.555-3.95c0.352-7.711,0.448-15.434,0.728-23.148
			c0.532-14.596,1.311-29.164,5.14-43.375c4.48-16.632,12.509-31.124,25.923-42.201c12.453-10.284,26.902-14.424,42.826-11.941
			c14.029,2.187,27.358,6.92,39.658,14.075c21.545,12.532,41.488,27.409,60.501,43.432c16.29,13.729,31.882,28.288,47.7,42.572
			c2.194,1.982,4.133,3.339,7.304,1.175c-1.2-4.667-2.322-9.354-3.619-13.991c-1.717-6.139-3.682-12.209-5.344-18.362
			c-5.424-20.085-10.523-40.261-16.203-60.273c-4.401-15.507-9.571-30.851-10.264-47.091c-0.551-12.904-1.359-25.94-0.163-38.741
			c1.508-16.152,4.918-32.128,7.563-48.171c0.254-1.539,0.897-3.013,1.36-4.518c0.561,0.112,1.121,0.224,1.681,0.335
			c-0.256,1.741-0.505,3.482-0.77,5.222c-2.421,15.908-5.433,31.754-7.087,47.741c-1.397,13.507-1.126,27.18,0.446,40.741
			c2.687,23.182,8.617,45.341,20.207,65.836c2.479,4.383,5.293,6.211,9.985,4.818c1.799-2.042,3.414-4.204,5.351-6.022
			c13.782-12.929,29.045-23.88,45.292-33.469c13.997-8.26,28.698-14.638,45.103-16.277c1.439-0.144,2.841-0.65,4.485-1.041
			c-1.234-4.817-4.43-8.121-7.127-11.664c-17.801-23.381-35.637-46.735-53.54-70.038c-12.582-16.377-25.147-32.743-39.898-47.334
			c-13.219-13.076-28.47-22.478-46.459-26.956c-19.034-4.739-38.221-8.87-57.365-13.16c-10.802-2.421-21.647-4.65-32.482-6.919
			c-2.789-0.584-5.22-1.051-7.506,2.017c-10.499,14.089-24.383,21.696-42.317,21.079c-17.071-0.587-31.759-6.385-43.229-19.413
			c-2.285-2.595-2.995-2.748-5.942-0.858c-19.825,12.713-40.778,23.367-61.703,34.092c-11.351,5.818-22.597,11.857-33.714,18.11
			c-15.307,8.61-29.312,18.967-41.307,31.921c-13.141,14.191-22.152,30.843-27.999,49.052c-9.9,30.832-19.131,61.879-28.591,92.852
			c-0.731,2.393-1.29,4.888-1.519,7.374C704.421,639.887,706.013,642.287,711.337,644.073z M1123.988,529.637
			c18.55,8.689,37.979,14.687,57.95,19.046c0.121,0.026,0.128,0.574,0.189,0.878c-8.683,2.294-54.493-12.763-59.532-19.666
			C1123.108,529.79,1123.656,529.482,1123.988,529.637z M1086.292,452.462c2.898,1.524,2.662,3.611,2.65,5.758
			c-0.053,9.191-0.02,18.383,0.062,27.574c0.037,4.19,0.082,8.392,0.432,12.563c1.063,12.658,2.293,25.302,3.406,37.956
			c0.103,1.169-0.168,2.371-0.265,3.558c-0.368,0.03-0.736,0.06-1.104,0.091c-0.383-1.169-1-2.316-1.112-3.51
			c-1.435-15.314-3.059-30.617-4.087-45.96c-0.693-10.354-0.573-20.766-0.695-31.154
			C1085.552,457.049,1086.04,454.754,1086.292,452.462z M748.648,541.702c0.84,0.39,1.945,0.561,2.48,1.205
			c5.362,6.451,10.942,12.754,15.856,19.537c8.176,11.286,15.917,22.887,23.814,34.374c0.728,1.06,1.255,2.258,2.46,4.458
			c-1.658-0.605-2.306-0.631-2.524-0.951c-13.482-19.795-27.108-39.484-42.811-57.655
			C748.164,542.347,748.406,542.024,748.648,541.702z"/>
		<path style="fill:#DE9575;" d="M899.702,1440.25c-0.153,17.795-0.112,35.578,1.529,53.345c1.747,18.915,4.827,37.602,8.966,56.095
			c5.681,25.38,11.864,50.647,17.866,75.955c0.606,2.553,1.451,5.05,2.024,7.018c28.974-3.521,57.664-3.205,86.462-6.021
			c0.407-2.267,0.868-3.89,0.969-5.536c1.052-17.233,2.107-34.467,3.036-51.707c0.768-14.233,1.802-28.47,1.939-42.713
			c0.197-20.496,0.503-41.048-0.754-61.483c-1.243-20.207-4.574-40.278-6.604-60.447c-1.527-15.172-2.862-30.386-3.526-45.615
			c-0.747-17.123,0.799-34.197,2.89-51.205c2.025-16.466,4.001-32.939,5.939-49.415c0.477-4.06,0.724-8.147,1.113-12.64
			c-2.675,0-4.672,0.052-6.666-0.009c-10.58-0.325-21.098-1.118-31.352-4.03c-9.333-2.651-17.108-7.532-22.869-15.48
			c-6.497-8.963-9.486-19.145-10.734-29.976c-0.24-2.081-0.658-4.141-1.029-6.423c-13.385,1.229-26.202,2.508-39.038,3.557
			c-12.771,1.043-25.56,1.856-38.61,2.789c0.634,3.672,1.003,6.667,1.679,9.592c5.669,24.517,11.356,49.03,17.113,73.526
			c6.509,27.699,10.218,55.794,10.508,84.211C900.814,1389.169,899.921,1414.711,899.702,1440.25z M932.426,1326.442
			c7.174,4.984,14.517,9.737,23.21,11.522c5.865,1.204,11.864,1.747,17.799,2.617c1.885,0.276,3.755,0.654,5.632,0.986
			c-10.622,5.654-42.157-5.3-50.458-16.538C930.442,1324.227,931.339,1325.687,932.426,1326.442z"/>
		<path style="fill:#DE9575;" d="M864.581,914.347c4.495,2.519,9.113,5.006,13.084,8.235c11.32,9.204,22.215,18.929,33.507,28.169
			c10.143,8.3,20.708,16.061,32.282,22.319c7.184,3.884,14.682,6.538,23.046,6.124c7.035-0.348,14.082-0.635,21.123-0.63
			c7.546,0.006,15.099,0.666,22.635,0.479c3.57-0.089,7.237-1.155,10.595-2.459c1.284-0.499,2.362-2.829,2.58-4.452
			c0.297-2.216-1.935-3.16-3.659-3.526c-9.008-1.912-18.013-3.936-27.114-5.28c-6.779-1.001-13.705-0.994-20.559-1.519
			c-1.035-0.079-2.035-0.61-3.051-0.931c0.987-1.234,1.987-1.831,2.991-1.837c2.682-0.017,5.404-0.024,8.041,0.396
			c17.165,2.73,33.77-0.503,50.231-4.783c3.314-0.862,6.428-2.787,9.387-4.621c2.205-1.367,3.324-3.625,3.115-6.461
			c-0.159-2.16-1.14-3.13-3.194-2.833c-2.153,0.31-4.257,0.992-6.413,1.244c-9.149,1.068-18.398,1.543-27.443,3.17
			c-10.757,1.935-21.033-0.13-31.401-2.143c-0.927-0.18-1.749-0.902-3.553-1.876c1.87-0.517,2.641-0.972,3.338-0.879
			c2.483,0.333,4.946,0.828,7.407,1.307c6.449,1.257,12.906,2.182,19.507,1.283c6.139-0.836,12.29-1.593,18.445-2.307
			c4.99-0.579,10.027-0.838,14.978-1.642c2.582-0.419,5.256-1.328,7.473-2.691c3.364-2.07,2.956-6.324-0.594-7.997
			c-1.644-0.775-3.493-1.424-5.283-1.522c-7.196-0.394-14.417-0.907-21.607-0.681c-5.716,0.179-11.41,0.294-16.898-1.144
			c-7.594-1.99-15.043-4.537-22.53-6.92c-0.636-0.203-1.093-0.967-2.517-2.294c2.244,0,3.307-0.004,4.371,0.001
			c2.343,0.01,4.708,0.242,7.024,0.001c12.762-1.327,24.978-4.96,36.961-9.332c2.895-1.056,5.517-3.122,7.95-5.107
			c2.243-1.83,2.857-4.413,1.569-7.336c-4.334-1.377-8.369,0.116-12.359,1.136c-11.751,3.005-23.73,4.783-35.782,5.092
			c-10.417,0.267-20.109-3.491-29.074-8.717c-6.058-3.532-6.333-7.191-1.701-12.641c5.944-6.993,13.438-10.23,22.557-10.324
			c3.657-0.038,7.347-0.6,10.948-1.306c3.359-0.659,6.28-2.391,8.391-5.203c1.654-2.204,1.846-4.733,0.781-7.154
			c-0.94-2.135-3.146-1.483-4.933-1.564c-7.539-0.344-15.091-0.493-22.613-1.05c-7.092-0.526-13.555,0.485-19.562,4.734
			c-3.372,2.386-7.348,4.04-11.236,5.549c-9.533,3.7-18.707,2.706-27.321-2.873c-3.1-2.008-6.328-3.869-9.2-6.17
			c-12.571-10.071-25.203-20.078-37.477-30.503c-8.693-7.384-17.258-15.007-25.151-23.224
			c-11.628-12.104-22.712-24.714-35.372-35.814c-3.502-3.07-6.463-6.823-9.338-10.523c-2.631-3.385-3.148-7.338-1.604-11.457
			c5.656-15.085,11.192-30.216,17.039-45.227c1.208-3.102,1.841-6.11,1.565-9.307c-0.503-5.842-1.161-11.671-1.817-17.499
			c-0.503-4.461-1.102-8.91-1.696-13.663c-28.965-1.095-57.632-1.334-86.654-7.164c-1.367,7.195-2.832,13.724-3.822,20.324
			c-3.581,23.875-7.096,47.761-10.445,71.67c-1.748,12.481-2.41,25.025-1.02,37.625c1.4,12.686,6.028,23.99,13.915,34
			c6.692,8.492,14.779,15.557,22.889,22.61c14.62,12.714,30.719,23.426,46.881,33.969c14.753,9.623,29.987,18.526,45.198,27.422
			C842.961,902.798,853.894,908.359,864.581,914.347z M767.324,734.904c-5.102-1.731-10.49-2.381-15.841-1.782
			c-5.16,0.578-10.254,1.754-15.489,2.688c6.154-9.614,38.121-6.356,46.877,5.268C777.1,738.761,772.294,736.59,767.324,734.904z"/>
		<path style="fill:#92D2A4;" d="M948.877,1187.232c0.875-8.866,1.484-17.048,2.529-25.173c1.732-13.466,3.632-26.913,5.669-40.337
			c2.843-18.737,5.939-37.436,8.785-56.172c0.675-4.442,1.418-9.024,1.035-13.446c-0.938-10.846-2.385-21.655-3.87-32.446
			c-1.554-11.295-3.427-22.547-5.082-33.829c-0.46-3.134-1.992-4.622-5.058-5.929c-6.915-2.948-13.923-6.091-20.064-10.351
			c-11.429-7.93-22.34-16.62-33.294-25.214c-2.586-2.029-5.129-3.05-8.281-2.637c-1.657,0.217-3.318,0.51-4.928,0.949
			c-11.975,3.266-23.933,6.594-35.908,9.856c-2.056,0.56-4.171,0.9-6.306,1.352c-0.121,1.546-0.283,2.704-0.293,3.863
			c-0.23,24.875-0.37,49.752-0.688,74.626c-0.17,13.262-0.673,26.52-0.969,39.781c-0.371,16.624-0.784,33.248-0.988,49.874
			c-0.161,13.12-0.152,26.244,0.012,39.364c0.1,8.049,0.514,16.099,1.016,24.135c0.339,5.422,2.058,7.141,7.478,7.598
			c4.346,0.366,8.739,0.574,13.09,0.378c11.218-0.507,22.435-1.136,33.634-1.974C913.76,1190.202,931.109,1188.688,948.877,1187.232
			z M867.986,1156.122c-0.416-3.173,1.592-4.518,2.725-6.174c6.619-9.676,13.554-19.145,19.923-28.98
			c3.812-5.887,6.77-12.325,10.155-18.492c0.832-1.515,1.832-2.938,3.361-5.365C903.997,1106.369,877.862,1148.267,867.986,1156.122
			z"/>
		<path style="fill:#DE9575;" d="M999.869,340.07c6.563-8.891,12.308-18.398,18.226-27.751c2.678-4.232,4.194-9.414,7.52-12.961
			c3.464-3.694,8.477-5.934,12.808-8.817c0.838-0.558,1.661-1.138,2.472-1.735c3.409-2.509,6.552-5.334,8.496-9.138
			c2.88-5.634,2.933-11.366-0.67-16.714c-5.081-7.54-14.722-6.903-19.026,1.077c-0.585,1.085-1.604,1.936-2.972,3.54
			c-1.037-1.897-1.831-3.085-2.367-4.379c-1.732-4.185-3.44-8.382-5.02-12.627c-1.05-2.823-2.124-5.681-2.734-8.617
			c-1.971-9.487-1.144-19.045-0.336-28.584c0.627-7.401,0.519-14.763-1.39-21.988c-2.792-10.567-9.336-16.306-20.141-17.567
			c-4.488-0.523-9.012-0.796-13.528-1.017c-14.735-0.719-29.482-1.225-44.21-2.068c-16.225-0.929-32.433-2.147-48.65-3.215
			c-1.442-0.095-2.896-0.013-4.827-0.013c0,4.016-0.051,7.513,0.009,11.008c0.202,11.637-2.254,22.767-7.341,33.135
			c-3.388,6.906-7.619,13.423-11.775,19.921c-4.942,7.727-9.121,15.65-9.644,25.061c-0.111,1.99-0.47,4.022-1.081,5.918
			c-1.38,4.284-4.679,5.032-7.486,1.51c-6.438-8.077-15.441-4.182-18.274,3.886c-3.281,9.343,0.87,19.723,10.368,24.663
			c4.446,2.312,9.217,4.049,13.953,5.735c3.417,1.216,5.656,3.369,7.21,6.549c1.916,3.921,4.02,7.749,6.018,11.629
			c12.042,23.396,30.199,40.006,54.902,49.229c6.46,2.412,13.159,4.055,20.169,3.672c3.176-0.174,6.346-0.579,9.521-0.608
			c7.005-0.064,13.572-1.729,19.908-4.673C981.943,358.569,992.089,350.61,999.869,340.07z M1032.959,282.61
			c4.089-2.555,4.16-3.798,0.41-6.909c-0.376-0.312-0.642-0.756-0.939-1.115c1.893-4.404,5.452-6.144,9.967-4.44
			c-2.365,1.042-4.372,1.926-6.672,2.939c1.459,2.844,5.049,5.05,2.065,8.494c-2.072,2.391-4.363,4.443-8.293,3.254
			C1030.65,284.092,1031.796,283.337,1032.959,282.61z M843.678,286.482c-3.597-3.518-2.951-7.186-1.384-10.814
			c-2.159-3.06-5.444-1.262-7.944-2.301c2.864-3.678,6.679-2.964,10.745,1.592C844.621,278.807,844.197,282.254,843.678,286.482z
			 M1004.316,257.124c-2.073,0-4.145,0-6.555,0C1000.337,254.38,1000.337,254.38,1004.316,257.124z M967.051,215.37
			c1.724-0.813,3.901-1.321,5.76-1.084c8.346,1.063,15.49,5.053,22.224,9.854c1.526,1.088,1.47,1.167,0.87,3.562
			c-7.835-0.975-15.591-1.878-23.325-2.944c-1.956-0.27-4.019-0.733-5.721-1.673C963.158,221.042,963.248,217.164,967.051,215.37z
			 M943.523,231.279c0.567,0.055,1.133,0.111,1.7,0.166c-0.275,2.618-0.505,5.242-0.834,7.852
			c-1.051,8.348-0.227,16.051,6.606,22.113c4.087,3.626,4.951,8.332,2.957,13.335c-1.17,2.935-2.803,5.704-4.428,8.427
			c-0.5,0.837-1.664,1.277-3.257,1.366c0.379-0.937,0.695-1.905,1.148-2.804c1.273-2.527,2.895-4.92,3.842-7.559
			c1.436-4.001,1.177-7.825-2.195-11.083c-4.492-4.34-7.398-9.576-7.565-15.961C941.355,241.733,941.831,236.387,943.523,231.279z
			 M870.956,262.665c2.884-3.892,5.451-4.43,9.83-2.248C876.997,261.284,873.977,261.975,870.956,262.665z M883.265,229.059
			c-1.552,0.729-3.147,1.463-4.803-1.136c6.019-6.984,13.119-11.682,22.015-13.367c3.215-0.609,7.247,1.739,8.847,4.647
			c1.409,2.56,0.749,4.574-2.046,5.482c-1.401,0.455-2.968,0.559-4.458,0.554C896.04,225.216,889.466,226.145,883.265,229.059z
			 M891.403,255.781c-0.153-4.707,3.314-8.418,7.931-8.488c4.078-0.062,7.943,3.794,8.026,8.007c0.081,4.111-3.695,8.098-7.81,8.248
			C895.275,263.703,891.545,260.147,891.403,255.781z M903.333,299.822c-2.245,2.575-4.155,5.441-6.522,8.591
			c-0.238-6.021,8.078-15.466,14.106-16.193C908.174,294.942,905.587,297.237,903.333,299.822z M968.035,314.986
			c-2.689,4.26-6.571,7.029-10.916,9.396c-5.898,3.213-13.273,4.338-16.992,4.505c-7.816-0.616-15.363-2.602-22.178-6.903
			c-1.27-0.801-2.524-1.712-3.552-2.795c-2.623-2.764-4.676-5.93-3.586-9.936c1.122-4.124,4.35-6.576,8.305-7.174
			c4.933-0.745,10.074-1.287,14.983-0.706c5.477,0.648,10.658-0.238,15.942-0.93c3.142-0.412,6.268-1.16,9.418-1.265
			C966.548,298.942,973.758,305.919,968.035,314.986z M979.234,300.549c-1.683-1.606-3.563-3.004-5.245-4.61
			c-1.6-1.528-4.358-1.751-4.667-4.679c6.525,2.861,12.356,6.438,15.354,14.46C981.143,304.707,980.788,302.032,979.234,300.549z
			 M976.818,264.125c-4.111-0.139-7.784-4.116-7.7-8.336c0.082-4.129,3.565-7.498,7.755-7.501c4.384-0.003,8.103,3.583,8.15,7.856
			C985.065,259.952,980.641,264.254,976.818,264.125z"/>
		<path style="fill:#DE9575;" d="M1296.666,728.247c-1.11-10.861-4.532-20.961-8.059-31.094
			c-14.132-40.597-36.957-76.745-58.343-113.62c-2.524-4.352-4.786-5.302-9.757-3.788c-6.881,2.096-13.818,4.261-20.336,7.257
			c-19.527,8.974-36.58,21.789-53.098,35.346c-1.373,1.127-2.521,2.528-3.894,3.925c12.957,18.607,22.632,38.479,33.129,58.22
			c-17.617,11.497-36.737,16.546-56.866,19.287c0.65,4.757,1.162,9.211,1.926,13.62c0.208,1.199,0.948,2.502,1.833,3.355
			c9.146,8.821,10.843,23.194,3.939,34.767c-1.781,2.986-4.98,5.308-6.12,8.446c-1.211,3.338-0.542,7.314-1.079,10.954
			c-0.531,3.605-1.543,7.139-2.511,11.451c7.926,0.471,15.271,1.176,22.625,1.291c17.457,0.272,34.884-0.31,52.296-1.882
			c18.405-1.661,36.619-4.386,54.623-8.478c9.974-2.267,19.902-4.726,29.093-9.514
			C1288.199,761.471,1298.498,746.169,1296.666,728.247z M1183.48,682.165c-0.09-2.76,1.671-2.915,2.851-3.413
			c9.308-3.929,19.072-6.295,29.061-7.363c7.112-0.76,14.323-0.62,21.491-0.809c1.781-0.047,3.573,0.183,4.748,2.373
			C1221.681,672.04,1202.393,674.71,1183.48,682.165z"/>
		<path style="fill:#DE9575;" d="M967.611,802.796c-0.619,0.11-1.283,0.144-1.903,0.046c-12.583-1.975-25.173-3.906-37.736-6.001
			c-4.275-0.713-5.938,0.331-6.449,4.581c-0.703,5.849,1.313,10.36,6.786,12.711c4.291,1.844,8.72,3.723,13.275,4.524
			c11.375,1.999,22.825,3.683,34.307,4.906c5.628,0.599,11.42,0.182,17.095-0.296c8.834-0.744,16.88-4.247,24.735-8.104
			c11.148-5.474,22.033-11.533,33.391-16.521c13.475-5.918,27.008-11.966,42.543-13.457c0.883-6.92,1.835-13.69,2.525-20.486
			c0.114-1.121-0.702-2.528-1.46-3.517c-8.489-11.059-8.611-22.469-1.699-34.287c0.735-1.257,1.47-2.739,1.511-4.137
			c0.186-6.432-0.695-12.704-3.414-18.643c-1.047-2.288-2.579-3.74-4.993-4.588c-9.551-3.355-18.39-8.149-26.893-13.606
			c-9.034-5.797-17.82-12.064-28.346-15.072c-12.916-3.691-25.67-7.83-37.863-13.563c-1.948-0.916-4.116-1.527-6.248-1.859
			c-5.399-0.839-8.669,2.167-8.781,7.541c-0.067,3.224,1.044,5.913,2.955,8.364c3.26,4.182,7.402,7.335,12.114,9.633
			c4.974,2.427,10.167,4.406,15.15,6.818c2.54,1.229,5.107,2.674,7.17,4.56c3.748,3.424,3.408,7.276-0.793,10.058
			c-2.207,1.462-4.731,2.575-7.258,3.396c-8.614,2.799-17.265,5.49-25.953,8.047c-9.362,2.755-18.908,4.576-28.707,4.719
			c-10.419,0.152-20.841,0.152-31.257,0.406c-2.982,0.073-6.032,0.495-8.903,1.292c-4.829,1.34-7.458,4.986-7.789,9.986
			c-0.423,6.386,2.91,11.206,9.63,13.705c7.345,2.732,15.013,3.405,22.78,3.39c10.763-0.02,21.526-0.011,32.289,0.002
			c2.067,0.003,4.257-0.266,5.968,1.97c-0.711,0.384-1.096,0.77-1.488,0.778c-9.73,0.197-19.472,0.712-29.188,0.413
			c-9.017-0.278-18.144,0.087-26.988-2.482c-2.819-0.819-4.756,0.541-6.211,3.03c-3.731,6.382-1.912,13.222,4.713,16.652
			c2.068,1.07,4.303,2.047,6.571,2.459c7.085,1.288,14.203,2.442,21.346,3.354c8.471,1.082,16.985,1.826,25.47,2.813
			c0.925,0.108,1.778,0.845,2.664,1.29c-0.067,0.358-0.134,0.717-0.201,1.075c-1.406,0.112-2.83,0.425-4.214,0.3
			c-4.831-0.439-9.665-0.909-14.466-1.587c-10.61-1.501-21.217-3.037-31.785-4.8c-2.093-0.349-3.482-0.089-4.922,1.376
			c-5.486,5.58-4.106,14.323,3.301,17.454c4.729,1.999,9.9,3.158,14.986,4.062c9.4,1.67,18.885,2.854,28.328,4.294
			c1.821,0.278,4.006-0.056,5.072,2.071C968.015,802.326,967.847,802.754,967.611,802.796z"/>
		<path style="fill:#E8E8E8;" d="M1024.954,1743.366c0.007-1.841-0.147-3.697-0.399-5.522c-0.642-4.654-2.149-6.25-6.81-7.416
			c-2.116-0.529-4.212-1.242-6.362-1.511c-6.93-0.865-11.504-4.976-15.13-10.535c-2.017-3.093-4.002-6.212-6.159-9.205
			c-2.659-3.691-6.323-6.134-10.782-6.84c-5.484-0.868-11.128-1.263-16.464,0.556c-3.081,1.05-6.464,2.553-8.545,4.891
			c-3.403,3.824-6.046,8.383-8.632,12.851c-1.542,2.664-3.013,5.105-5.845,6.612c-2.94,1.565-4.912,3.961-5.455,7.43
			c-0.284,1.811-0.964,3.557-1.427,5.343c-5.646,21.77-11.68,43.412-19.873,64.405c-5,12.811-9.776,25.715-14.393,38.67
			c-2.944,8.261-4.707,16.823-4.003,25.672c0.232,2.914,1.061,5.781,1.589,8.528c5.967,0.783,11.107,0.334,16.094-1.354
			c6.661-2.255,13.267-4.672,19.907-6.989c8.35-2.912,16.878-4.979,25.619-2.252c5.575,1.74,10.915,4.246,16.331,6.482
			c10.229,4.221,20.327,8.793,30.705,12.604c4.298,1.578,9.159,1.985,13.795,2.177c4.642,0.193,8.364-1.91,9.945-6.745
			c0.624-1.908,1.481-3.742,2.055-5.663c3.738-12.519,4.318-25.433,4.293-38.348c-0.031-15.45-1.822-30.774-4.593-45.967
			C1027.528,1775.398,1024.891,1759.541,1024.954,1743.366z M999.071,1737.502c-5.096-1.283-10.13-3.022-15.304-3.723
			c-5.451-0.738-11.047-0.776-16.56-0.58c-5.236,0.187-10.446,1.073-16.259,1.717
			C958.576,1727.907,992.899,1729.194,999.071,1737.502z M929.865,1798.076c-2.372,10.064-7.694,18.906-13.066,27.657
			c-2.541,4.139-4.773,8.466-7.18,12.688c-0.385,0.675-0.954,1.246-1.438,1.865c-0.439-0.161-0.878-0.322-1.317-0.483
			c0.269-1.174,0.306-2.472,0.85-3.5c1.882-3.557,3.707-7.18,5.974-10.49c10.472-15.29,15.638-32.53,19.161-50.464
			c2.455-12.498,5.315-24.918,8.039-37.363c0.259-1.184,0.837-2.298,2.166-3.372c0.178,0.716,0.636,1.493,0.494,2.138
			C939.048,1757.206,934.67,1777.691,929.865,1798.076z M976.62,1798.247c-4.829-0.464-9.673-1.113-14.507-1.084
			c-5.003,0.03-10.059,0.446-14.985,1.304c-4.679,0.815-9.221,2.421-14.329,3.818c6.917-8.631,43.315-11.71,58.195-1.078
			C985.9,1801.625,981.497,1798.715,976.62,1798.247z M982.49,1777.249c-3.334-0.097-6.656-0.576-9.991-0.697
			c-3.516-0.127-7.047-0.161-10.559,0.013c-3.33,0.164-6.65,0.608-9.965,1.008c-3.177,0.384-6.341,0.871-9.51,1.313
			c7.865-6.912,42.233-6.79,49.525-0.256C988.369,1780.232,985.608,1777.34,982.49,1777.249z M995.552,1760.43
			c-15.592-6.483-31.212-4.192-46.851-0.262c-1.249,0.314-2.54,0.462-3.812,0.686c7.351-6.797,42.825-11.199,52.08-1.273
			C996.449,1759.907,995.842,1760.551,995.552,1760.43z M1024.934,1866.437c-0.933-1.467-1.609-2.074-1.718-2.77
			c-1.705-10.827-6.882-20.22-12.074-29.619c-3.484-6.306-7.249-12.489-10.248-19.021c-3.589-7.816-3.997-16.336-2.862-24.706
			c2.273-16.757,5.031-33.448,7.619-50.161c0.146-0.943,0.573-1.842,0.884-2.807c2.192,0.499,1.76,1.939,1.573,3.177
			c-1.706,11.262-3.501,22.51-5.141,33.781c-0.915,6.29-1.751,12.601-2.334,18.929c-1.159,12.572,2.685,23.801,9.517,34.203
			c6.39,9.728,11.51,20.08,14.911,31.245C1026.001,1861.777,1026.014,1861.774,1024.934,1866.437z"/>
		<path style="fill:#92D2A4;" d="M1173.471,790.648c-4.473,0-8.781,0-13.467,0c-0.345,6.44-0.812,12.125-0.916,17.817
			c-0.151,8.226-0.182,16.46,0.009,24.685c0.144,6.199,0.496,12.411,1.145,18.577c1.372,13.042,2.276,26.084,0.784,39.161
			c-1.117,9.789-3.963,19.064-9.215,27.474c-6.949,11.13-17.221,16.975-30.159,17.043c-6.612,0.035-13.323-1.458-19.828-2.958
			c-8.495-1.959-16.804-4.713-25.245-6.927c-5.469-1.434-10.92-3.256-16.696-2.714c-2.972,13.044-3.506,86.797-0.315,96.865
			c3.676-0.251,7.486-0.699,11.301-0.737c11.609-0.116,23.094-1.408,34.514-3.374c28.354-4.879,52.333-17.398,70.509-40.206
			c15.163-19.028,24.618-40.435,26.23-64.793c1.168-17.656-0.919-35.164-4.2-52.577
			C1193.424,834.123,1182.808,812.585,1173.471,790.648z"/>
		<path style="fill:#D1D1D1;" d="M836.328,241.296c3.156,4.785,6.234,9.492,7.925,15.073c0.878,2.9,3.107,5.08,6.394,6.778
			c0.544-2.769,1.157-4.853,1.334-6.972c0.643-7.703,3.304-14.697,7.294-21.212c2.983-4.87,6.235-9.574,9.228-14.438
			c9.804-15.93,14.155-33.159,12.184-51.872c-0.136-1.29-0.018-2.606-0.018-4.005c12.97,0.781,25.325,1.546,37.683,2.265
			c15.393,0.895,30.784,1.812,46.182,2.604c9.215,0.474,18.46,0.473,27.658,1.15c9.47,0.696,17.854,4.008,22.413,13.06
			c1.929,3.83,3.624,8.144,3.93,12.347c0.594,8.151,0.625,16.417-0.006,24.567c-1.038,13.404,0.592,26.13,7.159,38.008
			c0.429,0.776,1.145,1.393,1.323,1.605c2.305-1.232,4.058-2.239,5.872-3.119c2.134-1.035,4.055-2.024,5.006-4.571
			c7.869-21.073,13.8-42.491,11.939-65.32c-1.02-12.518-4.859-24.014-13.178-33.671c-5.216-6.054-11.787-10.437-18.577-14.531
			c-7.473-4.506-14.738-9.226-21.473-14.911c-22.729-19.185-48.668-25.785-77.019-15.65c-21.051,7.525-37.961,21.251-49.694,40.75
			c-0.797,1.325-1.975,2.851-3.321,3.349c-11.516,4.254-20.759,11.587-28.601,20.806c-8.559,10.063-13.603,21.472-13.001,35.003
			C825.504,220.503,829.754,231.33,836.328,241.296z M1037.64,229.41c-0.733-0.235-1.568-0.245-1.76-0.601
			c-3.784-7.02-7.493-14.08-11.217-21.132C1028.714,209.679,1036.558,223.883,1037.64,229.41z M999.275,143.374
			c3.242-0.413,6.6-0.098,9.887,0.132c1.174,0.082,2.295,0.903,4.233,1.721c-4.41,2.545-8.128-0.216-11.757,0.778
			c-3.67,1.005-7.625,0.915-11.378,1.681c-3.595,0.734-7.125,1.847-10.621,2.984c-3.656,1.189-7.274,2.514-10.841,3.946
			c-3.48,1.397-6.877,3.004-10.31,4.519c-0.191-0.256-0.383-0.512-0.574-0.768c0.499-0.654,0.857-1.591,1.518-1.919
			C972.078,150.169,985.176,145.169,999.275,143.374z M895.911,154.691c18.201-10.023,35.932-21.022,55.459-28.376
			c6.199-2.335,12.932-3.28,19.456-4.692c0.996-0.216,2.19,0.485,3.293,0.762c-0.015,0.417-0.029,0.834-0.044,1.251
			c-1.695,0.429-3.375,1.149-5.088,1.238c-8.372,0.434-16.164,3.035-23.529,6.704c-14.999,7.473-29.826,15.291-44.724,22.968
			c-1.875,0.966-3.746,1.94-6.227,2.208C894.967,156.051,895.261,155.049,895.911,154.691z M847.673,194.45
			c0.22-0.648,0.939-1.128,2.238-2.617c0,2.256,0.25,3.388-0.039,4.359c-3.084,10.361-6.667,20.53-11.489,30.2
			c-0.436-0.113-0.872-0.227-1.307-0.34C840.597,215.514,844.103,204.971,847.673,194.45z"/>
		<path style="fill:#DE9575;" d="M1128.552,699.649c0.106-0.44,0.212-0.879,0.317-1.319c-2.218-2.015-4.436-4.029-6.652-6.045
			c-9.934-9.034-19.801-18.143-29.817-27.085c-17.443-15.573-36.229-29.416-55.418-42.732
			c-14.749-10.235-30.499-18.264-48.112-22.34c-18.369-4.251-35.089-1.205-49.444,11.434c-9.644,8.491-16.286,19.122-20.616,31.211
			c-4.866,13.587-6.178,27.766-7.022,42.022c-0.367,6.193-0.809,12.388-0.938,18.587c-0.092,4.445-0.567,8.95,0.418,13.528
			c0.979,0,1.655,0.099,2.293-0.015c8.16-1.456,16.357-1.171,24.6-0.947c10.228,0.278,20.56,0.317,30.567-2.031
			c11.255-2.641,22.354-5.966,33.469-9.173c3.367-0.972,6.672-2.323,9.808-3.894c3.763-1.886,4.079-4.914,0.681-7.41
			c-2.537-1.863-5.514-3.161-8.377-4.542c-4.535-2.188-9.263-4.003-13.682-6.396c-6.461-3.498-11.982-8.082-14.806-15.206
			c-1.62-4.088-1.276-8.023,1.738-11.227c2.778-2.953,6.374-4.333,10.503-3.072c3.037,0.927,6.046,1.963,9.019,3.081
			c7.216,2.712,14.28,5.903,21.632,8.166c11.909,3.665,23.804,7.199,34.183,14.441c0.611,0.426,1.516,0.432,2.614,0.72
			c0-1.259,0.207-2.25-0.032-3.118c-2.232-8.082-4.55-16.14-6.822-24.21c-0.448-1.591-1.839-3.185,0.246-5.731
			c0.896,1.995,1.733,3.364,2.141,4.851c2.442,8.891,4.755,17.817,7.182,26.713c0.641,2.351,0.593,4.951,3.195,6.534
			c7.756,4.72,15.568,9.273,24.125,12.46c2.266,0.844,3.906,1.066,5.935-0.683c1.256-1.083,3.357-1.641,5.08-1.646
			c6.126-0.016,12.222,1.083,17.365,4.384C1119.061,702.253,1123.684,700.468,1128.552,699.649z"/>
		<path style="fill:#DE9575;" d="M1151.565,790.593c-11.418,0.064-22.805-0.352-34.117-2.07c-1.308-0.199-2.67-0.18-3.996-0.095
			c-3.333,0.214-6.659,0.728-9.99,0.739c-3.491,0.012-6.98-0.563-10.475-0.632c-7.699-0.152-14.845,2.307-21.924,4.967
			c-5.172,1.943-5.238,1.962-5.215,7.588c0.083,19.81-0.194,39.61-1.677,59.373c-1.279,17.039-2.684,34.069-3.964,51.109
			c-0.198,2.63-0.028,5.287-0.028,7.965c11.394,2.531,22.634,3.513,33.964,0.583c14.457-3.738,25.277-12.744,34.714-23.798
			c18.684-21.884,24.612-48.303,26.932-75.974c0.546-6.51,0.743-13.051,1.001-19.581c0.125-3.16,0.022-6.33,0.022-10.175
			C1154.549,790.591,1153.057,790.584,1151.565,790.593z"/>
		<path style="fill:#4D4D4D;" d="M937.888,1723.934c3.65-0.615,3.641-0.621,5.059-3.171c1.954-3.516,3.817-7.087,5.904-10.523
			c9.009-14.832,37.251-16.201,45.943,1.013c1.575,3.12,3.741,5.985,5.903,8.757c4.499,5.768,10.841,7.129,18.512,7.503
			c-4.327-32.878-3.727-65.299-2.35-97.635c-29.028,1.592-57.398,3.148-86.261,4.73c0.216,1.608,0.283,2.609,0.492,3.581
			c3.412,15.889,6.944,31.752,10.238,47.666c3.355,16.209,3.247,16.228-1.67,31.776
			C939.028,1719.622,938.524,1721.653,937.888,1723.934z"/>
		<path style="fill:#DE9575;" d="M908.053,391.596c-2.954,7.108,0.484,11.041,5.526,14.739c0.947,0.694,1.872,1.422,2.849,2.072
			c12.887,8.581,27.192,11.306,42.299,9.39c12.651-1.604,22.331-8.677,30.019-18.561c0.9-1.157,1.446-3.123,1.183-4.532
			c-0.45-2.407-1.672-4.669-2.723-7.389c-27.663,3.043-52.712-5.267-77.806-17.919c0,3.937,0.147,7.119-0.037,10.282
			C909.129,383.684,909.527,388.049,908.053,391.596z"/>
		<path style="fill:#59996B;" d="M1154.196,850.072c-3.133,14.818-9.234,28.346-17.894,40.712
			c-8.091,11.552-17.685,21.639-30.633,27.696c-5.943,2.781-12.468,4.317-18.997,6.507c0.681,0.404,1.394,1.052,2.224,1.287
			c11.782,3.329,23.553,6.591,36.033,5.872c4.651-0.268,8.891-1.388,12.913-3.627c7.06-3.929,11.594-10.09,14.887-17.215
			c4.14-8.956,6.035-18.558,5.997-28.314c-0.045-11.708-0.988-23.414-1.613-35.117c-0.05-0.935-0.646-1.841-1.386-3.83
			C1155.006,846.867,1154.538,848.456,1154.196,850.072z"/>
		<path style="fill:#4D4D4D;" d="M1003.979,1888.394c-11.496-4.655-22.906-9.531-34.266-14.51
			c-6.495-2.847-12.961-5.55-20.225-5.504c-6.644,0.043-12.912,1.772-19.087,4.028c-9.288,3.393-18.501,7.055-28.461,8.11
			c-0.858,0.091-1.679,0.53-3.297,1.066c1.94,1.887,3.252,3.365,4.765,4.596c4.258,3.462,9.305,5.299,14.536,6.641
			c9.645,2.476,19.518,3.103,29.417,3.325c20.656,0.463,41.242-1.037,61.83-2.403c2.104-0.14,4.178-0.719,6.267-1.094
			c-0.013-0.379-0.025-0.758-0.038-1.137C1011.596,1890.497,1007.617,1889.867,1003.979,1888.394z"/>
		<path style="fill:#C4C777;" d="M888.653,939.193c0.708-0.196,1.33-0.7,2.55-1.365c-3.25-2.925-5.99-5.565-8.914-7.981
			c-4.117-3.401-8.047-7.197-12.627-9.833c-12.046-6.933-24.396-13.338-36.637-19.929c-1.284-0.691-2.653-1.226-4.815-2.213
			c0.912,12.571,1.767,24.208,2.596,35.846c0.32,4.504,0.433,9.027,0.916,13.512c0.383,3.553,0.914,4.15,4.421,3.946
			c5.094-0.296,10.286-0.593,15.207-1.816C863.854,946.252,876.233,942.638,888.653,939.193z"/>
		<path style="fill:#FFFFFF;" d="M1123.673,725.425c-5.922-7.767-16.59-8.75-23.923-2.325c-6.099,5.344-8.621,12.154-9.256,20.215
			c0.884,3.534,1.336,7.251,2.73,10.571c5.268,12.545,18.178,12.832,25.347,7.505
			C1129.493,753.276,1131.916,736.237,1123.673,725.425z"/>
		<path style="fill:#4D4D4D;" d="M1053.343,1233.342c-5.292,1.081-10.648,1.797-15.889,0.106c-3.804-1.227-7.561-2.756-11.104-4.603
			c-7.065-3.684-14.393-6.385-22.371-6.993c-6.469-0.493-13.012-0.275-17.822,4.74c-3.412,3.557-6.781,6.732-12.67,7.407
			c1.265,1.029,1.785,1.733,2.465,1.961c4.899,1.64,9.738,3.638,14.77,4.668c13.215,2.704,26.661,2.902,40.033,1.853
			c6.252-0.49,12.431-2.417,18.532-4.097c2.589-0.712,5.205-2.035,7.082-4.849c-0.8-0.399-0.961-0.554-1.098-0.535
			C1054.625,1233.087,1053.983,1233.211,1053.343,1233.342z"/>
		<path style="fill:#4D4D4D;" d="M1111.951,700.638c-4.968-2.205-10.182-3.339-15.602-3.238c-4.107,0.076-4.774,1.561-3.439,5.484
			c1.607,4.723,2.824,9.58,4.204,14.381c0.253,0.881,0.481,1.77,0.892,3.287c6.391-3.917,12.788-5.945,19.868-3.334
			c1.281-3.562-0.027-6.455-0.387-9.356C1117.064,704.447,1115.113,702.041,1111.951,700.638z"/>
		<path style="fill:#4D4D4D;" d="M1117.519,765.666c-6.528,2.253-12.559,2.463-18.598-0.649c-0.949,7.362-1.811,14.047-2.742,21.267
			c5.263,0,9.912,0.122,14.551-0.051c2.363-0.088,4.079-1.59,4.756-3.873C1117,777.251,1118.119,772.07,1117.519,765.666z"/>
		<path style="fill:none;" d="M1028.154,1080.152c-6.688-0.401-13.379-0.813-20.076-1c-5.876-0.164-11.761-0.074-17.641-0.005
			c-1.503,0.018-3.244-0.129-4.57,2.441c16.018,0.45,31.406,0.883,47.566,1.337
			C1031.876,1079.965,1029.874,1080.255,1028.154,1080.152z"/>
		<path style="fill:none;" d="M1032.333,1064.264c0.098-0.337,0.195-0.674,0.293-1.011c-0.838-0.622-1.608-1.652-2.524-1.806
			c-14.053-2.352-28.067-0.972-42.064,0.68c-0.603,0.071-1.121,0.864-1.679,1.32
			C1001.848,1063.316,1017.086,1062.161,1032.333,1064.264z"/>
		<path style="fill:none;" d="M1031.754,1100.523c-3.504-2.611-7.554-1.919-11.402-2.177c-3.838-0.258-7.707-0.057-11.562-0.057
			c-4.023,0-8.046,0-12.069,0c-9.238,0-9.238,0-12.047,2.157C1000.948,1100.176,1016.269,1101.698,1031.754,1100.523z"/>
		<path style="fill:none;" d="M1055.164,1037.714c-1.408,1.719-2.278,2.589-2.922,3.603c-1.71,2.69-3.205,5.523-4.999,8.154
			c-3.92,5.748-5.768,5.705-9.907-0.021c-0.295-0.409-0.587-0.822-0.86-1.246c-3.352-5.204-8.25-7.843-14.304-8.095
			c-5.358-0.224-10.762-0.353-16.095,0.086c-5.988,0.493-11.969,1.425-17.862,2.615c-6.476,1.308-10.154,5.402-10.713,12.194
			c-0.291,3.54-0.464,3.526-3.457,5.001c0.056,0.344,0.162,0.648,0.291,0.928l1.193,1.296l1.246-2.036l-1.246,2.036l-1.193-1.296
			c0.543,1.185,1.659,1.773,2.843,1.463c0.946-0.248,1.851-1.783,2.199-2.918c0.532-1.735,0.645-3.616,0.8-5.446
			c0.352-4.151,2.458-6.862,6.442-8.065c1.601-0.484,3.215-0.978,4.858-1.263c10.468-1.818,21.041-2,31.614-1.662
			c4.346,0.139,8.148,1.841,10.602,5.796c0.882,1.422,1.922,2.756,2.978,4.059c3.517,4.341,6.451,5.46,11.039,0.023
			c2.641-3.129,4.567-6.866,6.611-10.491c0.355-0.63,0.713-1.257,1.08-1.876C1055.642,1040.148,1055.329,1039.416,1055.164,1037.714
			z"/>
		<path style="fill:none;" d="M1064.212,1167.772c-5.297-5.364-10.544-10.819-15.332-16.631c-4.281-5.197-6.16-11.493-5.891-18.313
			c0.191-4.857,0.574-9.712,0.601-14.57c0.081-14.298,0.159-28.599-0.088-42.894c-0.046-2.692,0.225-5.797-1.947-8.275
			c-0.579,1.568-0.772,3.123-0.774,4.677c-0.025,12.785-0.012,25.569-0.016,38.354c-0.001,2.523,0.168,5.065-0.074,7.566
			c-0.828,8.55-1.339,17.067,0.947,25.498c0.113,0.416-0.17,0.938-0.335,1.732c-5.389-2.025-10.533-4.461-15.946-5.848
			c-5.312-1.361-10.887-2.175-16.364-2.275c-5.648-0.103-11.454,0.363-16.937,1.657c-5.344,1.262-10.365,3.887-15.883,6.052
			c0.074-1.223,0.115-2.039,0.174-2.854c0.558-7.682,1.254-15.357,1.646-23.047c0.478-9.385,0.553-18.791,1.086-28.172
			c0.371-6.517,1.261-13.003,1.823-19.512c0.101-1.173-0.262-2.386-0.411-3.581c-0.41-0.024-0.82-0.048-1.231-0.072
			c-0.346,1.519-0.817,3.021-1.013,4.559c-0.531,4.153-1.047,8.313-1.384,12.486c-0.835,10.356-1.691,20.712-2.289,31.083
			c-0.297,5.152-0.086,10.336-0.036,15.505c0.111,11.395-3.698,21.723-8.456,31.83c-2.501,5.312-4.851,10.7-7.088,16.129
			c-0.643,1.561-0.658,3.38-0.961,5.081c0.49,0.124,0.981,0.249,1.472,0.373c0.475-0.785,1.066-1.523,1.405-2.362
			c1.818-4.498,3.48-9.061,5.377-13.524c1.836-4.322,4.412-8.397,5.719-12.858c1.638-5.589,5.213-8.792,10.232-10.908
			c2.468-1.041,4.883-2.294,7.445-3.008c12.81-3.572,25.608-3.036,38.209,0.927c8.708,2.739,16.768,6.589,22.258,14.519
			c2.08,3.004,4.794,5.644,7.531,8.104c7.654,6.879,14.931,14.02,19.593,23.404c0.382,0.769,1.483,1.181,2.25,1.759
			c0.275-0.237,0.55-0.473,0.825-0.71c-0.546-1.317-0.979-2.696-1.657-3.942C1074.962,1178.853,1069.653,1173.281,1064.212,1167.772
			z"/>
		<path style="fill:none;" d="M1030.053,1120.291c0.874,0.017,1.757-0.473,2.925-0.811c-1.86-3.142-4.895-2.323-6.949-2.366
			c-14.231-0.293-28.509-1.077-42.671,0.839c0.025,0.445,0.05,0.89,0.075,1.335
			C998.972,1119.635,1014.512,1119.994,1030.053,1120.291z"/>
		<path style="fill:#E8E8E8;" d="M1085.744,1131.558c-3.65-13.08-7.812-26.018-11.489-39.091
			c-5.138-18.261-9.966-36.61-15.078-54.878c-0.172-0.616-0.351-1.231-0.532-1.844l-4.322,6.684
			c-2.044,3.624-3.97,7.361-6.611,10.491c-4.587,5.437-7.522,4.318-11.039-0.023c-1.056-1.303-2.096-2.637-2.978-4.059
			c-2.454-3.955-6.256-5.657-10.602-5.796c-10.573-0.338-21.146-0.155-31.614,1.662c-1.643,0.285-3.257,0.779-4.858,1.263
			c-3.984,1.203-6.091,3.914-6.442,8.065c-0.155,1.83-0.267,3.711-0.8,5.446c-0.348,1.135-1.253,2.67-2.199,2.918
			c-1.185,0.31-2.301-0.278-2.843-1.463l-4.216-4.577c-0.008,0.582-0.037,1.161-0.127,1.726
			c-2.873,18.033-5.939,36.035-8.727,54.081c-2.099,13.585-4.034,27.2-5.742,40.84c-1.766,14.107-4.309,28.162-2.784,42.525
			c0.86,8.097,2.654,15.816,6.178,23.196c1.895,3.969,4.624,6.984,8.26,9.225c6.614,4.077,10.998,4.266,15.919-1.687
			c5.621-6.8,13.177-8.003,21.427-7.181c8.674,0.865,16.529,3.936,24.121,8.108c14.382,7.903,33.423,5.569,44.115-10.174
			c9.286-13.674,14.654-29.049,16.414-45.519C1090.616,1158,1089.389,1144.621,1085.744,1131.558z M988.036,1062.127
			c13.997-1.652,28.011-3.032,42.064-0.68c0.917,0.153,1.686,1.183,2.524,1.806c-0.098,0.337-0.195,0.674-0.293,1.011
			c-15.247-2.103-30.485-0.948-45.975-0.817C986.915,1062.991,987.433,1062.198,988.036,1062.127z M990.437,1079.147
			c5.88-0.07,11.765-0.16,17.641,0.005c6.696,0.187,13.387,0.599,20.076,1c1.72,0.103,3.722-0.187,5.28,2.774
			c-16.16-0.454-31.548-0.887-47.566-1.337C987.194,1079.019,988.934,1079.165,990.437,1079.147z M996.721,1098.289
			c4.023,0,8.046,0,12.069,0c3.855,0,7.724-0.201,11.562,0.057c3.848,0.258,7.898-0.434,11.402,2.177
			c-15.485,1.175-30.806-0.347-47.079-0.077C987.483,1098.289,987.483,1098.289,996.721,1098.289z M1026.028,1117.115
			c2.054,0.042,5.089-0.777,6.949,2.366c-1.168,0.338-2.051,0.827-2.925,0.811c-15.541-0.297-31.081-0.656-46.62-1.002
			c-0.025-0.445-0.05-0.89-0.075-1.335C997.519,1116.038,1011.797,1116.822,1026.028,1117.115z M1079.524,1190.364
			c-0.767-0.578-1.868-0.99-2.25-1.759c-4.662-9.384-11.939-16.525-19.593-23.404c-2.736-2.459-5.451-5.099-7.531-8.104
			c-5.49-7.931-13.551-11.781-22.258-14.519c-12.601-3.964-25.399-4.499-38.209-0.927c-2.562,0.714-4.977,1.967-7.445,3.008
			c-5.019,2.117-8.594,5.319-10.232,10.908c-1.307,4.461-3.883,8.536-5.719,12.858c-1.897,4.464-3.559,9.026-5.377,13.524
			c-0.339,0.84-0.93,1.578-1.405,2.362c-0.491-0.124-0.981-0.249-1.472-0.373c0.303-1.701,0.318-3.521,0.961-5.081
			c2.238-5.428,4.588-10.816,7.088-16.129c4.758-10.108,8.567-20.435,8.456-31.83c-0.05-5.169-0.261-10.353,0.036-15.505
			c0.599-10.371,1.454-20.727,2.289-31.083c0.337-4.172,0.854-8.332,1.384-12.486c0.196-1.538,0.668-3.04,1.013-4.559
			c0.41,0.024,0.82,0.048,1.231,0.072c0.149,1.195,0.512,2.408,0.411,3.581c-0.562,6.508-1.452,12.995-1.823,19.512
			c-0.534,9.381-0.608,18.787-1.086,28.172c-0.392,7.69-1.088,15.365-1.646,23.047c-0.059,0.815-0.1,1.631-0.174,2.854
			c5.517-2.165,10.539-4.79,15.883-6.052c5.482-1.294,11.289-1.76,16.937-1.657c5.477,0.099,11.052,0.914,16.364,2.275
			c5.413,1.387,10.557,3.823,15.946,5.848c0.165-0.794,0.447-1.316,0.335-1.732c-2.286-8.431-1.775-16.948-0.947-25.498
			c0.242-2.501,0.073-5.043,0.074-7.566c0.004-12.785-0.009-25.569,0.016-38.354c0.003-1.555,0.196-3.109,0.774-4.677
			c2.172,2.478,1.901,5.583,1.947,8.275c0.246,14.295,0.169,28.596,0.088,42.894c-0.028,4.858-0.41,9.712-0.601,14.57
			c-0.269,6.819,1.61,13.115,5.891,18.313c4.788,5.812,10.035,11.268,15.332,16.631c5.442,5.51,10.75,11.081,14.481,17.941
			c0.677,1.246,1.111,2.624,1.657,3.942C1080.074,1189.891,1079.799,1190.127,1079.524,1190.364z"/>
		<path style="fill:#DE9575;" d="M1061.826,854.758c0.933-17.938,0.811-35.93,1.123-53.899c0.019-1.083-0.239-2.171-0.433-3.792
			c-2.33,0.797-4.277,1.245-6.029,2.097c-11.776,5.727-23.488,11.588-35.268,17.308c-9.227,4.48-18.563,8.977-28.945,9.711
			c-7.144,0.505-14.389,0.17-21.552-0.323c-12.568-0.865-25.005-2.709-37.086-6.492c-1.344-0.421-2.778-0.55-4.539-0.884
			c2.018,14.021,3.938,27.367,5.907,41.046c1.537-0.441,2.721-0.583,3.708-1.1c3.559-1.865,7.125-3.736,10.551-5.831
			c4.777-2.921,9.822-3.857,15.404-3.456c7.677,0.551,15.393,0.552,23.091,0.83c1.504,0.054,3.045,0.128,4.492,0.495
			c3.615,0.917,5.281,3.212,5.315,6.94c0.039,4.337-2.321,7.245-5.734,9.447c-5.416,3.495-11.477,4.534-17.805,4.503
			c-7.525-0.037-14.27,1.995-19.476,7.743c-5.041,5.567-4.631,8.09,2.187,11.328c9.303,4.418,18.826,7.423,29.509,6.466
			c10.212-0.915,20.336-2.006,30.313-4.385c3.098-0.739,6.215-1.423,9.35-1.978c2.806-0.496,5.477-0.053,7.127,2.554
			c1.736,2.743,0.995,5.428-0.669,7.989c-2.397,3.689-5.872,6.122-9.878,7.473c-7.778,2.623-15.667,4.932-23.56,7.197
			c-3.734,1.072-7.583,1.743-12.409,2.827c1.843,1.08,2.608,1.832,3.481,1.989c4.936,0.89,9.875,2.085,14.855,2.329
			c7.885,0.387,15.814-0.148,23.702,0.205c4.292,0.192,8.725,0.879,12.761,2.295c5.954,2.089,7.072,6.073,3.764,11.441
			c-0.604,0.979-0.936,1.845-0.919,2.754l11.84-4.509c0.354-6.557,0.74-13.112,1.204-19.661
			C1058.644,895.188,1060.772,875.002,1061.826,854.758z"/>
		<path style="fill:#4D4D4D;" d="M1044.674,941.476c1.692,3.358,0.324,6.15-1.883,8.717c-3.073,3.574-7.107,5.686-11.517,6.866
			c-5.983,1.602-12.081,2.777-18.126,4.147c-1.84,0.417-3.671,0.875-5.507,1.313c0.007,0.339,0.015,0.678,0.022,1.016
			c0.725,0.189,1.443,0.417,2.177,0.562c3.288,0.647,6.596,1.203,9.868,1.921c3.327,0.731,6.218,2.397,6.58,6.034
			c0.354,3.555-2.058,5.917-4.984,7.551c-1.295,0.723-2.773,1.265-4.232,1.517c-2.632,0.454-5.311,0.857-7.973,0.879
			c-11.39,0.093-22.781,0.04-34.172,0.04c-4.83,0-9.661,0-15.243,0c0.457,2.563,0.76,4.196,1.038,5.833
			c1.18,6.944,2.538,13.863,3.49,20.838c2.018,14.779,3.841,29.586,5.694,44.387c0.134,1.07,0.226,2.172,0.211,3.258l4.216,4.577
			c-0.128-0.28-0.235-0.583-0.291-0.928c2.993-1.475,3.166-1.461,3.457-5.001c0.559-6.793,4.237-10.886,10.713-12.194
			c5.893-1.19,11.874-2.122,17.862-2.615c5.333-0.439,10.737-0.31,16.095-0.086c6.054,0.253,10.953,2.891,14.304,8.095
			c0.273,0.424,0.565,0.837,0.86,1.246c4.139,5.726,5.987,5.769,9.907,0.021c1.794-2.631,3.289-5.463,4.999-8.154
			c0.644-1.014,1.514-1.884,2.922-3.603c0.165,1.702,0.478,2.434,0.238,2.838c-0.367,0.619-0.724,1.246-1.08,1.876l4.322-6.684
			c-1.284-4.367-2.665-8.688-2.642-13.329c0.012-2.496-0.026-4.995-0.131-7.489c-0.524-12.398-1.255-24.791-1.552-37.194
			c-0.168-7.035,0.249-14.092,0.597-21.129c0.354-7.176,0.702-14.354,1.088-21.529l-11.84,4.509
			C1044.175,940.182,1044.332,940.797,1044.674,941.476z"/>
		<path d="M1178.108,791.024c1.422,3.512,2.597,6.626,3.928,9.671c5.853,13.394,12.065,26.637,15.907,40.825
			c5.343,19.729,8.526,39.756,8.615,60.226c0.22,50.508-35.507,104.09-92.757,115.991c-14.221,2.956-28.544,4.478-43.023,4.861
			c-3.337,0.088-6.679,0.013-10.62,0.013c0.159,2.697-0.079,4.888,0.464,6.864c4.312,15.706,8.702,31.391,13.206,47.043
			c4.971,17.277,10.198,34.48,15.104,51.775c3.693,13.018,5.785,26.308,4.554,39.878c-2.076,22.893-9.902,43.515-25.298,60.858
			c-8.974,10.109-20.319,15.817-33.9,16.885c-2.833,0.223-5.652,0.618-8.531,0.94c-1.306,10.604-2.623,20.926-3.839,31.259
			c-1.532,13.021-3.068,26.042-4.449,39.079c-2.184,20.622-2.808,41.309-0.756,61.951c2.228,22.409,5.253,44.738,7.599,67.136
			c1.225,11.694,2.216,23.451,2.483,35.199c0.716,31.466-0.962,62.878-2.781,94.286c-1.546,26.69-2.939,53.393-3.953,80.107
			c-0.811,21.358-0.122,42.717,1.95,64.006c0.385,3.961,1.087,7.653,3.77,11.15c1.977,2.577,2.948,6.552,2.958,9.909
			c0.057,19.12,3.529,37.792,6.663,56.53c3.425,20.484,4.827,41.083,2.515,61.8c-0.839,7.524-2.21,14.959-5.067,22.049
			c-3.802,9.436-10.483,14.912-20.811,15.831c-23.47,2.088-46.98,3.512-70.533,2.55c-8.339-0.341-16.622-2.216-24.909-3.531
			c-1.967-0.312-3.878-1.101-5.758-1.818c-14.434-5.51-21.54-16.621-19.775-33.478c1.203-11.49,5.112-22.246,9.23-32.915
			c8.412-21.791,16.888-43.544,23.211-66.08c4.9-17.464,10.156-34.831,15.466-52.176c1.523-4.976,1.636-9.756,0.707-14.834
			c-6.294-34.411-15.022-68.264-23.196-102.245c-6.052-25.162-12.083-50.324-16.046-75.933c-3.509-22.675-4.684-45.474-4.236-68.385
			c0.417-21.359,0.901-42.718,1.175-64.079c0.556-43.312-5.346-85.782-16.231-127.683c-4.94-19.014-8.732-38.326-13.059-57.5
			c-0.107-0.473-0.373-0.909-0.747-1.791c-3.881,0-7.892,0.142-11.887-0.045c-3.176-0.149-6.384-0.465-9.487-1.13
			c-3.764-0.806-6.342-3.204-6.816-7.178c-0.557-4.666-1.173-9.364-1.188-14.05c-0.079-24.555-0.201-49.112,0.111-73.664
			c0.601-47.263,1.485-94.523,2.24-141.784c0.019-1.163-0.11-2.329-0.192-3.928c-1.491-0.142-2.923-0.29-4.357-0.412
			c-5.041-0.43-7.357-2.451-7.768-7.492c-0.56-6.869-0.769-13.765-1.182-20.646c-0.543-9.061-1.279-18.114-1.627-27.183
			c-0.112-2.928-1.716-4.092-3.846-5.266c-22.279-12.286-43.177-26.712-63.919-41.372c-12.527-8.855-24.188-18.751-35.04-29.599
			c-11.607-11.603-19.64-25.102-22.122-41.56c-1.488-9.871-1.437-19.755-0.555-29.685c2.486-27.99,6.745-55.722,11.855-83.335
			c1.186-6.412,2.474-12.805,3.756-19.417c-2.317-0.885-4.355-1.582-6.327-2.43c-6.35-2.732-9.004-6.914-7.492-13.605
			c2.108-9.327,4.63-18.581,7.428-27.728c7.519-24.58,15.017-49.171,23.006-73.6c11.032-33.735,32.436-59.407,62.824-77.378
			c16.046-9.49,32.762-17.844,49.12-26.811c18.568-10.179,37.047-20.521,55.633-30.67c3.582-1.956,5.602-4.555,5.704-8.662
			c0.191-7.72,0.4-15.441,0.699-23.158c0.082-2.13-1.379-2.806-2.772-3.769c-4.281-2.963-8.627-5.854-12.719-9.064
			c-11.829-9.28-21.149-20.625-27.64-34.246c-1.807-3.793-3.938-7.435-5.649-11.268c-1.27-2.845-3.257-4.514-6.165-5.418
			c-2.886-0.897-5.73-1.946-8.543-3.055c-4.9-1.932-9.378-4.533-12.944-8.518c-4.106-4.588-6.29-9.999-6.197-16.101
			c0.157-10.339,6.182-16.754,16.701-18.072c-0.428-4.028-2.732-7.158-4.948-10.273c-4.419-6.211-7.921-12.863-10.378-20.086
			c-7.038-20.688-2.964-39.093,11.421-55.312c7.8-8.794,16.884-15.909,28.001-20.104c1.897-0.716,2.859-2.042,3.863-3.668
			c13.083-21.193,31.598-35.95,55.275-43.061c27.782-8.344,52.839-1.08,74.896,17.031c5.875,4.824,11.847,9.366,18.38,13.236
			c4.48,2.654,8.897,5.449,13.124,8.486c13.749,9.878,21.173,23.53,23.6,40.124c2.511,17.167-0.019,33.861-4.688,50.333
			c-2.013,7.099-4.399,14.093-6.694,21.384c0.856,0.403,1.737,0.834,2.63,1.238c9.836,4.444,13.734,15.152,9.059,24.905
			c-2.244,4.682-5.814,8.242-9.932,11.223c-3.536,2.56-7.415,4.655-10.894,7.284c-2.218,1.676-4.424,3.678-5.868,6.009
			c-4.604,7.427-8.753,15.135-13.258,22.625c-6.275,10.435-13.66,20.002-22.971,27.948c-1.503,1.282-2.53,2.631-2.519,4.661
			c0.061,11.481,1.062,22.794,5.782,33.68c12.083,2.414,24.145,4.615,36.109,7.259c20.501,4.531,41.035,8.973,61.38,14.14
			c17.457,4.434,32.389,13.698,45.336,26.241c12.731,12.334,23.831,26.063,34.602,40.067c20.611,26.799,41.116,53.679,61.621,80.56
			c2.944,3.859,5.604,7.813,7.288,12.558c1.328,3.742,0.642,6.087-2.091,8.379c-0.75,0.629-1.49,1.269-2.458,2.095
			c4.958,8.614,9.647,17.143,14.694,25.455c15.828,26.068,30.027,52.95,40.462,81.66c3.491,9.606,6.778,19.394,8.9,29.367
			c5.124,24.092-6.28,44.268-29.27,53.066c-12.615,4.828-25.818,7.434-39.036,9.893c-16.874,3.139-33.891,5.18-51.032,6.154
			C1179.875,790.534,1179.393,790.723,1178.108,791.024z M1235.486,573.63c-3.029-4.237-5.368-7.704-7.903-11.021
			c-13.174-17.237-26.325-34.492-39.627-51.63c-13.197-17.003-26.463-33.954-39.881-50.783
			c-18.707-23.462-42.429-38.816-72.154-44.712c-21.421-4.249-42.718-9.118-64.075-13.692c-5.875-1.258-11.765-2.447-17.499-3.637
			c-1.11,1.524-1.865,2.633-2.693,3.684c-7.29,9.262-16.334,16.351-27.932,18.748c-21.677,4.48-41-0.5-57.011-16.366
			c-1.185-1.175-2.304-2.417-3.56-3.739c-0.837,0.379-1.635,0.628-2.313,1.064c-18.977,12.207-39.006,22.511-59.067,32.767
			c-16.462,8.416-32.922,16.821-48.512,26.848c-26.687,17.165-46.117,40.228-56.047,70.432
			c-10.544,32.07-20.088,64.468-30.047,96.73c-0.445,1.441-0.72,2.94-0.991,4.428c-1.096,6.013,0.2,8.362,5.876,10.444
			c1.888,0.693,3.826,1.402,5.801,1.678c13.304,1.856,26.587,3.985,39.95,5.26c12.197,1.164,24.485,1.393,36.736,1.968
			c2.982,0.14,5.976,0.021,9.121,0.021c0-1.553,0.147-2.71-0.022-3.818c-2.407-15.783-4.8-31.568-7.311-47.335
			c-3.993-25.073-9.008-49.936-15.68-74.447c-0.264-0.971-0.713-2.003-0.585-2.939c0.118-0.866,0.911-2.325,1.38-2.315
			c0.96,0.021,2.177,0.638,2.779,1.407c0.68,0.87,0.879,2.159,1.154,3.298c2.793,11.597,6.032,23.111,8.231,34.82
			c4.343,23.118,8.347,46.306,12.027,69.538c2.549,16.094,4.472,32.293,6.395,48.478c1.764,14.853,3.247,29.742,4.682,44.632
			c1.66,17.228,3.086,34.479,4.759,51.706c0.163,1.683,0.975,3.602,2.106,4.847c12.559,13.82,25.203,27.569,39.776,39.356
			c13.593,10.996,27.101,22.103,40.876,32.865c3.787,2.959,8.249,5.207,12.678,7.15c4.496,1.972,9.328,2.302,14.139,0.226
			c-0.098-1.411-0.117-2.582-0.27-3.734c-1.551-11.661-3.177-23.313-4.649-34.984c-0.332-2.633-1.213-4.613-3.257-6.473
			c-4.98-4.532-6.275-10.138-3.709-16.495c0.295-0.73,0.516-1.49,0.753-2.186c-10.315-5.678-12.925-13.665-5.475-24.583
			c-3.72-2.869-7.174-5.969-7.803-11.111c-0.624-5.093,0.983-9.495,4.063-13.378c-0.759-0.635-1.126-0.977-1.527-1.273
			c-9.657-7.145-10.767-16.099-3.33-25.539c0.942-1.196,1.499-2.985,1.567-4.529c0.299-6.719,0.368-13.449,0.491-20.176
			c0.221-12.116,0.941-24.195,3.047-36.145c3.23-18.326,10.428-34.732,23.925-47.92c13.823-13.507,30.391-18.798,49.441-15.599
			c16.626,2.792,31.967,9.099,46.086,18.268c23.449,15.226,45.823,31.888,66.653,50.57c11.645,10.444,23.22,20.966,34.836,31.442
			c1.065,0.961,1.956,2.504,4.302,1.118c-0.271-1.873-0.354-4.034-0.917-6.06c-2.385-8.577-5.005-17.09-7.373-25.672
			c-7.06-25.586-14.008-51.203-21.066-76.79c-3.549-12.866-5.373-25.986-6.094-39.279c-1.47-27.12,2.888-53.628,8.533-79.989
			c0.376-1.757,0.208-4.887,3.084-4.132c2.55,0.67,1.354,3.414,1.045,5.289c-2.05,12.434-4.438,24.818-6.211,37.29
			c-2.518,17.714-2.589,35.49-0.814,53.325c1.63,16.372,6.691,31.855,11.304,47.478c0.188,0.636,0.427,1.271,0.741,1.853
			c2.626,4.87,5.267,9.732,7.922,14.586c0.724,1.325,1.354,2.744,2.298,3.897c2.174,2.653,5.439,2.452,7.624-0.154
			c1.828-2.181,3.69-4.383,5.817-6.257c14.174-12.483,29.345-23.606,45.779-32.949c11.903-6.767,24.314-12.25,37.982-14.37
			C1228.63,574.501,1231.434,574.174,1235.486,573.63z M948.542,1191.169c-25.385,2.053-50.535,4.087-75.976,6.145
			c0.513,2.953,0.842,5.607,1.443,8.199c5.014,21.597,9.919,43.222,15.166,64.763c7.185,29.498,11.864,59.377,12.359,89.717
			c0.438,26.89,0.019,53.809-0.687,80.698c-0.877,33.432,1.326,66.562,8.55,99.223c6.565,29.683,13.751,59.229,20.69,88.829
			c0.215,0.918,0.722,1.768,1.107,2.681c28.457-2.841,56.837-2.965,85.161-5.666c0.212-2.881,0.404-5.049,0.525-7.22
			c0.731-13.089,1.565-26.174,2.142-39.27c1.213-27.541,2.558-55.081,3.32-82.635c0.479-17.313-0.699-34.615-2.767-51.832
			c-2.385-19.851-4.909-39.687-7.123-59.557c-2.26-20.281-2.325-40.644-0.349-60.926c2.102-21.569,4.95-43.066,7.448-64.598
			c0.478-4.122,0.844-8.258,1.293-12.701c-1.91-0.12-3.386-0.19-4.858-0.31c-8.033-0.655-16.116-0.95-24.086-2.061
			c-17.994-2.51-31.385-11.47-38.072-28.93c-1.553-4.055-2.656-8.318-3.574-12.57
			C949.413,1199.249,949.101,1195.236,948.542,1191.169z M804.718,656.662c-28.571-0.339-56.741-1.297-84.732-6.39
			c-0.414,1.493-0.829,2.587-1.014,3.718c-4.013,24.541-8.237,49.051-11.899,73.644c-2.053,13.787-3.549,27.676-3.256,41.689
			c0.381,18.232,6.235,34.214,18.85,47.593c9.374,9.942,19.504,19.053,30.482,27.149c23.152,17.077,46.924,33.239,72.097,47.238
			c13.07,7.268,26.258,14.326,39.271,21.693c5.362,3.036,10.738,6.22,15.523,10.064c11.138,8.947,21.826,18.451,32.876,27.51
			c9.891,8.108,20.217,15.635,31.518,21.726c7.532,4.06,15.416,6.431,24.117,6.107c9.911-0.37,19.838-0.369,29.758-0.439
			c4.37-0.031,8.758,0.434,13.105,0.156c2.953-0.189,5.975-0.971,8.71-2.105c1.215-0.504,2.373-2.498,2.452-3.879
			c0.047-0.829-1.914-2.221-3.193-2.585c-3.056-0.87-6.223-1.434-9.382-1.846c-7.805-1.018-15.22-4.112-23.3-3.849
			c-5.178,0.168-10.391-0.613-15.582-1.051c-1.567-0.132-3.319-0.707-2.789-2.658c0.235-0.866,1.878-1.816,2.944-1.896
			c2.495-0.185,5.066-0.113,7.537,0.285c17.524,2.826,34.504-0.358,51.312-4.781c3.453-0.909,6.769-2.955,9.688-5.102
			c2.786-2.048,2.689-3.455,1.104-7.03c-2.906,0.49-5.848,1.116-8.822,1.464c-8.343,0.976-16.79,1.348-25.029,2.864
			c-11.428,2.103-22.421,0.037-33.468-2.139c-1.033-0.203-2.574-1.515-2.608-2.361c-0.075-1.907,1.646-2.295,3.288-2.073
			c2.496,0.338,4.992,0.716,7.463,1.199c6.287,1.229,12.571,2.222,19.019,1.395c7-0.898,14.014-1.681,21.023-2.503
			c4.504-0.528,9.055-0.802,13.498-1.648c2.385-0.454,4.828-1.536,6.806-2.949c2.16-1.543,1.858-4.016-0.462-5.363
			c-1.556-0.904-3.406-1.658-5.172-1.777c-6.525-0.438-13.07-0.566-19.606-0.846c-6.2-0.265-12.552,0.177-18.56-1.048
			c-8.009-1.633-15.755-4.563-23.604-6.969c-1.924-0.59-2.784-1.791-1.628-4.233c1.117,0,2.406,0.009,3.696-0.002
			c3.182-0.026,6.411,0.282,9.536-0.152c11.697-1.624,22.996-4.915,34.053-8.976c2.625-0.964,5.091-2.584,7.335-4.29
			c1.851-1.407,3.283-3.38,2.486-6.242c-3.928-1.622-7.629,0.001-11.272,0.881c-12.303,2.972-24.745,4.847-37.403,4.962
			c-10.75,0.098-20.453-3.683-29.522-9.042c-5.191-3.068-5.892-7.095-2.422-11.893c4.941-6.832,11.336-11.416,20.1-11.923
			c3.357-0.194,6.723-0.341,10.06-0.729c4.738-0.55,9.326-1.686,12.681-5.43c1.493-1.666,2.498-3.68,1.42-6.001
			c-0.989-2.13-3.029-1.731-4.845-1.805c-7.719-0.316-15.451-0.454-23.153-1.008c-6.472-0.466-12.183,0.934-17.648,4.553
			c-3.738,2.474-7.957,4.376-12.183,5.927c-9.559,3.506-18.839,2.596-27.559-2.824c-2.569-1.597-5.142-3.201-7.606-4.952
			c-17.581-12.491-34.113-26.35-49.789-41.063c-19.237-18.055-37.457-37.194-56.121-55.86c-6.139-6.14-7.533-12.931-4.058-21.159
			c4.245-10.051,7.773-20.404,11.612-30.626c2.007-5.345,5.035-10.557,5.746-16.068c0.734-5.689-0.702-11.676-1.339-17.517
			C806.265,667.915,805.469,662.457,804.718,656.662z M1062.156,798.269c-1.965,0.709-3.551,1.146-5.02,1.834
			c-7.453,3.497-14.89,7.03-22.306,10.606c-7.87,3.795-15.631,7.828-23.585,11.435c-8.53,3.868-17.615,5.88-26.967,5.516
			c-17.326-0.674-34.555-2.31-51.239-7.521c-0.69-0.216-1.473-0.137-2.54-0.221c1.843,13.044,3.617,25.602,5.519,39.064
			c4.316-2.431,8.022-4.319,11.52-6.535c5.643-3.575,11.661-4.781,18.295-4.172c6.348,0.582,12.745,0.627,19.122,0.884
			c2.349,0.095,4.745-0.141,7.043,0.237c5.072,0.834,7.458,4.302,6.787,9.426c-0.574,4.388-3.305,7.27-6.884,9.43
			c-4.582,2.766-9.702,3.616-14.96,3.959c-3.517,0.229-7.1,0.288-10.516,1.047c-6.821,1.515-11.283,6.019-14.592,12.1
			c1.259,1.168,1.986,2.169,2.968,2.702c8.345,4.529,17.026,8.206,26.719,8.12c12.663-0.113,25.099-2.125,37.389-5.13
			c2.764-0.676,5.593-1.362,8.415-1.475c6.684-0.268,9.874,4.793,6.839,10.762c-0.892,1.755-2.144,3.559-3.702,4.691
			c-2.691,1.953-5.576,3.944-8.692,4.949c-8.784,2.833-17.724,5.182-26.61,7.699c-1.577,0.447-3.184,0.785-5.98,1.466
			c2.8,0.792,4.385,1.281,5.99,1.687c8.44,2.135,17.022,1.478,25.597,1.441c5.861-0.025,11.834,0.009,17.564,1.062
			c9.878,1.814,12.117,7.37,7.072,15.834c2.096,7.458,0.508,11.689-6.187,15.612c-2.299,1.347-4.811,2.469-7.367,3.207
			c-4.35,1.257-8.81,2.136-13.227,3.159c-2.122,0.492-4.252,0.95-6.379,1.423c1.385,1.077,2.666,1.313,3.932,1.615
			c2.118,0.505,4.328,0.808,6.32,1.631c5.443,2.247,6.626,7.975,2.643,12.309c-2.258,2.456-5.179,3.793-8.438,4.109
			c-3.507,0.34-7.045,0.462-10.571,0.475c-8.913,0.033-17.829-0.16-26.74-0.045c-5.992,0.078-11.98,0.528-18.279,0.826
			c0.77,4.283,1.62,8.219,2.168,12.197c2.732,19.813,5.39,39.637,8.052,59.46c0.132,0.986,0.238,2.031,0.062,2.995
			c-1.656,9.071-3.637,18.09-5.023,27.2c-3.085,20.274-6.021,40.573-8.743,60.899c-1.672,12.49-3.257,25.018-4.109,37.582
			c-0.83,12.23,1.245,24.128,6.947,35.209c2.437,4.735,6.323,7.78,11.029,9.911c3.607,1.633,6.877,1.111,9.617-1.892
			c0.68-0.746,1.392-1.464,2.055-2.224c3.502-4.017,7.956-6.063,13.225-6.486c8.707-0.699,17.123,0.42,25.107,4.083
			c3.206,1.471,6.356,3.07,9.501,4.67c8.807,4.481,17.778,4.408,26.875,1.028c7.5-2.787,12.487-8.482,16.352-15.062
			c14.963-25.477,18.861-52.552,10.804-81.104c-4.836-17.14-10.027-34.18-14.921-51.304c-4.661-16.31-9.206-32.655-13.656-49.024
			c-0.959-3.529-1.619-7.209-1.839-10.854c-0.351-5.821-0.114-11.675-0.308-17.509c-0.98-29.45-0.624-58.878,2.139-88.222
			c2.933-31.152,5.328-62.327,5.696-93.629C1062.231,813.883,1062.156,806.359,1062.156,798.269z M844.753,955.313
			c0,1.19,0.009,2.513-0.001,3.836c-0.232,31.099-0.326,62.199-0.735,93.295c-0.477,36.306-1.313,72.607-1.797,108.912
			c-0.105,7.884,0.535,15.785,0.997,23.669c0.299,5.102,1.646,6.597,6.697,7.096c4.001,0.396,8.073,0.531,12.085,0.293
			c22.47-1.337,44.937-2.746,67.393-4.305c6.321-0.439,12.6-1.464,19.141-2.249c0.388-5.138,0.563-9.99,1.156-14.79
			c1.441-11.67,2.954-23.334,4.658-34.969c3.165-21.603,6.544-43.175,9.711-64.778c0.992-6.768,3.106-13.35,2.086-20.439
			c-2.178-15.126-3.787-30.334-5.845-45.479c-1.058-7.79-2.579-15.518-3.879-23.201c-13.495-3.928-24.481-11.389-35.154-19.31
			c-7.284-5.406-14.471-10.99-21.265-16.989c-3.734-3.298-7.299-4.093-11.908-2.765
			C873.917,947.223,859.691,951.132,844.753,955.313z M884.671,168.169c0,1.984-0.06,3.616,0.009,5.241
			c0.768,18.003-3.579,34.632-13.343,49.811c-2.819,4.382-5.683,8.735-8.468,13.138c-3.64,5.755-6.102,11.949-6.83,18.775
			c-0.214,2.004-0.476,4.008-0.822,5.993c-0.443,2.543-1.115,5.055-4.027,5.837c-2.65,0.711-4.341-0.836-6.024-2.681
			c-4.891-5.358-10.753-4.929-14.635,1.149c-3.82,5.981-3.328,12.147,0.014,18.163c2.737,4.927,7.162,7.956,12.225,10.072
			c3.25,1.358,6.599,2.488,9.931,3.641c3.517,1.217,6.037,3.419,7.69,6.803c2.063,4.225,4.453,8.29,6.54,12.504
			c5.679,11.463,13.495,21.204,23.115,29.611c18.573,16.23,39.437,25.449,64.649,21.306c4.429-0.728,8.883-1.895,13.041-3.565
			c11.61-4.663,21.109-12.343,29.281-21.713c10.691-12.259,18.218-26.59,26.178-40.605c1.307-2.301,2.63-4.187,4.754-5.574
			c3.658-2.389,7.395-4.659,11.012-7.106c3.925-2.656,7.492-5.727,9.854-9.94c2.566-4.58,2.872-9.277,0.293-13.943
			c-2.079-3.761-5.23-6.376-9.628-6.342c-4.089,0.032-7.431,1.763-8.885,6.106c-0.532,1.591-1.685,3.358-3.638,2.735
			c-1.186-0.378-2.351-1.794-2.899-3.023c-1.91-4.29-3.648-8.664-5.254-13.079c-1.201-3.301-2.306-6.666-3.084-10.086
			c-1.815-7.978-1.142-16.054-0.445-24.093c0.67-7.727,1.079-15.422-0.447-23.105c-2.402-12.095-9.261-18.697-21.616-19.539
			c-17.264-1.178-34.567-1.769-51.85-2.686c-12.752-0.676-25.501-1.418-38.245-2.234
			C897.125,169.355,891.146,168.728,884.671,168.169z M1145.109,626.077c5.472,9.243,10.845,17.968,15.863,26.894
			c5.103,9.079,9.895,18.334,14.743,27.555c2.321,4.416,2.237,4.46-2.037,7.034c-12.833,7.726-26.824,12.282-41.441,15.103
			c-3.736,0.721-7.5,1.293-11.444,1.966c0.378,2.711,0.947,5.007,0.965,7.307c0.031,4.047,0.904,7.539,4.325,10.146
			c1.019,0.776,1.672,2.091,2.354,3.241c6.551,11.064,5.006,25.913-3.728,35.662c-1.347,1.503-2.494,2.822-2.704,5.123
			c-0.578,6.321-1.625,12.6-2.57,19.51c5.811,0.308,11.982,0.747,18.161,0.943c35.431,1.119,70.52-1.793,105.193-9.251
			c10.344-2.225,20.691-4.563,30.349-9.076c16.159-7.552,25.27-24.069,22.708-41.665c-0.867-5.953-2.23-11.909-4.09-17.629
			c-9.435-29.028-22.183-56.572-37.663-82.872c-8.012-13.612-15.821-27.345-23.824-40.963c-3.081-5.243-4.579-6.016-10.291-4.154
			c-7.323,2.388-14.699,4.865-21.609,8.217c-19.025,9.228-35.867,21.784-51.917,35.437
			C1145.952,625.03,1145.558,625.579,1145.109,626.077z M1093.105,783.962c0.818-6.234,1.739-12.678,2.427-19.146
			c0.102-0.961-0.687-2.232-1.421-3.033c-8.435-9.203-8.623-25.328-1.617-35.774c0.726-1.083,1.655-2.411,1.592-3.577
			c-0.345-6.382-0.843-12.81-4.071-18.531c-0.751-1.331-2.219-2.635-3.647-3.147c-12.451-4.473-23.695-11.167-34.572-18.534
			c-7.584-5.137-15.703-9.125-24.52-11.551c-11.365-3.127-22.472-6.897-33.138-11.953c-2.103-0.997-4.41-1.719-6.701-2.133
			c-6.284-1.138-10.214,3.496-7.853,9.478c1.017,2.578,2.629,5.268,4.722,6.998c3.847,3.179,8.097,5.959,12.466,8.388
			c3.946,2.193,8.361,3.525,12.408,5.56c2.669,1.342,5.336,2.952,7.498,4.982c3.668,3.444,3.38,7.856-0.682,10.755
			c-2.419,1.727-5.233,3.101-8.069,4.008c-9.915,3.17-19.844,6.348-29.912,8.969c-6.309,1.642-12.842,2.884-19.334,3.255
			c-11.738,0.67-23.522,0.507-35.285,0.797c-2.839,0.07-5.697,0.382-8.495,0.875c-5.001,0.881-8.165,3.904-8.994,8.943
			c-0.824,5.014,1.133,9.121,5.52,11.475c3.349,1.798,7.073,3.382,10.792,3.903c7.299,1.023,14.702,1.505,22.077,1.721
			c9.242,0.271,18.499,0.014,27.749,0.073c1.749,0.011,4.233-0.264,4.213,2.352c-0.02,2.692-2.456,2.146-4.228,2.158
			c-7.398,0.049-14.797,0.099-22.196,0.093c-10.59-0.009-21.212,0.229-31.595-2.369c-2.604-0.652-4.14,0.34-5.489,2.336
			c-3.508,5.193-2.414,11.815,3.138,14.836c3.616,1.967,7.755,3.41,11.82,4.031c11.122,1.698,22.329,2.844,33.504,4.19
			c3.17,0.382,6.349,0.693,9.521,1.053c1.643,0.187,3.114,0.763,2.813,2.749c-0.298,1.962-1.907,2.073-3.514,1.892
			c-0.668-0.075-1.325-0.243-1.993-0.31c-5.017-0.502-10.052-0.857-15.049-1.509c-9.991-1.304-19.976-2.68-29.934-4.212
			c-3.735-0.575-5.523-0.003-7.294,3.272c-2.401,4.44-1.231,9.819,3.249,12.27c3.193,1.747,6.768,3.089,10.334,3.799
			c8.397,1.672,16.888,2.877,25.347,4.233c4.314,0.692,8.661,1.197,12.943,2.04c0.831,0.164,1.431,1.501,2.138,2.297
			c-0.833,0.645-1.586,1.618-2.522,1.85c-1.08,0.268-2.333-0.045-3.492-0.229c-12.107-1.927-24.21-3.884-36.318-5.811
			c-0.958-0.153-1.944-0.136-2.77-0.189c-3.566,5.662-2.966,10.821,2.181,14.207c3.305,2.174,7.13,3.839,10.954,4.89
			c13.83,3.801,28.033,5.286,42.316,6.206c12.255,0.789,23.695-2.038,34.625-7.323c5.295-2.56,10.551-5.203,15.768-7.918
			C1050.231,797.388,1070.297,788.073,1093.105,783.962z M897.718,1876.565c7.212,0.931,13.485-1.015,19.695-3.133
			c5.564-1.898,11.044-4.041,16.582-6.017c11.661-4.16,23.097-3.648,34.285,1.735c2.877,1.385,5.745,2.799,8.679,4.055
			c8.647,3.704,17.255,7.514,26.022,10.914c3.878,1.504,8.051,2.483,12.18,3.052c5.586,0.77,11.284-0.75,13.127-7.219
			c0.505-1.772,1.311-3.456,1.843-5.221c2.494-8.266,3.535-16.78,3.909-25.357c0.868-19.914-1.055-39.609-4.495-59.229
			c-2.029-11.571-3.354-23.273-4.734-34.947c-0.611-5.166-0.484-10.414-0.855-15.613c-0.393-5.511-1.718-7.005-6.932-8.353
			c-2.276-0.589-4.535-1.325-6.85-1.666c-5.53-0.815-9.628-3.795-12.813-8.164c-1.979-2.714-3.892-5.497-5.589-8.394
			c-3.903-6.663-9.658-10.004-17.327-10.413c-10.383-0.554-18.906,2.505-24.254,12.014c-1.482,2.635-2.942,5.289-4.265,8.007
			c-0.982,2.017-2.135,3.677-4.26,4.728c-3.677,1.818-5.529,4.923-6.59,8.948c-3.723,14.132-7.188,28.373-11.819,42.216
			c-6.447,19.271-14.017,38.163-20.773,57.335c-2.615,7.421-4.729,15.078-6.312,22.784
			C894.965,1864.507,894.84,1870.646,897.718,1876.565z M1161.14,791.607c-1.517,21.547-1.469,42.528,0.591,63.516
			c1.166,11.884,1.945,23.805,0.459,35.749c-1.303,10.477-4.053,20.443-10.07,29.272c-7.14,10.477-16.992,15.953-29.773,16.04
			c-8.667,0.059-17.031-1.724-25.329-3.95c-9.736-2.613-19.442-5.342-29.198-7.876c-2.203-0.572-4.56-0.549-6.768-0.792
			c-3.057,11.93-3.572,87.004-0.496,94.898c0.616,0.044,1.282,0.154,1.944,0.13c14.627-0.533,29.227-1.375,43.655-4.035
			c27.412-5.053,50.775-17.166,68.544-39.15c15.885-19.653,25.789-41.79,26.854-67.207c1.22-29.107-3.942-57.27-14.672-84.35
			c-3.899-9.839-8.287-19.485-12.458-29.216c-0.511-1.193-1.058-2.371-1.609-3.603
			C1168.864,791.228,1165.205,791.407,1161.14,791.607z M1054.281,678.018c0.369-0.184,0.737-0.367,1.106-0.551
			c-2.531-8.493-5.083-16.981-7.577-25.485c-0.577-1.966-2.23-4.185,0.28-5.863c1.477-0.987,2.922,0.423,4.081,4.57
			c2.574,9.21,4.9,18.49,7.44,27.71c0.465,1.686,1.026,3.871,2.288,4.725c8.358,5.659,17.194,10.467,25.941,13.449
			c3.264-1.171,5.685-2.663,8.188-2.817c6.652-0.408,13.287,0.826,18.846,4.441c4.372,2.843,8.087,1.572,12.829,0.595
			c-1.221-1.281-1.946-2.146-2.776-2.894c-3.995-3.604-8.115-7.073-12.014-10.777c-24.921-23.678-51.53-45.233-80.144-64.318
			c-12.407-8.275-25.585-14.772-39.978-18.737c-6.666-1.836-13.427-3.216-20.377-2.859c-15.679,0.805-28.267,7.768-38.372,19.577
			c-9.766,11.412-15.331,24.748-18.178,39.353c-2.648,13.585-3.086,27.368-3.617,41.134c-0.212,5.493-0.035,11-0.035,16.044
			c11.484-0.139,22.873-0.44,34.259-0.372c12.208,0.074,24.125-1.557,35.779-5.137c8.666-2.662,17.337-5.313,25.942-8.161
			c2.447-0.81,5.193-1.624,6.38-5.242c-1.541-1.24-3.036-2.838-4.861-3.824c-3.094-1.671-6.447-2.852-9.599-4.425
			c-4.799-2.396-9.707-4.656-14.222-7.52c-4.885-3.099-8.796-7.321-10.809-12.938c-3.24-9.042,2.374-16.677,11.883-15.725
			c3.591,0.36,7.226,1.615,10.541,3.123c9.357,4.257,18.971,7.695,28.88,10.399c9.125,2.491,17.802,6.068,25.735,11.309
			C1052.809,677.255,1053.559,677.614,1054.281,678.018z M1027.397,258.539c1.726-0.802,3.307-1.61,4.943-2.279
			c2.232-0.912,4.06-2.004,5.005-4.53c7.718-20.623,13.578-41.609,11.819-63.933c-1.392-17.661-8.497-32.378-23.459-42.653
			c-3.186-2.188-6.417-4.33-9.76-6.264c-7.888-4.562-15.031-10.064-22.106-15.815c-18.591-15.111-40.045-21.918-63.625-16.546
			c-25.714,5.858-45.435,21.077-59.323,43.612c-0.975,1.582-1.82,2.852-3.825,3.616c-16.263,6.195-28.199,17.388-36.257,32.662
			c-4.697,8.902-5.889,18.454-4.053,28.417c1.798,9.756,5.63,18.593,11.159,26.787c2.153,3.191,4.426,6.441,5.782,9.993
			c1.441,3.776,3.001,7.253,6.474,10.166c0.34-1.802,0.786-3.378,0.915-4.98c0.745-9.292,4.086-17.606,9.25-25.28
			c2.44-3.627,4.806-7.305,7.138-11.003c5.708-9.052,9.775-18.768,11.596-29.353c1.374-7.988,1.951-16.007,0.89-24.1
			c-0.503-3.831,0.126-4.24,3.999-3.602c2.983,0.492,5.994,0.914,9.009,1.091c21.986,1.292,43.973,2.565,65.965,3.736
			c11.083,0.59,22.183,0.859,33.265,1.449c14.738,0.785,23.652,8.33,26.971,22.664c1.806,7.801,1.669,15.712,0.785,23.589
			C1018.262,231.023,1019.14,245.567,1027.397,258.539z M1061.419,918.834c9.222,1.935,18.364,2.937,27.606,1.423
			c12.363-2.024,22.79-7.943,31.691-16.553c14.751-14.269,24.546-31.473,29.381-51.399c3.859-15.903,5.494-32.11,5.75-48.459
			c0.062-3.971,0.009-7.945,0.009-12.408c-2.073,0-3.888,0.09-5.692-0.015c-10.731-0.625-21.457-1.319-32.189-1.927
			c-1.814-0.103-3.644,0.098-5.467,0.157c-4.354,0.14-8.836,1.01-13.038,0.278c-11.631-2.026-21.715,2.333-32.506,6.339
			c0.335,40.465-2.125,80.547-5.789,120.567C1061.116,917.464,1061.325,918.117,1061.419,918.834z M1016.024,1630.834
			c-28.53,1.552-56.183,3.056-84.05,4.572c0.255,1.593,0.37,2.583,0.575,3.553c3.332,15.779,6.796,31.532,9.984,47.34
			c3.285,16.287,3.163,16.309-1.741,31.913c-0.431,1.371-0.733,2.783-1.095,4.176c1.693-0.956,2.52-2.306,3.306-3.679
			c1.753-3.059,3.336-6.227,5.256-9.176c4.189-6.433,10.287-10.064,17.807-11.17c2.806-0.413,5.702-0.318,8.556-0.295
			c8.528,0.07,15.232,3.603,19.971,10.748c2.044,3.082,4.04,6.198,6.14,9.241c4.176,6.052,10.289,8.041,17.781,8.481
			C1014.073,1694.568,1015.284,1662.847,1016.024,1630.834z M910.954,371.338c-0.115,1.917-0.147,3.369-0.298,4.809
			c-0.662,6.34-0.98,12.75-2.202,18.982c-0.619,3.158,0.096,4.999,2.198,7.034c7.078,6.851,15.509,11.149,24.98,13.478
			c18.457,4.539,35.011,1.49,48.712-12.525c5.681-5.811,5.712-6.016,2.986-13.497c-0.161-0.443-0.583-0.791-0.998-1.333
			C959.506,391.273,935.06,383.023,910.954,371.338z M1011.156,1892.596c0.034-0.25,0.068-0.5,0.102-0.749
			c-0.53-0.278-1.034-0.635-1.595-0.822c-5.41-1.804-10.965-3.252-16.215-5.435c-8.992-3.74-17.864-7.79-26.659-11.978
			c-10.08-4.8-20.267-5.422-30.855-1.955c-11.42,3.74-22.358,9.151-34.878,10.114c1.273,1.755,2.51,3.41,4.161,4.232
			c4.334,2.156,8.69,4.542,13.32,5.776c14.099,3.76,28.598,3.896,43.067,3.549c10.92-0.262,21.834-0.868,32.745-1.441
			C999.958,1893.592,1005.554,1893.035,1011.156,1892.596z M1090.624,924.743c8.965,3.538,18.189,6.01,27.772,6.728
			c14.871,1.114,25.661-5.252,32.435-18.374c1.834-3.553,3.26-7.38,4.384-11.224c3.839-13.129,3.436-26.562,2.422-40.008
			c-0.296-3.929-0.689-7.85-1.037-11.775c-1.315,1.321-1.778,2.662-2.112,4.035c-4.044,16.621-11.769,31.4-22.614,44.535
			c-9.37,11.348-20.476,20.352-34.968,24.432C1094.823,923.678,1092.719,924.195,1090.624,924.743z M889.22,937.448
			c-3.909-3.578-7.612-7.223-11.596-10.527c-2.949-2.445-6.104-4.736-9.446-6.595c-11.292-6.283-22.706-12.346-34.076-18.487
			c-1.279-0.691-2.58-1.343-4.613-2.399c0.211,3.528,0.367,6.299,0.545,9.069c0.785,12.23,1.543,24.461,2.382,36.687
			c0.31,4.518,1.794,5.899,5.933,5.354c4.718-0.622,9.486-1.198,14.078-2.386c11.853-3.068,23.622-6.457,35.417-9.746
			C888.284,938.294,888.64,937.867,889.22,937.448z M1124.409,631.294c-0.233,0.227-0.465,0.454-0.698,0.681
			c5.877,21.158,11.754,42.315,17.744,63.881c10.631-2.968,20.741-6.697,29.947-12.543c-3.855-10.339-23.775-45.876-28.014-50.162
			C1136.831,634.609,1130.244,637.436,1124.409,631.294z M1091.428,743.57c1.291,3.934,2.037,8.163,3.978,11.744
			c5.188,9.576,16.138,11.226,24.282,4.052c8.242-7.259,10.626-20.833,5.351-30.465c-5.805-10.601-17.718-12.196-26.042-3.448
			C1094.243,730.45,1092.286,736.562,1091.428,743.57z M1052.127,1234.802c-0.649,0-1.306-0.067-1.946,0.01
			c-8.451,1.013-16.369-0.476-23.791-4.751c-2.757-1.588-5.664-2.984-8.636-4.115c-7.328-2.788-14.899-4.243-22.716-2.609
			c-2.233,0.467-4.509,1.435-6.382,2.73c-2.041,1.411-3.501,3.638-5.466,5.193c-1.857,1.469-4.039,2.527-6.599,4.082
			c3.274,1.182,5.885,2.403,8.63,3.072c18.042,4.396,36.277,4.586,54.558,1.92
			C1044.207,1239.689,1048.554,1238.308,1052.127,1234.802z M815.829,772.527c0.487-0.177,0.974-0.354,1.461-0.531
			c-2.514-23.055-5.028-46.109-7.668-70.322c-0.93,1.702-1.406,2.361-1.674,3.097c-4.437,12.14-8.771,24.318-13.304,36.422
			c-1.783,4.762-1.262,8.992,2.253,12.577C803.115,760.113,809.509,766.284,815.829,772.527z M1118.04,716.061
			c-0.525-3.363-0.638-5.897-1.376-8.233c-0.579-1.831-1.527-4.072-3.015-4.997c-5.969-3.713-12.515-5.382-19.587-3.767
			c-0.221,0.05-0.343,0.535-0.341,0.532c1.807,6.454,3.55,12.682,5.423,19.372C1104.651,715.268,1110.747,714.279,1118.04,716.061z
			 M1097.468,785.396c4.599,0,8.573,0.074,12.543-0.026c2.654-0.066,4.239-1.598,5.014-4.126c1.367-4.464,2.152-8.989,2.035-13.593
			c-5.811,0-11.355,0-17.265,0C1099.122,772.782,1098.347,778.692,1097.468,785.396z"/>
		<g>
			<path style="fill:#231F20;" d="M1043.998,942.408l-0.894-5.181l0.447,2.591l-0.45-2.591c0.071-0.012,7.192-1.286,12.899-4.884
				l2.804,4.448C1052.194,940.959,1044.33,942.351,1043.998,942.408z"/>
		</g>
		<path style="fill:#9B9E4B;" d="M1089.047,481.047c1.622,18.382,3.246,36.764,4.859,55.147c0.153,1.747,1.156,4.256-1.308,4.674
			c-2.892,0.491-2.654-2.417-2.921-4.247c-3.895-26.65-5.135-53.452-4.466-80.357c0.097-3.897,0.923-5.509,2.61-5.033
			c2.704,0.764,1.973,3.2,1.991,5.072c0.079,8.227,0.034,16.455,0.034,24.683C1089.581,481.007,1089.314,481.027,1089.047,481.047z"
			/>
		<path style="fill:#9B9E4B;" d="M748.841,539.646c1.547,1.183,2.726,1.827,3.564,2.773c2.892,3.266,5.905,6.465,8.442,9.999
			c10.372,14.446,20.587,29.005,30.85,43.529c0.58,0.821,1.394,1.656,1.528,2.568c0.167,1.135-0.262,2.357-0.433,3.541
			c-0.99-0.377-2.052-0.636-2.943-1.176c-0.518-0.313-0.758-1.081-1.131-1.64c-12.387-18.586-25.18-36.87-39.82-53.79
			c-0.639-0.739-1.423-1.665-1.456-2.529C747.407,542.006,748.192,541.061,748.841,539.646z"/>
		<path style="fill:#9B9E4B;" d="M1181.351,551.853c-7.708-1.741-15.113-2.751-22.047-5.13
			c-11.718-4.021-23.139-8.909-34.685-13.434c-0.156-0.061-0.311-0.128-0.459-0.205c-1.46-0.758-3.495-1.386-2.484-3.549
			c1.052-2.249,2.904-0.871,4.369-0.313c10.964,4.175,21.809,8.689,32.898,12.493c6.15,2.11,12.697,3.061,19.067,4.529
			c1.143,0.263,2.425,0.263,3.403,0.812c1.023,0.573,1.757,1.662,2.618,2.526C1183.123,550.352,1182.214,551.122,1181.351,551.853z"
			/>
		<path style="fill:#B86C4B;" d="M976.053,1344.577c-16.773-0.298-32.066-4.955-45.267-15.59c-1.503-1.211-4.699-2.299-2.606-4.868
			c1.765-2.166,3.65,0.309,5.09,1.434c11.948,9.338,25.654,13.53,40.622,14.167c1.5,0.064,3.084,0.022,4.458,0.51
			c0.883,0.314,1.454,1.509,2.165,2.309c-0.817,0.679-1.563,1.488-2.478,1.986C977.519,1344.808,976.723,1344.577,976.053,1344.577z
			"/>
		<path style="fill:#B86C4B;" d="M752.363,728.983c9.587,0.492,19.193,2.438,27.907,7.605c1.602,0.95,4.424,1.848,3.187,4.279
			c-1.388,2.725-3.451,0.459-5.031-0.425c-9.342-5.227-19.38-7.238-29.98-6.469c-2.126,0.154-4.216,0.975-6.293,1.589
			c-1.117,0.33-2.144,1.135-3.26,1.249c-1.185,0.121-3.022,0.1-3.522-0.605c-1.091-1.54,0.148-2.731,1.62-3.517
			C741.671,730.191,746.696,729.12,752.363,728.983z"/>
		<path style="fill:#949494;" d="M1040.159,1143.474c-1.425-20.068,0.688-39.852,0.023-59.634c-0.164-4.871-0.068-9.75-0.065-14.626
			c0.001-1.483-0.265-3.356,1.892-3.45c2.159-0.095,2.13,1.761,2.151,3.262c0.197,14.115,0.455,28.23,0.497,42.345
			c0.02,6.719-0.36,13.44-0.606,20.159c-0.29,7.928,2.166,14.978,7.253,20.941c4.027,4.719,8.431,9.131,12.834,13.512
			c5.852,5.823,11.669,11.647,15.573,19.045c0.623,1.18,1.337,2.4,1.548,3.677c0.127,0.771-0.426,2.11-1.056,2.423
			c-0.651,0.324-1.848-0.128-2.647-0.544c-0.51-0.266-0.783-1.059-1.076-1.658c-3.451-7.069-8.78-12.645-14.191-18.203
			c-5.617-5.77-10.899-11.867-16.543-17.609c-1.832-1.863-4.245-3.236-6.562-4.527c-14.377-8.01-29.65-10.417-45.754-6.871
			c-2.927,0.644-5.77,1.765-8.569,2.876c-5.827,2.312-10.173,5.795-12.161,12.324c-1.696,5.569-4.885,10.67-7.214,16.064
			c-1.391,3.221-2.413,6.602-3.57,9.922c-0.533,1.529-1.317,3.122-3.115,2.276c-0.813-0.383-1.56-2.308-1.317-3.279
			c0.848-3.399,1.953-6.765,3.302-10.001c3.161-7.585,6.676-15.025,9.752-22.644c2.801-6.937,3.748-14.308,3.634-21.742
			c-0.242-15.822,0.511-31.581,2.373-47.292c0.395-3.336,0.643-6.694,1.178-10.007c0.269-1.668,0.16-4.279,2.829-3.834
			c2.226,0.371,1.59,2.528,1.427,4.187c-0.559,5.684-1.271,11.361-1.583,17.06c-0.635,11.57-1.051,23.153-1.548,34.731
			c-0.287,6.687-0.557,13.374-0.856,20.564c9.728-5.327,20.175-7.727,31.236-7.384
			C1020.122,1135.871,1030.41,1138.62,1040.159,1143.474z"/>
		<path d="M976.32,1057.655c0.12-0.539,0.166-0.7,0.19-0.864c1.638-10.979,4.576-14.377,15.495-15.777
			c9.144-1.172,18.396-1.669,27.618-2.023c7.885-0.303,14.477,2.474,18.69,9.672c0.897,1.532,2.278,2.781,3.513,4.253
			c3.378-1.429,4.907-4.062,6.485-6.586c1.512-2.419,2.811-4.972,4.308-7.402c0.793-1.287,2.174-1.974,3.373-0.865
			c0.613,0.568,0.921,2.308,0.506,3.007c-2.733,4.604-5.318,9.384-8.699,13.49c-3.433,4.169-7.647,3.742-11.184-0.284
			c-0.664-0.755-1.321-1.547-1.814-2.417c-3.446-6.089-8.745-8.558-15.58-8.083c-9.206,0.639-18.415,1.237-27.614,1.971
			c-1.643,0.131-3.282,0.719-4.849,1.296c-3.091,1.138-4.962,3.322-5.336,6.694c-0.241,2.171-0.555,4.334-0.879,6.494
			c-0.276,1.836-1.327,3.573-3.131,3.3c-1.594-0.241-3.68-1.422-4.339-2.777C971.675,1057.883,974.675,1058.341,976.32,1057.655z"/>
		<path style="fill:#949494;" d="M1030.537,1120.84c-14.749,0-29.498,0-44.248,0.002c-0.503,0-1.1,0.201-1.49-0.003
			c-0.936-0.489-1.775-1.164-2.653-1.764c0.89-0.803,1.661-2.015,2.697-2.315c1.569-0.455,3.321-0.347,4.996-0.354
			c12.569-0.054,25.138-0.087,37.707-0.096c1.169-0.001,2.339,0.191,3.507,0.315c1.625,0.173,3.304,0.759,2.82,2.636
			c-0.262,1.015-1.89,1.677-2.902,2.498C1030.827,1121.452,1030.682,1121.146,1030.537,1120.84z"/>
		<path style="fill:#949494;" d="M1030.124,1083.615c-13.738-0.342-27.476-0.68-41.214-1.036c-0.829-0.021-1.709-0.043-2.47-0.323
			c-1.405-0.516-1.622-2.477-0.267-3.137c1.142-0.557,2.552-0.818,3.835-0.791c13.241,0.277,26.481,0.639,39.721,0.98
			c0.335,0.009,0.677,0.008,1.002,0.076c1.645,0.346,3.813,0.631,3.258,2.825c-0.272,1.075-2.25,1.719-3.456,2.558
			C1030.396,1084.382,1030.26,1083.999,1030.124,1083.615z"/>
		<path style="fill:#949494;" d="M1008.719,1101.45c-6.704,0-13.408,0.005-20.113-0.006c-0.834-0.001-1.75,0.104-2.479-0.198
			c-0.653-0.271-1.629-1.17-1.531-1.554c0.203-0.796,0.92-1.582,1.629-2.085c0.472-0.334,1.297-0.228,1.963-0.223
			c13.073,0.1,26.146,0.206,39.219,0.341c1.168,0.012,2.338,0.204,3.5,0.363c1.454,0.199,2.836,0.837,2.384,2.483
			c-0.219,0.798-1.532,1.461-2.486,1.839c-0.716,0.283-1.651-0.008-2.489-0.008c-6.532-0.006-13.064-0.003-19.596-0.003
			C1008.719,1102.083,1008.719,1101.767,1008.719,1101.45z"/>
		<path style="fill:#949494;" d="M1011.297,1060.037c5.537,0,11.076-0.095,16.608,0.059c1.62,0.045,3.315,0.604,4.785,1.321
			c0.624,0.304,1.049,1.636,1,2.468c-0.028,0.484-1.132,0.999-1.835,1.312c-0.411,0.183-0.995,0.044-1.487-0.035
			c-13.396-2.149-26.792-1.106-40.193-0.06c-1.708,0.134-4.267,1.208-4.702-1.268c-0.525-2.984,2.326-2.651,4.227-2.815
			c7.187-0.618,14.38-1.162,21.57-1.734C1011.279,1059.535,1011.288,1059.786,1011.297,1060.037z"/>
		<path style="fill:#59996B;" d="M869.275,1156.944c-2.085-0.46-2.931-1.403-2.346-2.986c0.397-1.073,1.131-2.058,1.857-2.968
			c12.499-15.688,23.185-32.524,32.12-50.481c0.773-1.553,1.452-4.068,3.802-3.022c2.492,1.109,0.84,3.17,0.099,4.727
			c-8.916,18.728-19.803,36.225-32.891,52.33C871.117,1155.527,870.026,1156.271,869.275,1156.944z"/>
		<path style="fill:#FFFFFF;" d="M933.716,300.544c6.666,0.778,14.241-0.763,21.875-1.96c2.73-0.428,5.744-0.298,8.414,0.399
			c5.678,1.482,8.407,6.963,6.813,12.638c-1.138,4.053-3.665,7.126-6.828,9.733c-13.21,10.887-35.417,10.815-48.657-0.186
			c-1.276-1.06-2.477-2.299-3.415-3.66c-4.158-6.032-2.095-12.993,4.742-15.623c2.143-0.824,4.553-1.124,6.868-1.288
			C926.534,300.383,929.568,300.544,933.716,300.544z"/>
		<path style="fill:#D1D1D1;" d="M997.226,229.348c-1.015,0-1.904,0.233-2.597-0.036c-7.306-2.838-15.038-3.062-22.681-3.906
			c-1.951-0.215-4.03-0.697-5.711-1.653c-3.787-2.152-3.916-6.875-0.074-8.891c2.224-1.167,5.175-1.776,7.656-1.471
			c8.357,1.027,15.44,5.265,22.24,9.948C997.992,224.671,998.089,226.623,997.226,229.348z"/>
		<path style="fill:#D1D1D1;" d="M911.718,221.704c-1.037,1.247-1.801,2.899-3.066,3.503c-1.573,0.751-3.559,0.853-5.367,0.856
			c-6.797,0.013-13.353,1.05-19.536,4.005c-0.75,0.359-1.609,0.911-2.333,0.805c-1.058-0.155-2.317-0.593-2.961-1.357
			c-0.446-0.529-0.039-1.814,0.066-2.753c0.034-0.304,0.273-0.623,0.497-0.861c6.019-6.371,12.96-11.144,21.924-12.126
			c3.362-0.368,6.332,0.85,8.471,3.52C910.316,218.426,910.794,219.897,911.718,221.704z"/>
		<path style="fill:#B86C4B;" d="M946.493,232.152c-0.488,3.545-0.918,6.2-1.207,8.869c-0.82,7.566,0.674,14.302,6.637,19.668
			c4.151,3.735,5.393,8.59,3.321,13.764c-1.473,3.68-3.605,7.127-5.755,10.478c-0.448,0.699-2.266,0.52-3.453,0.746
			c-0.001-1.196-0.387-2.569,0.068-3.554c1.396-3.022,3.367-5.791,4.635-8.857c1.298-3.139,0.996-6.49-1.684-8.846
			c-9.047-7.955-9.118-18.101-7.382-28.761c0.162-0.995,0.357-1.984,0.516-2.979c0.255-1.586,0.786-3.277,2.667-2.862
			C945.696,230.003,946.201,231.701,946.493,232.152z"/>
		<path d="M908.603,255.315c0.078,4.824-3.991,9.007-8.873,9.124c-5.019,0.12-9.053-3.69-9.176-8.669
			c-0.131-5.299,3.762-9.356,8.983-9.361C904.413,246.406,908.524,250.445,908.603,255.315z"/>
		<path d="M977.357,264.845c-5.086,0.092-8.893-3.591-9.032-8.737c-0.13-4.81,3.486-8.673,8.311-8.881
			c5.064-0.218,9.089,3.461,9.276,8.481C986.105,260.832,982.433,264.754,977.357,264.845z"/>
		<path style="fill:#B86C4B;" d="M1037.536,273.288c4.121,6.377,1.205,12.566-5.903,13.623c-0.822,0.122-1.759-0.533-2.642-0.827
			c0.349-1.015,0.404-2.379,1.108-2.974c1.61-1.36,3.538-2.344,5.699-3.71c-1.013-1.097-1.615-1.806-2.277-2.453
			c-2.583-2.531-2.624-4.68,0.486-6.442c2.252-1.275,4.963-1.822,7.537-2.381c0.534-0.116,1.589,1.04,1.958,1.82
			c0.159,0.337-0.684,1.484-1.304,1.783C1040.871,272.365,1039.393,272.692,1037.536,273.288z"/>
		<path style="fill:#B86C4B;" d="M841.509,275.071c-2.477-0.12-4.416-0.069-6.299-0.373c-0.789-0.127-2.013-0.977-2.041-1.547
			c-0.036-0.741,0.751-1.854,1.483-2.242c3.093-1.64,9.486-0.049,11.37,2.926c0.596,0.941,0.91,2.918,0.354,3.574
			c-1.781,2.102-1.541,4.131-1.039,6.527c0.212,1.009-0.722,2.258-1.135,3.398c-0.976-0.703-2.327-1.196-2.857-2.148
			C839.822,282.449,839.935,280.145,841.509,275.071z"/>
		<path style="fill:#B86C4B;" d="M897.259,309.17c-2.097-0.51-2.784-1.587-2.07-3.075c3.038-6.325,7.66-11.276,13.497-15.123
			c0.133-0.087,0.333-0.166,0.474-0.132c0.765,0.184,1.818,0.179,2.197,0.676c0.371,0.487,0.168,1.526-0.007,2.27
			c-0.098,0.417-0.617,0.772-1.008,1.076c-4.4,3.418-8.13,7.4-10.841,12.324C899.006,308.08,897.89,308.63,897.259,309.17z"/>
		<path style="fill:#B86C4B;" d="M985.655,304.7c-0.456,0.6-0.818,1.534-1.437,1.759c-0.617,0.224-1.711-0.03-2.206-0.492
			c-0.836-0.78-1.22-2.041-2.049-2.833c-2.77-2.649-5.625-5.213-8.509-7.739c-0.997-0.873-2.257-1.451-3.231-2.345
			c-0.375-0.344-0.591-1.398-0.342-1.764c0.409-0.602,1.229-0.958,1.931-1.309c0.237-0.118,0.675,0.022,0.961,0.165
			c5.804,2.906,10.885,6.643,14.097,12.475C985.185,303.189,985.34,303.849,985.655,304.7z"/>
		<path style="fill:#B86C4B;" d="M881.106,258.811c0.695,1.799-0.01,2.781-1.536,3.167c-2.405,0.608-4.821,1.255-7.273,1.541
			c-0.879,0.103-1.875-0.791-2.817-1.23c0.56-0.904,0.912-2.262,1.718-2.633C874.382,258.193,877.725,257.3,881.106,258.811z"/>
		<path style="fill:#B86C4B;" d="M1001.046,258.408c-1.427-0.283-3.725,0.771-4.175-1.921c-0.268-1.605,1.557-2.478,4.647-2.354
			c0.656,0.026,1.449-0.065,1.931,0.262c0.843,0.573,1.495,1.429,2.226,2.166c-0.818,0.615-1.574,1.356-2.477,1.799
			C1002.666,258.621,1001.902,258.408,1001.046,258.408z"/>
		<path style="fill:#B86C4B;" d="M1238.182,674.389c-17.506-1.138-34.464,1.35-50.872,7.599c-1.593,0.607-3.757,2.187-4.764-0.318
			c-0.979-2.434,1.594-2.937,3.186-3.63c9.314-4.052,19.136-6.311,29.156-7.51c6.48-0.776,13.051-0.849,19.587-1.074
			c1.989-0.069,4.001,0.383,5.996,0.641c1.611,0.209,3.177,0.774,2.843,2.741c-0.336,1.976-2.086,1.833-3.628,1.716
			C1239.183,674.516,1238.683,674.445,1238.182,674.389z"/>
		<path style="fill:#949494;" d="M1009.641,1738.79c-1.562,10.152-3.147,19.598-4.437,29.085
			c-1.334,9.813-2.655,19.642-3.465,29.506c-0.633,7.704,1.547,15.005,5.187,21.797c2.062,3.848,4.304,7.606,6.587,11.33
			c5.383,8.783,9.792,18.01,12.678,27.91c0.599,2.056,0.781,4.281,0.795,6.431c0.004,0.635-1.191,1.744-1.892,1.789
			c-0.71,0.046-1.917-0.81-2.156-1.523c-0.743-2.216-0.975-4.6-1.682-6.831c-2.705-8.526-6.477-16.569-11.115-24.221
			c-2.699-4.453-5.377-8.932-7.792-13.541c-4.487-8.563-6.329-17.8-5.142-27.347c1.7-13.662,3.95-27.255,5.959-40.879
			c0.564-3.823,1.108-7.648,1.654-11.473c0.095-0.665-0.039-1.454,0.277-1.977c0.634-1.048,1.507-1.951,2.281-2.914
			C1008.191,1736.959,1009.003,1737.985,1009.641,1738.79z"/>
		<path style="fill:#949494;" d="M944.834,1735.744c-1.703,8.239-3.211,15.648-4.769,23.046c-2.285,10.85-4.492,21.719-6.945,32.532
			c-2.627,11.578-7.405,22.282-13.636,32.378c-2.997,4.857-5.721,9.882-8.572,14.83c-0.334,0.579-0.555,1.376-1.062,1.667
			c-0.769,0.443-1.963,0.963-2.569,0.653c-0.659-0.337-1.154-1.581-1.166-2.438c-0.013-0.941,0.503-1.944,0.968-2.826
			c1.409-2.675,2.68-5.461,4.402-7.926c11.204-16.046,17.176-34.065,20.739-53.118c2.254-12.052,5.125-23.988,7.723-35.974
			c0.213-0.984,0.375-1.993,0.714-2.935c0.471-1.31,1.222-2.733,2.857-1.931C944.318,1734.094,944.651,1735.436,944.834,1735.744z"
			/>
		<path style="fill:#949494;" d="M993.273,1801.121c-1.479,0.77-2.436,1.695-3.339,1.645c-1.638-0.09-3.27-0.679-4.859-1.2
			c-16.237-5.321-32.348-4.859-48.359,0.965c-0.783,0.285-1.61,0.705-2.392,0.658c-0.712-0.043-1.745-0.481-1.987-1.031
			c-0.251-0.569,0.033-1.855,0.515-2.175c1.519-1.005,3.168-1.929,4.895-2.487c15.234-4.915,30.615-5.507,46.11-1.288
			c2.264,0.616,4.541,1.261,6.695,2.17C991.464,1798.764,992.071,1799.868,993.273,1801.121z"/>
		<path style="fill:#949494;" d="M999.008,1759.556c-0.989,0.89-1.495,1.587-2.175,1.882c-0.543,0.235-1.377,0.165-1.948-0.082
			c-15.479-6.696-30.944-4.055-46.418-0.006c-0.967,0.253-2.005,0.52-2.968,0.41c-0.697-0.079-1.691-0.649-1.881-1.223
			c-0.189-0.569,0.285-1.6,0.793-2.093c0.557-0.541,1.464-0.776,2.257-1.012c12.843-3.822,25.86-6.187,39.269-3.782
			c3.431,0.615,6.761,1.929,10.039,3.18C997.062,1757.245,997.839,1758.469,999.008,1759.556z"/>
		<path style="fill:#949494;" d="M969.884,1772.006c6.09,0.949,12.181,1.887,18.267,2.862c0.651,0.104,1.264,0.433,1.899,0.644
			c1.599,0.533,3.64,1.061,3.142,3.159c-0.599,2.523-2.674,1.906-4.509,1.268c-7.729-2.689-15.75-3.226-23.805-2.727
			c-5.832,0.361-11.626,1.36-17.434,2.095c-1.161,0.147-2.351,0.668-3.451,0.505c-0.951-0.142-1.794-1.011-2.685-1.558
			c0.702-0.803,1.307-2.181,2.122-2.319c6.918-1.171,13.867-2.17,20.824-3.094c1.811-0.24,3.681-0.036,5.523-0.036
			C969.813,1772.538,969.849,1772.272,969.884,1772.006z"/>
		<path style="fill:#949494;" d="M1001.048,1736.999c-0.754,0.611-1.304,1.408-1.951,1.499c-0.936,0.131-2.005-0.09-2.912-0.437
			c-13.592-5.189-27.453-5.458-41.505-2.344c-1.636,0.362-3.598,1.211-4.247-1.033c-0.663-2.289,1.508-2.713,3.078-3.079
			c14.143-3.293,28.214-3.313,42.133,1.208c1.418,0.461,2.806,1.135,4.055,1.945
			C1000.291,1735.143,1000.522,1736.082,1001.048,1736.999z"/>
		<path style="fill:#ABABAB;" d="M971.083,120.83c0.336,0,0.675-0.026,1.008,0.004c1.462,0.135,3.308-0.129,3.333,2.073
			c0.023,2.062-1.696,2.29-3.222,2.383c-13.265,0.809-25.035,6.203-36.578,12.111c-12.114,6.2-24.065,12.721-36.091,19.093
			c-1.185,0.628-2.353,1.374-3.622,1.723c-0.605,0.167-1.747-0.275-2.071-0.797c-0.341-0.549-0.271-1.723,0.118-2.266
			c0.549-0.766,1.504-1.303,2.376-1.767c15.424-8.205,30.772-16.561,46.333-24.498C951.539,124.364,960.961,121.233,971.083,120.83z
			"/>
		<path style="fill:#ABABAB;" d="M1012.244,147.224c-18.219-1.703-33.465,4.354-48.609,10.881c-1.381,0.595-2.754,1.343-4.204,1.592
			c-0.736,0.126-1.853-0.528-2.371-1.173c-0.263-0.327,0.28-1.514,0.717-2.127c0.357-0.501,1.072-0.779,1.671-1.069
			c13.359-6.469,27.099-11.819,42.044-13.06c3.423-0.284,6.97,0.479,10.402,1.086c0.754,0.133,1.768,1.678,1.729,2.53
			C1013.591,146.604,1012.204,147.26,1012.244,147.224z"/>
		<path style="fill:#ABABAB;" d="M851.539,194.152c-0.658,2.498-1.013,4.491-1.704,6.361c-2.896,7.834-5.847,15.649-8.888,23.428
			c-0.621,1.589-1.161,4.153-3.583,3.242c-2.467-0.928-0.999-3.027-0.427-4.672c3.235-9.302,6.476-18.601,9.717-27.901
			c0.11-0.316,0.247-0.622,0.353-0.94c0.481-1.446,1.45-2.51,2.944-1.81C850.764,192.24,851.145,193.544,851.539,194.152z"/>
		<path style="fill:#ABABAB;" d="M1026.533,206.033c0.345,0.278,1.196,0.653,1.553,1.301c3.566,6.467,7.124,12.941,10.468,19.523
			c0.433,0.852-0.361,2.327-0.587,3.513c-1.09-0.496-2.718-0.695-3.185-1.537c-3.58-6.459-6.991-13.014-10.321-19.606
			C1023.536,207.395,1024.484,205.856,1026.533,206.033z"/>
	</g>
</g>
</svg>
